manifont-grotesk_bold-italic.sfdir
StartChar: exclam
Encoding: 1 33 131
Width: 259
Flags: HMW
HStem: 0 150<82 205 54 233> 700 20G<188 347 347 347>
LayerCount: 3
Back
SplineSet
230 228 m 1
 114 228 l 1
 188 720 l 1
 347 720 l 1
 230 228 l 1
205 0 m 1
 54 0 l 1
 82 150 l 1
 233 150 l 1
 205 0 l 1
EndSplineSet
Fore
SplineSet
118.783203125 155.659179688 m 5
 197.525390625 139.95703125 l 5
 229.813476562 96.462890625 l 5
 215.0859375 22.3408203125 l 5
 168.630859375 -5.5224609375 l 5
 89.8876953125 10.1806640625 l 5
 57.599609375 53.673828125 l 5
 72.3271484375 127.795898438 l 5
 118.783203125 155.659179688 l 5
230 228 m 1
 116.75 246 l 1
 190.25 735 l 1
 345 712 l 1
 230 228 l 1
EndSplineSet
Validated: 1
Layer: 2
EndChar
StartChar: quotedbl
Encoding: 2 34 145
Width: 459
Flags: HMW
HStem: 482 238<189.5 281.5 165.5 348.5 189.5 365.5 389.5 481.5>
LayerCount: 3
Back
SplineSet
281 482 m 1
 165 482 l 1
 189 720 l 1
 348 720 l 1
 281 482 l 1
481 482 m 1
 365 482 l 1
 389 720 l 1
 548 720 l 1
 481 482 l 1
EndSplineSet
Fore
SplineSet
384.708984375 678.122070312 m 1
 438.166015625 722.908203125 l 1
 502.623046875 722.908203125 l 1
 538.73828125 678.11328125 l 1
 517.75390625 569.939453125 l 1
 469.021484375 466.580078125 l 1
 398.233398438 417.758789062 l 1
 361.723632812 474.115234375 l 1
 412.28515625 507.10546875 l 1
 442.247070312 569.939453125 l 1
 408.560546875 569.939453125 l 1
 372.43359375 614.760742188 l 1
 384.708984375 678.122070312 l 1
180.454101562 678.122070312 m 1
 233.911132812 722.908203125 l 1
 298.3671875 722.908203125 l 1
 334.483398438 678.11328125 l 1
 313.499023438 569.939453125 l 1
 264.766601562 466.580078125 l 1
 193.977539062 417.758789062 l 1
 157.46875 474.115234375 l 1
 208.030273438 507.10546875 l 1
 237.9921875 569.939453125 l 1
 204.305664062 569.939453125 l 1
 168.177734375 614.760742188 l 1
 180.454101562 678.122070312 l 1
EndSplineSet
Validated: 1
Layer: 2
EndChar
StartChar: numbersign
Encoding: 3 35 160
Width: 698
Flags: HMW
HStem: 0 21G<52 201 52 52 292 441 292 292> 175 125<100 136 36 196 345 376 100 285 585 628> 425 125<212 256 148 315 465 496 212 405 705 740> 700 20G<397 547 547 547 637 787 787 787>
LayerCount: 3
Back
SplineSet
441 0 m 1
 292 0 l 1
 376 175 l 1
 285 175 l 1
 201 0 l 1
 52 0 l 1
 136 175 l 1
 36 175 l 1
 100 300 l 1
 196 300 l 1
 256 425 l 1
 148 425 l 1
 212 550 l 1
 315 550 l 1
 397 720 l 1
 547 720 l 1
 465 550 l 1
 555 550 l 1
 637 720 l 1
 787 720 l 1
 705 550 l 1
 804 550 l 1
 740 425 l 1
 645 425 l 1
 585 300 l 1
 692 300 l 1
 628 175 l 1
 525 175 l 1
 441 0 l 1
405 425 m 1
 345 300 l 1
 436 300 l 1
 496 425 l 1
 405 425 l 1
EndSplineSet
Fore
SplineSet
434 -14.75 m 1
 313 44 l 1
 376 175 l 1
 285 175 l 1
 194 -14.75 l 1
 73 44 l 1
 136 175 l 1
 36 175 l 1
 36 300 l 1
 196 300 l 1
 256 425 l 1
 148 425 l 1
 148 550 l 1
 315 550 l 1
 404.25 735 l 1
 525.75 676 l 1
 465 550 l 1
 555 550 l 1
 644.25 735 l 1
 765.75 676 l 1
 705 550 l 1
 804 550 l 5
 804 425 l 5
 645 425 l 1
 585 300 l 1
 692 300 l 5
 692 175 l 5
 525 175 l 1
 434 -14.75 l 1
405 425 m 1
 345 300 l 1
 436 300 l 1
 496 425 l 1
 405 425 l 1
EndSplineSet
Validated: 1
Layer: 2
EndChar
StartChar: dollar
Encoding: 4 36 167
Width: 596
Flags: HMW
HStem: -109.186 21.42G<236.645 313.145 236.645 236.645> 808.814 20.4G<419.225 495.725 495.725 495.725>
LayerCount: 3
Back
SplineSet
401 734 m 1
 418 820 l 1
 493 820 l 1
 476 732 l 1
 603 719 661 648 644 514 c 1
 592 512 539 509 487 507 c 1
 487 545 479 575 448 588 c 1
 420 445 l 1
 548 420 637 353 609 209 c 0
 582 68 451 -4 331 -14 c 1
 314 -100 l 1
 239 -100 l 1
 256 -13 l 1
 110 2 54 91 71 230 c 1
 123 233 175 235 227 238 c 1
 220 172 240 140 284 129 c 1
 318 307 l 1
 143 333 131 437 147 516 c 0
 174 654 288 724 401 734 c 1
444 204 m 0
 450 235 442 260 415 278 c 0
 408 283 399 287 390 291 c 1
 358 127 l 1
 400 135 435 158 444 204 c 0
304 530 m 0
 297 496 307 477 348 459 c 1
 374 592 l 1
 335 584 309 560 304 530 c 0
EndSplineSet
Fore
SplineSet
422.259765625 841.837890625 m 1
 494.719726562 827.684570312 l 1
 477.470703125 739.208007812 l 1
 619.009765625 674.315429688 l 1
 646.174804688 535.19921875 l 1
 489.615234375 509.8828125 l 1
 481.493164062 560.665039062 l 1
 448.900390625 592.447265625 l 1
 420.330078125 446.622070312 l 1
 577.174804688 371.711914062 l 1
 614.012695312 205.986328125 l 1
 507.790039062 42.1474609375 l 1
 329.772460938 -21.5537109375 l 1
 309.622070312 -123.248046875 l 1
 237.233398438 -109.22265625 l 1
 254.495117188 -20.533203125 l 1
 97.3798828125 56.052734375 l 1
 67.3251953125 216.194335938 l 1
 224.405273438 235.57421875 l 1
 233.970703125 158.876953125 l 1
 283.065429688 124.270507812 l 1
 317.7578125 305.807617188 l 1
 157.008789062 392.192382812 l 1
 142.860351562 519.067382812 l 1
 239.465820312 679.103515625 l 1
 402.448242188 741.249023438 l 1
 422.259765625 841.837890625 l 1
348.28515625 460.90234375 m 1
 374.814453125 596.615234375 l 1
 325.590820312 573.303710938 l 1
 302.888671875 533.34765625 l 1
 307.030273438 490.975585938 l 1
 348.28515625 460.90234375 l 1
416.149414062 276.21875 m 1
 389.889648438 289.40234375 l 1
 357.153320312 122.14453125 l 1
 414.469726562 146.833984375 l 1
 445.654296875 200.54296875 l 1
 443.5625 243.44140625 l 1
 416.149414062 276.21875 l 1
EndSplineSet
Validated: 1
Layer: 2
EndChar
StartChar: percent
Encoding: 5 37 344
Width: 770
VWidth: 0
Flags: HW
LayerCount: 3
Back
SplineSet
286.479492188 724.924804688 m 5
 388.182617188 681.108398438 l 5
 410.356445312 559.955078125 l 5
 341.125 438.885742188 l 5
 222.374023438 394.9765625 l 5
 120.670898438 438.860351562 l 5
 98.49609375 559.955078125 l 5
 167.729492188 681.049804688 l 5
 286.479492188 724.924804688 l 5
247.3828125 0 m 5
 177.94140625 0 l 5
 108.5 0 l 5
 370.96875 360.006835938 l 5
 633.436523438 720.004882812 l 5
 703.377929688 720.004882812 l 5
 773.319335938 720.004882812 l 5
 510.350585938 360.006835938 l 5
 247.3828125 0 l 5
243.463867188 500.095703125 m 5
 278.653320312 513.495117188 l 5
 303.40234375 560.038085938 l 5
 296.47265625 606.473632812 l 5
 266.47265625 619.97265625 l 5
 231.200195312 606.573242188 l 5
 205.6171875 560.038085938 l 5
 213.221679688 513.561523438 l 5
 243.463867188 500.095703125 l 5
659.278320312 325.037109375 m 5
 761.095703125 281.219726562 l 5
 783.322265625 160.05859375 l 5
 714.017578125 38.85546875 l 5
 595.255859375 -5.0029296875 l 5
 493.521484375 38.888671875 l 5
 471.377929688 160.05859375 l 5
 540.662109375 281.186523438 l 5
 659.278320312 325.037109375 l 5
615.346679688 100.041015625 m 5
 650.723632812 113.5234375 l 5
 676.284179688 160.142578125 l 5
 668.5546875 206.518554688 l 5
 638.189453125 220.076171875 l 5
 602.96875 206.619140625 l 5
 578.250976562 160.142578125 l 5
 585.229492188 113.58203125 l 5
 615.346679688 100.041015625 l 5
EndSplineSet
Fore
SplineSet
286.479492188 724.924804688 m 5
 388.182617188 681.108398438 l 5
 410.356445312 559.955078125 l 5
 341.125 438.885742188 l 5
 222.374023438 394.9765625 l 5
 120.670898438 438.860351562 l 5
 98.49609375 559.955078125 l 5
 167.729492188 681.049804688 l 5
 286.479492188 724.924804688 l 5
236.75 -14.75 m 5
 145.75 51.25 l 5
 644.25 735 l 5
 735.75 668.5 l 5
 236.75 -14.75 l 5
243.463867188 500.095703125 m 5
 278.653320312 513.495117188 l 5
 303.40234375 560.038085938 l 5
 296.47265625 606.473632812 l 5
 266.47265625 619.97265625 l 5
 231.200195312 606.573242188 l 5
 205.6171875 560.038085938 l 5
 213.221679688 513.561523438 l 5
 243.463867188 500.095703125 l 5
659.278320312 325.037109375 m 5
 761.095703125 281.219726562 l 5
 783.322265625 160.05859375 l 5
 714.017578125 38.85546875 l 5
 595.255859375 -5.0029296875 l 5
 493.521484375 38.888671875 l 5
 471.377929688 160.05859375 l 5
 540.662109375 281.186523438 l 5
 659.278320312 325.037109375 l 5
615.346679688 100.041015625 m 5
 650.723632812 113.5234375 l 5
 676.284179688 160.142578125 l 5
 668.5546875 206.518554688 l 5
 638.189453125 220.076171875 l 5
 602.96875 206.619140625 l 5
 578.250976562 160.142578125 l 5
 585.229492188 113.58203125 l 5
 615.346679688 100.041015625 l 5
EndSplineSet
Validated: 1
Layer: 2
EndChar
StartChar: ampersand
Encoding: 6 38 172
Width: 638
Flags: HMW
HStem: -15 120<264.5 294> 0 21G<460 618 460 460> 615 120<376 415.5>
LayerCount: 3
Back
SplineSet
618 0 m 1xa0
 460 0 l 1
 452 12 443 25 436 37 c 1
 386 5 328 -15 260 -15 c 0
 111 -15 53 71 75 184 c 0
 94 280 155 337 223 381 c 1
 202 411 171 466 187 550 c 0
 210 665 308 735 423 735 c 0
 568 735 592 637 577 560 c 0
 565 494 528 444 456 396 c 0
 439 384 419 372 396 360 c 1x60
 419 323 441 286 464 249 c 1
 476 280 483 313 487 347 c 1
 616 347 l 1
 604 272 578 197 535 135 c 1
 562 90 590 45 618 0 c 1xa0
332 466 m 2
 340 451 l 1
 422 502 439 522 446 560 c 0
 452 591 434 615 397 615 c 0
 355 615 325 582 318 550 c 0
 311 514 319 490 332 466 c 2
213 194 m 0
 202 135 243 105 286 105 c 0x60
 321 105 352 115 378 132 c 1
 345 185 312 238 279 291 c 1xa0
 246 265 221 235 213 194 c 0
EndSplineSet
Fore
SplineSet
473.208984375 -20.9140625 m 1
 439.288085938 32.09765625 l 1
 355.197265625 -8.1591796875 l 1
 258.708984375 -22.37109375 l 1
 98.990234375 35.87109375 l 1
 69.9423828125 180.588867188 l 1
 126.678710938 300.899414062 l 1
 220.78515625 381.346679688 l 1
 188.293945312 446.962890625 l 1
 184.049804688 553.70703125 l 1
 269.143554688 692.022460938 l 1
 424.770507812 742.387695312 l 1
 564.357421875 682.573242188 l 1
 581.8203125 563.828125 l 1
 543.026367188 473.34375 l 1
 458.44140625 396.571289062 l 1
 396.720703125 359.087890625 l 1
 465.934570312 245.828125 l 1
 481.293945312 295.541015625 l 1
 489.903320312 346.740234375 l 1
 617.619140625 325.831054688 l 1
 591.950195312 233.583007812 l 1
 538.045898438 129.512695312 l 1
 587.034179688 49.4306640625 l 1
 473.208984375 -20.955078125 l 1
 473.208984375 -20.9140625 l 1
285.068359375 100.07421875 m 1
 335.44921875 107.302734375 l 1
 379.94140625 128.86328125 l 1
 278.92578125 290.931640625 l 1
 234.688476562 245.950195312 l 1
 210.583007812 190.872070312 l 1
 227.194335938 122.892578125 l 1
 285.068359375 100.07421875 l 1
422.786132812 513.504882812 m 1
 448.157226562 564.16796875 l 1
 439.579101562 604.056640625 l 1
 398.158203125 620.284179688 l 1
 344.504882812 599.37890625 l 1
 317.634765625 554.047851562 l 1
 317.125 506.564453125 l 1
 340.052734375 453.02734375 l 1
 422.786132812 513.504882812 l 1
EndSplineSet
Validated: 1
Layer: 2
EndChar
StartChar: quotesingle
Encoding: 7 39 146
Width: 259
Flags: HMW
HStem: 482 238<189 281 165 348>
LayerCount: 3
Back
SplineSet
281 482 m 1
 165 482 l 1
 189 720 l 1
 348 720 l 1
 281 482 l 1
EndSplineSet
Fore
SplineSet
183.456054688 678.122070312 m 1
 236.9140625 722.908203125 l 1
 301.370117188 722.908203125 l 1
 337.485351562 678.11328125 l 1
 331.327148438 646.373046875 l 1
 316.501953125 569.939453125 l 1
 267.768554688 466.580078125 l 1
 196.98046875 417.758789062 l 1
 160.471679688 474.115234375 l 1
 211.032226562 507.10546875 l 1
 240.995117188 569.939453125 l 1
 207.307617188 569.939453125 l 1
 171.180664062 614.760742188 l 1
 183.456054688 678.122070312 l 1
EndSplineSet
Validated: 1
Layer: 2
EndChar
StartChar: parenleft
Encoding: 8 40 173
Width: 351
Flags: HMW
HStem: -100 21G<208 331 208 208> 800 20G<387 510 510 510>
LayerCount: 3
Back
SplineSet
119 360 m 0
 152 529 250 706 387 820 c 1
 510 820 l 1
 377 680 310 541 274 360 c 0
 239 179 252 40 331 -100 c 1
 208 -100 l 1
 115 14 87 191 119 360 c 0
EndSplineSet
Fore
SplineSet
388.786132812 829.1953125 m 5
 467.474609375 763.919921875 l 5
 356.8671875 610.194335938 l 5
 273.654296875 359.828125 l 5
 259.08203125 109.622070312 l 5
 315.749023438 -61.76953125 l 5
 206.225585938 -109.200195312 l 5
 113.075195312 104.297851562 l 5
 115.583984375 359.828125 l 5
 212.327148438 615.645507812 l 5
 388.786132812 829.1953125 l 5
EndSplineSet
Validated: 1
Layer: 2
EndChar
StartChar: parenright
Encoding: 9 41 174
Width: 351
Flags: HMW
HStem: -100 21G<-19 103 -19 -19> 800 20G<159 282 282 282>
LayerCount: 3
Back
SplineSet
370 360 m 0
 338 191 240 14 103 -100 c 1
 -19 -100 l 1
 113 40 180 179 215 360 c 0
 251 541 238 680 159 820 c 1
 282 820 l 1
 375 706 403 529 370 360 c 0
EndSplineSet
Fore
SplineSet
101.068359375 -109.200195312 m 5
 22.3798828125 -43.9248046875 l 5
 132.987304688 109.80078125 l 5
 216.200195312 360.166992188 l 5
 230.772460938 610.373046875 l 5
 174.10546875 781.764648438 l 5
 283.62890625 829.1953125 l 5
 376.779296875 615.697265625 l 5
 374.270507812 360.166992188 l 5
 277.52734375 104.349609375 l 5
 101.068359375 -109.200195312 l 5
EndSplineSet
Validated: 1
Layer: 2
EndChar
StartChar: asterisk
Encoding: 10 42 179
Width: 399
Flags: HMW
HStem: 411 21G<342 342> 715 20G<239 361 361 361>
LayerCount: 3
Back
SplineSet
361 735 m 1
 342 635 l 1
 372 651 402 666 432 682 c 1
 444 643 457 605 469 566 c 1
 436 562 402 557 369 553 c 1
 393 530 417 506 441 483 c 1
 342 411 l 1
 299 503 l 1
 254 412 l 1
 155 484 l 1
 179 507 204 531 228 554 c 1
 195 559 163 563 130 568 c 1
 142 607 155 645 167 684 c 1
 196 668 226 652 255 636 c 1
 250 669 244 702 239 735 c 1
 361 735 l 1
EndSplineSet
Fore
SplineSet
362.23046875 738.240234375 m 5
 342.849609375 636.240234375 l 5
 434.650390625 684.1796875 l 5
 472.389648438 565.860351562 l 5
 370.389648438 552.599609375 l 5
 443.830078125 481.200195312 l 5
 342.849609375 407.759765625 l 5
 298.990234375 501.599609375 l 5
 253.08984375 408.780273438 l 5
 152.110351562 482.219726562 l 5
 226.5703125 553.620117188 l 5
 126.610351562 567.900390625 l 5
 164.349609375 686.219726562 l 5
 254.110351562 637.259765625 l 5
 237.790039062 738.240234375 l 5
 362.23046875 738.240234375 l 5
EndSplineSet
Validated: 1
Layer: 2
EndChar
StartChar: plus
Encoding: 11 43 143
Width: 596
Flags: HMW
HStem: 114 21G<252 387 252 252> 300 125<132 288 108 312 447 604 132 423> 590 20G<348 483 483 483>
LayerCount: 3
Back
SplineSet
423 300 m 1
 387 114 l 1
 252 114 l 1
 288 300 l 1
 108 300 l 1
 132 425 l 1
 312 425 l 1
 348 610 l 1
 483 610 l 1
 447 425 l 1
 628 425 l 1
 604 300 l 1
 423 300 l 1
EndSplineSet
Fore
SplineSet
423 300 m 1
 387 114 l 1
 257 139 l 5
 288 300 l 1
 108 300 l 1
 108 425 l 1
 312 425 l 1
 348 610 l 1
 478.25 584.75 l 1
 447 425 l 1
 604 425 l 1
 604 300 l 1
 423 300 l 1
EndSplineSet
Validated: 1
Layer: 2
EndChar
StartChar: comma
Encoding: 12 44 126
Width: 251
Flags: HMW
HStem: -157 21G<73 73> 0 150<79 127 50 230 201 201>
LayerCount: 3
Back
SplineSet
127 0 m 1
 50 0 l 1
 79 150 l 1
 230 150 l 1
 201 0 l 2
 184 -85 133 -133 73 -157 c 1
 48 -94 l 1
 86 -79 116 -54 127 0 c 1
EndSplineSet
Fore
SplineSet
69.2060546875 108.122070312 m 1
 122.6640625 152.908203125 l 1
 187.120117188 152.908203125 l 1
 223.235351562 108.11328125 l 1
 217.077148438 76.373046875 l 1
 202.251953125 -0.060546875 l 1
 153.518554688 -103.419921875 l 1
 82.73046875 -152.241210938 l 1
 46.2216796875 -95.884765625 l 1
 96.7822265625 -62.89453125 l 1
 126.745117188 -0.060546875 l 1
 93.0576171875 -0.060546875 l 1
 56.9306640625 44.7607421875 l 1
 69.2060546875 108.122070312 l 1
EndSplineSet
Validated: 1
Layer: 2
EndChar
StartChar: hyphen
Encoding: 13 45 128
Width: 370
Flags: HMW
HStem: 192 136<113 357 87 383>
LayerCount: 3
Back
SplineSet
357 192 m 1
 87 192 l 1
 113 328 l 1
 383 328 l 1
 357 192 l 1
EndSplineSet
Fore
SplineSet
357 192 m 1
 87 192 l 1
 87 328 l 5
 357 328 l 5
 357 192 l 1
EndSplineSet
Validated: 1
Layer: 2
EndChar
StartChar: period
Encoding: 14 46 127
Width: 251
Flags: HMW
HStem: 0 150<78 201 50 229>
LayerCount: 3
Back
SplineSet
201 0 m 1
 50 0 l 1
 78 150 l 1
 229 150 l 1
 201 0 l 1
EndSplineSet
Fore
SplineSet
114.6171875 155.619140625 m 5
 193.359375 139.916992188 l 5
 225.647460938 96.4228515625 l 5
 210.919921875 22.30078125 l 5
 164.46484375 -5.5625 l 5
 85.7216796875 10.140625 l 5
 53.43359375 53.6337890625 l 5
 68.1611328125 127.755859375 l 5
 114.6171875 155.619140625 l 5
EndSplineSet
Validated: 1
Layer: 2
EndChar
StartChar: slash
Encoding: 15 47 151
Width: 401
Flags: HMW
HStem: -100 21G<-19 134 -19 -19> 800 20G<405 560 560 560>
LayerCount: 3
Back
SplineSet
134 -100 m 1
 -19 -100 l 1
 405 820 l 1
 560 820 l 1
 134 -100 l 1
EndSplineSet
Fore
SplineSet
134 -100 m 1
 8.25 -41.25 l 1
 405 820 l 1
 532.75 761 l 5
 134 -100 l 1
EndSplineSet
Validated: 1
Layer: 2
EndChar
StartChar: zero
Encoding: 16 48 116
Width: 596
Flags: HMW
HStem: -15 125<425.439 472.439 425.439 503.439> 610 125<490.439 537.439>
LayerCount: 3
Back
SplineSet
104 360 m 0
 145 567 251 735 440 735 c 0
 629 735 671 567 630 360 c 0
 590 153 484 -15 295 -15 c 0
 106 -15 64 153 104 360 c 0
490 360 m 0
 499 402 503 443 500 478 c 1
 280 122 l 1
 291 114 304 110 319 110 c 0
 398 110 464 223 490 360 c 0
244 360 m 0
 236 318 233 278 234 243 c 1
 454 598 l 1
 443 606 431 610 416 610 c 0
 337 610 271 497 244 360 c 0
EndSplineSet
Fore
SplineSet
440.686523438 742.749023438 m 1
 625.583984375 630.655273438 l 1
 634.469726562 360.284179688 l 1
 520.55078125 89.9052734375 l 1
 292.733398438 -22.1796875 l 1
 107.70703125 89.9052734375 l 1
 97.9296875 360.284179688 l 1
 212.772460938 630.655273438 l 1
 440.686523438 742.749023438 l 1
231 238 m 1
 457 602 l 1
 416.283203125 615.329101562 l 1
 308.676757812 540.290039062 l 1
 240.864257812 360.413085938 l 1
 232.30859375 297.935546875 l 1
 231 238 l 1
501.908203125 480.518554688 m 1
 277.512695312 117.436523438 l 1
 317.306640625 105.0625 l 1
 424.75390625 180.134765625 l 1
 491.704101562 359.987304688 l 1
 501.3984375 423.068359375 l 1
 501.908203125 480.518554688 l 1
EndSplineSet
Validated: 1
Layer: 2
EndChar
StartChar: one
Encoding: 17 49 117
Width: 596
Flags: HMW
HStem: 0 21G<261 416 261 261> 700 20G<451 555 555 555>
LayerCount: 3
Back
SplineSet
555 720 m 1
 416 0 l 1
 261 0 l 1
 351 465 l 1
 327 428 280 400 202 400 c 1
 230 545 l 1
 335 555 421 638 451 720 c 1
 555 720 l 1
EndSplineSet
Fore
SplineSet
413 -15 m 1
 263.5 13.25 l 5
 350.977539062 465 l 1
 296.760742188 418.623046875 l 1
 202.091796875 400.0625 l 1
 178 522 l 1
 368.650390625 605.34765625 l 1
 451.012695312 720.004882812 l 1
 554.966796875 720.004882812 l 1
 413 -15 l 1
EndSplineSet
Validated: 1
Layer: 2
EndChar
StartChar: two
Encoding: 18 50 118
Width: 596
Flags: HMW
HStem: 0 145<274 529> 595 140<393.5 439>
LayerCount: 3
Back
SplineSet
274 145 m 1
 557 145 l 1
 529 0 l 1
 64 0 l 1
 100 201 193 269 330 362 c 0
 429 429 472 459 484 522 c 0
 494 573 461 595 417 595 c 0
 370 595 320 570 303 492 c 1
 167 512 l 1
 201 648 301 735 446 735 c 0
 578 735 662 667 634 520 c 0
 612 411 512 330 413 268 c 0
 326 214 283 184 274 145 c 1
EndSplineSet
Fore
SplineSet
557.11328125 145.03515625 m 1
 528.5 0 l 1
 54.3720703125 0 l 1
 151.359375 222.8984375 l 1
 325.447265625 366.205078125 l 1
 437.284179688 449.247070312 l 1
 482.668945312 529.294921875 l 1
 469.106445312 585.98046875 l 1
 414.220703125 603.696289062 l 1
 344.717773438 581.046875 l 1
 297.984375 498.762695312 l 1
 159.298828125 519.174804688 l 1
 259.059570312 684.866210938 l 1
 443.895507812 746.543945312 l 1
 600.95703125 693.193359375 l 1
 635.638671875 527.338867188 l 1
 552.404296875 380.944335938 l 1
 410.30859375 270.458007812 l 1
 309.547851562 201.9765625 l 1
 268.477539062 145.03515625 l 1
 557.11328125 145.03515625 l 1
EndSplineSet
Validated: 1
Layer: 2
EndChar
StartChar: three
Encoding: 19 51 119
Width: 596
Flags: HMW
HStem: -22.5003 142.8<290.832 341.322 290.832 359.172> 325.32 137.7<318.372 344.892 291.852 371.412> 612.96 129.54<384.672 427.512>
LayerCount: 3
Back
SplineSet
319 461 m 1
 371 461 l 2
 423 461 449 493 458 538 c 0
 467 583 446 608 406 608 c 0
 362 608 323 576 312 518 c 1
 172 540 l 1
 205 658 313 735 432 735 c 0
 551 735 639 671 615 550 c 0
 600 472 551 419 478 399 c 1
 562 378 595 305 576 210 c 0
 549 70 429 -15 289 -15 c 0
 153 -15 67 65 86 189 c 1
 243 202 l 1
 237 155 268 125 316 125 c 0
 367 125 414 159 426 220 c 0
 438 281 416 326 345 326 c 2
 293 326 l 1
 319 461 l 1
EndSplineSet
Fore
SplineSet
372.5 460.856445312 m 1
 433.33984375 485.122070312 l 1
 461.229492188 541.509765625 l 1
 453.354492188 594.46875 l 1
 408.171875 612.93359375 l 1
 347.662109375 589.264648438 l 1
 312.342773438 521.276367188 l 1
 196 582 l 1
 269.146484375 688.2109375 l 1
 434.530273438 742.522460938 l 1
 582.567382812 694.453125 l 1
 621.170898438 553.841796875 l 1
 573.48046875 454.68359375 l 1
 481.466796875 399.852539062 l 1
 570.73828125 331.770507812 l 1
 581.376953125 207.00390625 l 1
 478.278320312 38.68359375 l 1
 288.704101562 -22.4912109375 l 1
 125.934570312 34.099609375 l 1
 90 155 l 1
 241.8515625 198.83984375 l 1
 258.389648438 141.567382812 l 1
 316.25390625 120.270507812 l 1
 387.25390625 145.38671875 l 1
 428.408203125 217.125 l 1
 418.799804688 294.502929688 l 1
 345.673828125 325.946289062 l 1
 292.700195312 325.946289062 l 1
 319.229492188 460.856445312 l 1
 372.5 460.856445312 l 1
EndSplineSet
Validated: 1
Layer: 2
EndChar
StartChar: four
Encoding: 20 52 120
Width: 596
Flags: HMW
HStem: 0 21G<319 474 319 319> 141 140<94 94 244 346 67 94 528 588> 700 20G<474 613 613 613>
LayerCount: 3
Back
SplineSet
474 0 m 1
 319 0 l 1
 346 141 l 1
 67 141 l 1
 94 281 l 1
 474 720 l 1
 613 720 l 1
 528 281 l 1
 615 281 l 1
 588 141 l 1
 501 141 l 1
 474 0 l 1
244 281 m 1
 373 281 l 1
 412 480 l 1
 244 281 l 1
EndSplineSet
Fore
SplineSet
471 -15 m 1
 321.75 13.25 l 1
 346 141 l 1
 94 141 l 1
 94 281 l 1
 488 736 l 1
 611.75 712 l 1
 528 281 l 1
 615 281 l 1
 615 141 l 1
 501 141 l 1
 471 -15 l 1
244 281 m 1
 373 281 l 1
 412 480 l 1
 244 281 l 1
EndSplineSet
Validated: 1
Layer: 2
EndChar
StartChar: five
Encoding: 21 53 121
Width: 596
Flags: HMW
HStem: -15 140<286 348.5 286 368> 365 140<391.5 394> 575 145<343 616 343 343>
LayerCount: 3
Back
SplineSet
76 187 m 1
 228 215 l 1
 225 159 259 125 313 125 c 0
 384 125 428 178 442 250 c 0
 455 315 429 365 359 365 c 0
 312 365 281 344 254 308 c 1
 115 328 l 1
 260 720 l 1
 644 720 l 1
 616 575 l 1
 343 575 l 1
 303 471 l 1
 323 488 368 505 415 505 c 0
 568 505 627 392 599 250 c 0
 570 101 453 -15 283 -15 c 0
 150 -15 63 61 76 187 c 1
EndSplineSet
Fore
SplineSet
228 215 m 1
 249.163085938 149.120117188 l 1
 313.029296875 125.131835938 l 1
 398.966796875 160.59375 l 1
 442.075195312 250.01171875 l 1
 431.67578125 331.983398438 l 1
 359.129882812 365.135742188 l 1
 299.118164062 350.110351562 l 1
 254.17578125 307.9453125 l 1
 115.04296875 327.956054688 l 1
 260.010742188 719.83984375 l 1
 643.897460938 719.83984375 l 1
 643.75 574.95703125 l 1
 342.95703125 574.95703125 l 1
 303.026367188 470.921875 l 1
 348.845703125 494.268554688 l 1
 414.982421875 504.932617188 l 1
 574.872070312 430.69921875 l 1
 598.96484375 249.928710938 l 1
 493.865234375 61.603515625 l 1
 283.102539062 -14.9990234375 l 1
 124.848632812 38.6904296875 l 1
 82.75 168 l 1
 228 215 l 1
EndSplineSet
Validated: 1
Layer: 2
EndChar
StartChar: six
Encoding: 22 54 122
Width: 596
Flags: HMW
HStem: -15 140<296.5 355 296.5 380.5> 327 135<381.5 394> 600 135<392.5 448>
LayerCount: 3
Back
SplineSet
628 567 m 1
 492 527 l 1
 485 575 471 600 425 600 c 0
 360 600 305 521 281 409 c 1
 314 442 356 462 407 462 c 0
 551 462 606 357 582 232 c 0
 556 101 453 -15 308 -15 c 0
 116 -15 84 138 123 335 c 0
 174 601 295 735 456 735 c 0
 579 735 629 657 628 567 c 1
249 226 m 0
 238 167 266 125 327 125 c 0
 383 125 432 167 443 226 c 0
 455 285 422 327 366 327 c 0
 310 327 261 285 249 226 c 0
EndSplineSet
Fore
SplineSet
494.287109375 530.323242188 m 1
 475.016601562 585.979492188 l 1
 425.8359375 604.90234375 l 1
 336.810546875 550.352539062 l 1
 278.904296875 410.098632812 l 1
 336.268554688 449.807617188 l 1
 407.469726562 464.256835938 l 1
 561.002929688 394.678710938 l 1
 586.034179688 229.573242188 l 1
 491.798828125 53.5478515625 l 1
 306.625 -22.3662109375 l 1
 123.8515625 80.7890625 l 1
 117.85546875 334.498046875 l 1
 245.5390625 640.283203125 l 1
 457.465820312 742.5625 l 1
 592.580078125 691.287109375 l 1
 630 578 l 1
 494.287109375 530.323242188 l 1
326.096679688 120.396484375 m 1
 402.431640625 149.337890625 l 1
 444.458984375 223.365234375 l 1
 431.21484375 297.400390625 l 1
 365.805664062 326.341796875 l 1
 289.342773438 297.400390625 l 1
 246.677734375 223.365234375 l 1
 258.708984375 149.337890625 l 1
 326.096679688 120.396484375 l 1
EndSplineSet
Validated: 1
Layer: 2
EndChar
StartChar: seven
Encoding: 23 55 123
Width: 596
Flags: HMW
HStem: 0 21G<160 316 160 160> 575 145<199 482 171 670 642 642>
LayerCount: 3
Back
SplineSet
482 575 m 1
 171 575 l 1
 199 720 l 1
 670 720 l 1
 642 575 l 1
 478 429 372 224 316 0 c 1
 160 0 l 1
 204 208 331 446 482 575 c 1
EndSplineSet
Fore
SplineSet
171.072265625 574.950195312 m 1
 199.08203125 720 l 1
 670 720 l 1
 641.907226562 574.950195312 l 1
 438.491210938 316.818359375 l 1
 310 -15 l 1
 174 37 l 5
 280.850585938 317.16015625 l 1
 481.849609375 574.950195312 l 1
 171.072265625 574.950195312 l 1
EndSplineSet
Validated: 1
Layer: 2
EndChar
StartChar: eight
Encoding: 24 56 124
Width: 596
Flags: HMW
HStem: -15 140<295.5 346.5 295.5 364> 326 125<363 385.5> 605 130<393 435>
LayerCount: 3
Back
SplineSet
94 203 m 0
 112 298 166 362 256 399 c 1
 198 424 174 472 189 550 c 0
 212 664 320 735 439 735 c 0
 558 735 641 664 618 550 c 0
 603 472 561 424 493 399 c 1
 569 362 598 298 580 203 c 0
 555 73 434 -15 294 -15 c 0
 154 -15 69 73 94 203 c 0
250 225 m 0
 237 159 270 125 321 125 c 0
 372 125 419 159 432 225 c 0
 445 293 411 326 360 326 c 0
 309 326 263 293 250 225 c 0
333 528 m 0
 324 483 342 451 384 451 c 0
 426 451 457 483 466 528 c 0
 475 573 456 605 414 605 c 0
 372 605 342 573 333 528 c 0
EndSplineSet
Fore
SplineSet
254.119140625 399.725585938 m 5
 192.111328125 456.545898438 l 5
 185.842773438 553.799804688 l 5
 276.474609375 691.731445312 l 5
 440.763671875 742.48046875 l 5
 586.368164062 691.731445312 l 5
 623.23828125 553.799804688 l 5
 579.756835938 456.478515625 l 5
 495.778320312 399.725585938 l 5
 576.068359375 321.981445312 l 5
 584.546875 199.733398438 l 5
 482.6171875 38.9306640625 l 5
 292.809570312 -22.4482421875 l 5
 127.754882812 39.0244140625 l 5
 88.90625 199.733398438 l 5
 143.995117188 321.948242188 l 5
 254.119140625 399.725585938 l 5
320.443359375 120.314453125 m 5
 391.505859375 146.067382812 l 5
 433.6171875 222.262695312 l 5
 421.352539062 299.708007812 l 5
 360.237304688 325.240234375 l 5
 289.620117188 299.7421875 l 5
 248.08203125 222.262695312 l 5
 259.7421875 146.1015625 l 5
 320.443359375 120.314453125 l 5
384.640625 452.86328125 m 5
 439.091796875 474.900390625 l 5
 468.225585938 531.432617188 l 5
 461.208984375 587.819335938 l 5
 415.166015625 609.830078125 l 5
 361.245117188 587.819335938 l 5
 332.515625 531.432617188 l 5
 339.124023438 474.866210938 l 5
 384.640625 452.86328125 l 5
EndSplineSet
Validated: 1
Layer: 2
EndChar
StartChar: nine
Encoding: 25 57 125
Width: 596
Flags: HMW
HStem: -15 135<296 351.5 296 368.5> 258 135<340 352.5> 595 140<379 437.5>
LayerCount: 3
Back
SplineSet
106 153 m 1
 242 193 l 1
 249 145 273 120 319 120 c 0
 384 120 439 199 453 311 c 1
 420 278 378 258 327 258 c 0
 183 258 128 363 152 488 c 0
 178 619 281 735 426 735 c 0
 618 735 657 612 613 385 c 0
 560 109 449 -15 288 -15 c 0
 165 -15 105 63 106 153 c 1
485 494 m 0
 496 553 468 595 407 595 c 0
 351 595 302 553 291 494 c 0
 279 435 312 393 368 393 c 0
 424 393 473 435 485 494 c 0
EndSplineSet
Fore
SplineSet
242 193 m 1
 265.884765625 138.5859375 l 1
 319.02734375 120.05859375 l 1
 405.037109375 173.5390625 l 1
 452.907226562 311.04296875 l 1
 396.669921875 272.196289062 l 1
 326.86328125 258.112304688 l 1
 176.381835938 326.176757812 l 1
 151.883789062 488.01953125 l 1
 244.240234375 660.602539062 l 1
 425.814453125 735.028320312 l 1
 607.786132812 645.118164062 l 1
 612.629882812 385.15234375 l 1
 490.69140625 81.6201171875 l 1
 287.848632812 -14.90234375 l 1
 150.331054688 35.4267578125 l 1
 112 136 l 5
 242 193 l 1
406.974609375 594.981445312 m 1
 332.115234375 566.606445312 l 1
 291.017578125 494.0234375 l 1
 303.958984375 421.381835938 l 1
 368.044921875 393.073242188 l 1
 442.98828125 421.381835938 l 1
 484.918945312 494.0234375 l 1
 472.987304688 566.606445312 l 1
 406.974609375 594.981445312 l 1
EndSplineSet
Validated: 1
Layer: 2
EndChar
StartChar: colon
Encoding: 26 58 141
Width: 250
Flags: HMW
HStem: 52 150<88 210 59 239> 322 150<140 262 111 291>
LayerCount: 3
Back
SplineSet
262 322 m 1
 111 322 l 1
 140 472 l 1
 291 472 l 1
 262 322 l 1
210 52 m 1
 59 52 l 1
 88 202 l 1
 239 202 l 1
 210 52 l 1
EndSplineSet
Fore
SplineSet
176.189453125 476.959960938 m 5
 254.931640625 461.2578125 l 5
 287.219726562 417.764648438 l 5
 272.491210938 343.641601562 l 5
 226.036132812 315.779296875 l 5
 147.29296875 331.482421875 l 5
 115.004882812 374.974609375 l 5
 129.733398438 449.09765625 l 5
 176.189453125 476.959960938 l 5
124.047851562 207.680664062 m 1
 202.790039062 191.979492188 l 1
 235.078125 148.485351562 l 1
 220.349609375 74.3623046875 l 1
 173.89453125 46.5 l 1
 95.1513671875 62.203125 l 1
 62.86328125 105.6953125 l 1
 77.591796875 179.818359375 l 1
 124.047851562 207.680664062 l 1
EndSplineSet
Validated: 1
Layer: 2
EndChar
StartChar: semicolon
Encoding: 27 59 153
Width: 251
Flags: HMW
HStem: -157 21G<73 73> 0 150<79 127 50 230 201 201> 322 150<141 263 112 292>
LayerCount: 3
Back
SplineSet
263 322 m 1
 112 322 l 1
 141 472 l 1
 292 472 l 1
 263 322 l 1
127 0 m 1
 50 0 l 1
 79 150 l 1
 230 150 l 1
 201 0 l 2
 184 -85 133 -133 73 -157 c 1
 48 -94 l 1
 86 -79 116 -54 127 0 c 1
EndSplineSet
Fore
SplineSet
176.189453125 476.959960938 m 1
 254.931640625 461.2578125 l 1
 287.219726562 417.764648438 l 1
 272.491210938 343.641601562 l 1
 226.036132812 315.779296875 l 1
 147.29296875 331.482421875 l 1
 115.004882812 374.974609375 l 1
 129.733398438 449.09765625 l 1
 176.189453125 476.959960938 l 1
69.2060546875 108.122070312 m 1
 122.6640625 152.908203125 l 1
 187.120117188 152.908203125 l 1
 223.235351562 108.11328125 l 1
 202.251953125 -0.060546875 l 1
 153.518554688 -103.419921875 l 1
 82.73046875 -152.241210938 l 1
 46.2216796875 -95.884765625 l 1
 96.7822265625 -62.89453125 l 1
 126.745117188 -0.060546875 l 1
 93.0576171875 -0.060546875 l 1
 56.9306640625 44.7607421875 l 1
 69.2060546875 108.122070312 l 1
EndSplineSet
Validated: 1
Layer: 2
EndChar
StartChar: less
Encoding: 28 60 165
Width: 596
Flags: HMW
HStem: 52 21G<503 503> 627 20G<618 618>
LayerCount: 3
Back
SplineSet
167 281 m 1
 194 418 l 1
 618 647 l 1
 587 487 l 1
 310 350 l 1
 534 211 l 1
 503 52 l 1
 167 281 l 1
EndSplineSet
Fore
SplineSet
167 281 m 5
 194 418 l 5
 618 647 l 5
 679.75 533 l 5
 310 350 l 5
 534 211 l 5
 456.25 83.75 l 5
 167 281 l 5
EndSplineSet
Validated: 1
Layer: 2
EndChar
StartChar: equal
Encoding: 29 61 144
Width: 596
Flags: HMW
HStem: 185 135<132 561 105 588> 405 135<174 604 148 630>
LayerCount: 3
Back
SplineSet
561 185 m 1
 105 185 l 1
 132 320 l 1
 588 320 l 1
 561 185 l 1
604 405 m 1
 148 405 l 1
 174 540 l 1
 630 540 l 1
 604 405 l 1
EndSplineSet
Fore
SplineSet
588 185 m 1
 105 185 l 1
 104.75 320 l 1
 587.75 320 l 1
 588 185 l 1
631 405 m 1
 148 405 l 1
 146.75 540 l 1
 629.75 540 l 1
 631 405 l 1
EndSplineSet
Validated: 1
Layer: 2
EndChar
StartChar: greater
Encoding: 30 62 166
Width: 596
Flags: HMW
HStem: 52 21G<123 123> 627 20G<238 238>
LayerCount: 3
Back
SplineSet
574 418 m 1
 547 281 l 1
 123 52 l 1
 154 211 l 1
 432 350 l 1
 207 487 l 1
 238 647 l 1
 574 418 l 1
EndSplineSet
Fore
SplineSet
574 417 m 1
 547 280 l 1
 123 51 l 1
 61.25 165 l 1
 431 348 l 1
 207 487 l 1
 284.75 614.25 l 1
 574 417 l 1
EndSplineSet
Validated: 1
Layer: 2
EndChar
StartChar: question
Encoding: 31 63 132
Width: 596
Flags: HMW
HStem: 0 150<245 367 216 396> 595 140<384 430>
LayerCount: 3
Back
SplineSet
402 208 m 1
 257 208 l 1
 266 253 l 2
 281 334 322 384 391 428 c 0
 444 462 467 486 475 527 c 0
 483 571 456 595 404 595 c 0
 364 595 314 561 301 494 c 1
 160 524 l 1
 198 656 310 735 430 735 c 0
 568 735 655 656 631 533 c 0
 612 435 547 396 483 345 c 0
 441 312 422 300 409 243 c 2
 402 208 l 1
367 0 m 1
 216 0 l 1
 245 150 l 1
 396 150 l 1
 367 0 l 1
EndSplineSet
Fore
SplineSet
281.469726562 155.619140625 m 5
 360.211914062 139.916992188 l 5
 392.5 96.4228515625 l 5
 377.772460938 22.30078125 l 5
 331.317382812 -5.5625 l 5
 252.57421875 10.140625 l 5
 220.286132812 53.6337890625 l 5
 235.013671875 127.755859375 l 5
 281.469726562 155.619140625 l 5
259.587890625 230.016601562 m 1
 263.283203125 248.760742188 l 1
 306.352539062 352.078125 l 1
 390.744140625 427.150390625 l 1
 450.818359375 475.015625 l 1
 476.455078125 528.163085938 l 1
 463.1484375 579.728515625 l 1
 403.923828125 597.5546875 l 1
 341.086914062 571.673828125 l 1
 298.911132812 494.577148438 l 1
 155.209960938 525.109375 l 1
 261.529296875 683.130859375 l 1
 430.537109375 740.147460938 l 1
 594.96484375 684.270507812 l 1
 635.545898438 534.202148438 l 1
 577.236328125 420.278320312 l 1
 435.798828125 299.59375 l 1
 409.110351562 238.384765625 l 1
 401.965820312 202.672851562 l 1
 259.588867188 229.76171875 l 1
 259.587890625 230.016601562 l 1
EndSplineSet
Validated: 1
Layer: 2
EndChar
StartChar: at
Encoding: 32 64 188
Width: 775
Flags: HMW
HStem: -110 110<320 410.5> 85 100<589.5 623.5 589.5 637> 335 100<429.5 465.5> 511 119<418 559.5>
LayerCount: 3
Back
SplineSet
622 426 m 1
 586 238 l 2
 585 232 573 185 606 185 c 0
 641 185 671 227 680 277 c 0
 710 429 632 511 487 511 c 0
 349 511 236 402 208 260 c 0
 180 118 243 0 397 0 c 0
 451 0 507 17 546 48 c 1
 606 -36 l 1
 544 -88 445 -110 376 -110 c 0
 156 -110 45 53 85 260 c 0
 125 467 300 630 510 630 c 0
 719 630 834 487 794 280 c 0
 772 169 686 85 588 85 c 0
 532 85 508 110 498 138 c 1
 486 125 l 2
 458 98 430 85 380 85 c 0
 299 85 252 156 272 260 c 0
 292 363 367 435 448 435 c 0
 483 435 511 422 526 401 c 1
 531 426 l 1
 622 426 l 1
492 260 m 0
 500 303 483 335 448 335 c 0
 411 335 384 303 376 260 c 0
 368 217 381 184 418 184 c 0
 456 184 484 217 492 260 c 0
EndSplineSet
Fore
SplineSet
585.9765625 208.276367188 m 5
 609.158203125 183.493164062 l 5
 656.828125 211.3125 l 5
 684.665039062 277.455078125 l 5
 653.182617188 454.893554688 l 5
 487.905273438 516.135742188 l 5
 303.624023438 442.381835938 l 5
 203.393554688 260.020507812 l 5
 230.168945312 73.2021484375 l 5
 396.15625 -5.017578125 l 5
 477.838867188 7.5615234375 l 5
 548.10546875 43.7919921875 l 5
 596.068359375 -49.060546875 l 5
 494.676757812 -99.498046875 l 5
 374.729492188 -117.341796875 l 5
 126.94140625 -7.83203125 l 5
 78.0595703125 260.020507812 l 5
 229.721679688 527.84765625 l 5
 511.543945312 637.390625 l 5
 751.583984375 538.095703125 l 5
 801.0703125 280.516601562 l 5
 725.033203125 138.706054688 l 5
 590.961914062 81.7158203125 l 5
 527.455078125 98.01953125 l 5
 499.21484375 135.8828125 l 5
 486.881835938 122.615234375 l 5
 441.23046875 91.87890625 l 5
 378.80859375 81.80078125 l 5
 285.137695312 131.349609375 l 5
 268.694335938 260.360351562 l 5
 335.103515625 388.997070312 l 5
 448.193359375 438.928710938 l 5
 495.608398438 429.616210938 l 5
 527.782226562 404.23828125 l 5
 532.969726562 429.828125 l 5
 622.588867188 412.744140625 l 5
 588.75 237.661132812 l 4
 585.9765625 208.276367188 l 5
448.109375 336.462890625 m 5
 400.248046875 314.70703125 l 5
 374.642578125 260.10546875 l 5
 378.887695312 204.993164062 l 5
 417.501953125 182.727539062 l 5
 466.735351562 204.993164062 l 5
 493.008789062 260.10546875 l 5
 487.013671875 314.70703125 l 5
 448.109375 336.462890625 l 5
EndSplineSet
Validated: 1
Layer: 2
EndChar
StartChar: A
Encoding: 33 65 89
Width: 730
Flags: HMW
HStem: 0 21G<10 173 10 10 555 720 555 555> 130 132<319 509 319 531 244 509> 700 20G<434 578 578 578>
LayerCount: 3
Back
SplineSet
434 720 m 1
 578 720 l 1
 720 0 l 1
 555 0 l 1
 531 130 l 1
 244 130 l 1
 173 0 l 1
 10 0 l 1
 434 720 l 1
463 521 m 1
 319 262 l 1
 509 262 l 1
 463 521 l 1
EndSplineSet
Fore
SplineSet
443 735 m 1
 593.25 646 l 1
 717 14 l 1
 558 -15 l 1
 531 130 l 1
 244 130 l 1
 166 -14 l 1
 42 54 l 1
 443 735 l 1
463 521 m 1
 319 262 l 1
 509 262 l 1
 463 521 l 1
EndSplineSet
Validated: 1
Layer: 2
EndChar
StartChar: B
Encoding: 34 66 90
Width: 694
Flags: HMW
HStem: 0 125<248 383> 305 125<283 436 307 418> 595 125<339 339 339 456>
LayerCount: 3
Back
SplineSet
383 0 m 2
 70 0 l 1
 208 720 l 1
 511 720 l 2
 657 720 752 661 727 533 c 0
 714 465 667 402 583 376 c 1
 664 355 709 293 693 208 c 0
 663 56 546 0 383 0 c 2
339 595 m 1
 307 430 l 1
 436 430 l 2
 509 430 555 463 566 521 c 0
 578 579 530 595 456 595 c 2
 339 595 l 1
283 305 m 1
 248 125 l 1
 396 125 l 2
 474 125 521 150 532 208 c 0
 545 275 501 305 418 305 c 2
 283 305 l 1
EndSplineSet
Fore
SplineSet
69.9306640625 0.0498046875 m 1
 207.90625 719.955078125 l 1
 515.155273438 719.955078125 l 1
 690.775390625 680.500976562 l 1
 735.469726562 536.1484375 l 1
 689.233398438 440.119140625 l 1
 588.536132812 376.03515625 l 1
 681.771484375 314.841796875 l 1
 700.77734375 204.7890625 l 1
 593.479492188 40.5087890625 l 1
 384.46484375 0.0498046875 l 1
 69.9306640625 0.0498046875 l 1
247.719726562 125.09765625 m 1
 398.564453125 125.09765625 l 1
 493.575195312 145.219726562 l 1
 536.499023438 204.7890625 l 1
 515.11328125 279.793945312 l 1
 420.262695312 305.08984375 l 1
 282.682617188 305.08984375 l 1
 247.719726562 125.09765625 l 1
307.171875 429.97265625 m 1
 438.713867188 429.97265625 l 1
 528.729492188 455.427734375 l 1
 571.361328125 524.079101562 l 1
 548.190429688 579.385742188 l 1
 459.20703125 595.000976562 l 1
 338.993164062 595.000976562 l 1
 307.171875 429.97265625 l 1
EndSplineSet
Validated: 1
Layer: 2
EndChar
StartChar: C
Encoding: 35 67 91
Width: 741
Flags: HMW
HStem: -22.5028 142.8<354.211 450.091 354.211 471.001> 599.697 142.8<452.131 548.011>
LayerCount: 3
Back
SplineSet
274 360 m 0
 245 213 301 125 411 125 c 0
 489 125 550 165 591 250 c 1
 740 206 l 1
 669 68 557 -15 384 -15 c 0
 164 -15 66 143 109 360 c 0
 150 577 314 735 534 735 c 0
 697 735 827 643 799 479 c 1
 634 479 l 1
 640 559 585 595 507 595 c 0
 397 595 302 507 274 360 c 0
EndSplineSet
Fore
SplineSet
410.446289062 120.3515625 m 1
 516.383789062 151.547851562 l 1
 593.94140625 247.729492188 l 1
 706.110351562 157.017578125 l 1
 603.34765625 37.599609375 l 1
 382.810546875 -22.2412109375 l 1
 141.942382812 85.974609375 l 1
 102.211914062 360.052734375 l 1
 250.50390625 634.319335938 l 1
 535.780273438 742.518554688 l 1
 743.9453125 674.68359375 l 1
 788.73046875 535.4375 l 1
 637.731445312 481.477539062 l 1
 605.102539062 571.196289062 l 1
 508.31640625 599.754882812 l 1
 358.216796875 536.1640625 l 1
 270.741210938 360.138671875 l 1
 287.407226562 183.96875 l 1
 410.446289062 120.3515625 l 1
EndSplineSet
Validated: 1
Layer: 2
EndChar
StartChar: D
Encoding: 36 68 92
Width: 714
Flags: HMW
HStem: -7.20005 146.88<254.013 318.273> 579.3 147.9<338.673 338.673 338.673 401.913>
LayerCount: 3
Back
SplineSet
320 0 m 2
 70 0 l 1
 208 720 l 1
 447 720 l 2
 689 720 787 594 743 362 c 0
 699 137 562 0 320 0 c 2
340 575 m 1
 257 144 l 1
 322 144 l 2
 458 144 548 196 580 363 c 0
 616 547 520 575 402 575 c 2
 340 575 l 1
EndSplineSet
Fore
SplineSet
70.0224609375 0.0498046875 m 1
 207.913085938 719.955078125 l 1
 450.109375 719.955078125 l 1
 710.440429688 633.344726562 l 1
 751.966796875 362.004882812 l 1
 612.102539062 91.4052734375 l 1
 320.778320312 0.0498046875 l 1
 70.0224609375 0.0498046875 l 1
256.99609375 144.065429688 m 1
 322.734375 144.065429688 l 1
 494.0703125 187.578125 l 1
 585.817382812 363.026367188 l 1
 554.037109375 541.508789062 l 1
 404.278320312 575.00390625 l 1
 340.099609375 575.00390625 l 1
 256.99609375 144.065429688 l 1
EndSplineSet
Validated: 1
Layer: 2
EndChar
StartChar: F
Encoding: 38 70 94
Width: 637
Flags: HMW
HStem: 0 21G<70 230 70 70> 295 145<314 563 286 591> 575 145<340 697 340 340>
LayerCount: 3
Back
SplineSet
230 0 m 1
 70 0 l 1
 208 720 l 1
 725 720 l 1
 697 575 l 1
 340 575 l 1
 314 440 l 1
 591 440 l 1
 563 295 l 1
 286 295 l 1
 230 0 l 1
EndSplineSet
Fore
SplineSet
227 -15 m 1
 72.75 14.5 l 1
 208 720 l 1
 697 720 l 1
 697 575 l 1
 340 575 l 1
 314 440 l 1
 591 440 l 1
 591 295 l 1
 286 295 l 1
 227 -15 l 1
EndSplineSet
Validated: 1
Layer: 2
EndChar
StartChar: G
Encoding: 39 71 95
Width: 761
Flags: HMW
HStem: -15 140<361 458.5> 261 124<468 593 445 773> 499 236<429 801 429 635> 595 140<457 556>
LayerCount: 3
Back
SplineSet
274 360 m 0xd0
 245 213 301 125 421 125 c 0
 498 125 540 143 574 167 c 1
 593 261 l 1
 445 261 l 1
 468 385 l 1
 773 385 l 1
 720 112 l 1
 651 32 523 -15 394 -15 c 0
 164 -15 66 143 109 360 c 0
 150 577 314 735 544 735 c 0
 707 735 835 653 801 499 c 1
 635 499 l 1xe0
 649 559 595 595 517 595 c 0
 397 595 302 507 274 360 c 0xd0
EndSplineSet
Fore
SplineSet
417.271484375 120.45703125 m 1
 511.834960938 132.670898438 l 1
 573.30078125 163.313476562 l 1
 592.772460938 261.137695312 l 1
 444.844726562 261.137695312 l 1
 444.708007812 385.495117188 l 1
 773.268554688 385.495117188 l 1
 719.103515625 107.189453125 l 1
 578.9453125 11.9521484375 l 1
 389.805664062 -22.1357421875 l 1
 139.997070312 86.080078125 l 1
 99.1728515625 360.158203125 l 1
 248.623046875 634.424804688 l 1
 542.774414062 742.624023438 l 1
 749.154296875 681.235351562 l 1
 788.5078125 554.815429688 l 1
 635.627929688 501.986328125 l 1
 610.662109375 573.810546875 l 1
 515.224609375 599.775390625 l 1
 356.197265625 536.184570312 l 1
 267.447265625 360.158203125 l 1
 285.41015625 184.065429688 l 1
 417.271484375 120.45703125 l 1
EndSplineSet
Validated: 1
Layer: 2
EndChar
StartChar: H
Encoding: 40 72 96
Width: 757
Flags: HMW
HStem: 0 21G<70 230 70 70 527 527 527 687> 295 145<314 583 286 611> 700 20G<208 368 368 368 665 825 825 825>
LayerCount: 3
Back
SplineSet
230 0 m 1
 70 0 l 1
 208 720 l 1
 368 720 l 1
 314 440 l 1
 611 440 l 1
 665 720 l 1
 825 720 l 1
 687 0 l 1
 527 0 l 1
 583 295 l 1
 286 295 l 1
 230 0 l 1
EndSplineSet
Fore
SplineSet
227 -15 m 1
 72.75 14.5 l 1
 210.75 735 l 1
 365.25 705.5 l 1
 314 440 l 1
 611 440 l 1
 668 735 l 1
 822.25 705.5 l 1
 684.25 -14.75 l 1
 529.75 14.75 l 1
 583 295 l 1
 286 295 l 1
 227 -15 l 1
EndSplineSet
Validated: 1
Layer: 2
EndChar
StartChar: I
Encoding: 41 73 97
Width: 300
Flags: HMW
HStem: 0 21G<70 230 70 70> 700 20G<208 368 368 368>
LayerCount: 3
Back
SplineSet
230 0 m 1
 70 0 l 1
 208 720 l 1
 368 720 l 1
 230 0 l 1
EndSplineSet
Fore
SplineSet
227 -15 m 1
 72.75 14.5 l 1
 210.75 735 l 1
 365.25 705.5 l 1
 227 -15 l 1
EndSplineSet
Validated: 1
Layer: 2
EndChar
StartChar: J
Encoding: 42 74 98
Width: 572
Flags: HMW
HStem: -15 140<247.5 318 247.5 322> 700 20G<479 640 640 640>
LayerCount: 3
Back
SplineSet
63 223 m 1
 220 245 l 1
 208 172 215 125 280 125 c 0
 356 125 375 180 391 263 c 2
 479 720 l 1
 640 720 l 1
 547 238 l 2
 511 51 391 -15 253 -15 c 0
 122 -15 27 50 63 223 c 1
EndSplineSet
Fore
SplineSet
219.93359375 245.0859375 m 1
 221.028320312 157.685546875 l 1
 279.955078125 125.125 l 1
 357.94140625 163.013671875 l 1
 390.911132812 263.170898438 l 1
 482 735 l 1
 637.25 705.5 l 1
 547.049804688 238.08203125 l 1
 438.32421875 41.5771484375 l 1
 253.1953125 -14.7548828125 l 1
 95.62890625 39.275390625 l 1
 60 242 l 1
 219.93359375 245.0859375 l 1
EndSplineSet
Validated: 1
Layer: 2
EndChar
StartChar: K
Encoding: 43 75 99
Width: 730
Flags: HMW
HStem: 0 21G<70 230 70 70 513 513 513 700> 700 20G<208 368 368 368 636 828 828 828>
LayerCount: 3
Back
SplineSet
230 0 m 1
 70 0 l 1
 208 720 l 1
 368 720 l 1
 308 409 l 1
 636 720 l 1
 828 720 l 1
 490 415 l 1
 700 0 l 1
 513 0 l 1
 371 309 l 1
 271 218 l 1
 230 0 l 1
EndSplineSet
Fore
SplineSet
227.25 -14.75 m 1
 72.75 14.75 l 1
 211 735 l 1
 365.25 705.5 l 1
 308 409 l 1
 651.75 735 l 1
 740 641 l 1
 490 415 l 1
 672 55 l 1
 519.75 -14.75 l 1
 371 309 l 1
 271 218 l 1
 227.25 -14.75 l 1
EndSplineSet
Validated: 1
Layer: 2
EndChar
StartChar: L
Encoding: 44 76 100
Width: 638
Flags: HMW
HStem: 0 145<257 608> 700 20G<208 368 368 368>
LayerCount: 3
Back
SplineSet
608 0 m 1
 70 0 l 1
 208 720 l 1
 368 720 l 1
 257 145 l 1
 635 145 l 1
 608 0 l 1
EndSplineSet
Fore
SplineSet
608 0 m 1
 70 0 l 1
 210.75 735 l 1
 365.25 705.5 l 1
 257 145 l 1
 608 145 l 1
 608 0 l 1
EndSplineSet
Validated: 1
Layer: 2
EndChar
StartChar: M
Encoding: 45 77 101
Width: 923
Flags: HMW
HStem: 0 21G<70 230 70 70 394 394 394 529 693 693 693 853> 700 20G<208 408 408 408 791 991 991 991>
LayerCount: 3
Back
SplineSet
230 0 m 1
 70 0 l 1
 208 720 l 1
 408 720 l 1
 498 193 l 1
 791 720 l 1
 991 720 l 1
 853 0 l 1
 693 0 l 1
 777 443 l 1
 529 0 l 1
 394 0 l 1
 314 443 l 1
 230 0 l 1
EndSplineSet
Fore
SplineSet
227.25 -15 m 1
 72.75 14.5 l 1
 210.75 735 l 1
 412 696.75 l 1
 498 193 l 1
 799.25 735 l 1
 987 699 l 1
 850.25 -14.5 l 1
 695.75 15 l 1
 777 443 l 1
 521 -14.5 l 1
 383 63 l 1
 314 443 l 1
 227.25 -15 l 1
EndSplineSet
Validated: 1
Layer: 2
EndChar
StartChar: N
Encoding: 46 78 102
Width: 769
Flags: HMW
HStem: 0 21G<70 226 70 70 537 537 537 699> 700 20G<208 370 370 370 681 837 837 837>
LayerCount: 3
Back
SplineSet
226 0 m 1
 70 0 l 1
 208 720 l 1
 370 720 l 1
 592 259 l 1
 681 720 l 1
 837 720 l 1
 699 0 l 1
 537 0 l 1
 313 461 l 1
 226 0 l 1
EndSplineSet
Fore
SplineSet
223.25 -14.75 m 5
 72.75 14 l 5
 210.75 734.75 l 5
 378 703.25 l 5
 592 259 l 5
 683.75 734.75 l 5
 834.25 706 l 5
 696.25 -14.75 l 5
 528.75 17.25 l 5
 313 461 l 5
 223.25 -14.75 l 5
EndSplineSet
Validated: 1
Layer: 2
EndChar
StartChar: O
Encoding: 47 79 103
Width: 765
Flags: HMW
HStem: -15 140<351 460.5 351 488.5> 595 140<442 551.5>
LayerCount: 3
Back
SplineSet
109 360 m 0
 150 577 304 735 524 735 c 0
 743 735 835 577 794 360 c 0
 751 143 598 -15 379 -15 c 0
 159 -15 66 143 109 360 c 0
274 360 m 0
 245 213 296 125 406 125 c 0
 515 125 600 213 629 360 c 0
 657 507 606 595 497 595 c 0
 387 595 302 507 274 360 c 0
EndSplineSet
Fore
SplineSet
525.01953125 742.21484375 m 5
 762.13671875 633.947265625 l 5
 800.348632812 359.75 l 5
 656.030273438 85.484375 l 5
 377.153320312 -22.7138671875 l 5
 138.85546875 85.5537109375 l 5
 101.82421875 359.75 l 5
 245.026367188 633.922851562 l 5
 525.01953125 742.21484375 l 5
404.702148438 120.048828125 m 5
 549.083984375 183.623046875 l 5
 632.243164062 359.495117188 l 5
 617.331054688 535.614257812 l 5
 497.640625 599.112304688 l 5
 352.557617188 535.520507812 l 5
 270.099609375 359.495117188 l 5
 284.309570312 183.623046875 l 5
 404.702148438 120.048828125 l 5
EndSplineSet
Validated: 1
Layer: 2
EndChar
StartChar: P
Encoding: 48 80 104
Width: 672
Flags: HMW
HStem: -7.05005 21.42G<64.4438 227.644 64.4438 64.4438> 227.55 142.8<299.044 397.984 272.524 411.244> 584.55 142.8<340.864 340.864 340.864 451.024>
LayerCount: 3
Back
SplineSet
230 0 m 1
 70 0 l 1
 208 720 l 1
 483 720 l 2
 628 720 757 654 723 479 c 0
 696 334 576 230 397 230 c 2
 274 230 l 1
 230 0 l 1
341 580 m 1
 300 370 l 1
 410 370 l 2
 513 370 550 429 560 476 c 0
 571 534 544 580 449 580 c 2
 341 580 l 1
EndSplineSet
Fore
SplineSet
72.5 13.25 m 1
 207.946289062 720 l 1
 487.875 720 l 1
 678.693359375 671.341796875 l 1
 732.592773438 481.538085938 l 1
 624.529296875 299.108398438 l 1
 400.208984375 229.883789062 l 1
 274.205078125 229.883789062 l 1
 226.5 -16 l 1
 72.5 13.25 l 1
300.234375 370.3203125 m 1
 413.389648438 370.3203125 l 1
 525.458984375 406.431640625 l 1
 566.358398438 478.391601562 l 1
 550.362304688 549.108398438 l 1
 453.18359375 580.006835938 l 1
 340.819335938 580.006835938 l 1
 300.234375 370.3203125 l 1
EndSplineSet
Validated: 1
Layer: 2
EndChar
StartChar: Q
Encoding: 49 81 105
Width: 765
Flags: HMW
HStem: -66.9415 21.42G<594.809 594.809> -22.0615 142.8<348.989 407.129> 600.139 142.8<441.809 553.499>
LayerCount: 3
Back
SplineSet
109 360 m 0
 150 577 304 735 524 735 c 0
 743 735 835 577 794 360 c 0
 773 255 727 164 660 98 c 1
 708 30 l 1
 592 -59 l 1
 540 17 l 1
 491 -3 437 -15 379 -15 c 0
 159 -15 66 143 109 360 c 0
404 212 m 1
 519 301 l 1
 574 221 l 1
 599 258 618 305 629 360 c 0
 657 507 606 595 497 595 c 0
 387 595 302 507 274 360 c 0
 245 213 296 125 406 125 c 0
 424 125 441 127 459 132 c 1
 404 212 l 1
EndSplineSet
Fore
SplineSet
525.466796875 742.943359375 m 1
 762.583984375 634.67578125 l 1
 800.795898438 360.478515625 l 1
 750.053710938 211.8984375 l 1
 663.987304688 92.4794921875 l 1
 708 30 l 1
 592 -59 l 1
 544 11 l 1
 463.139648438 -13.27734375 l 1
 377.600585938 -21.9853515625 l 1
 139.270507812 86.28125 l 1
 102.271484375 360.478515625 l 1
 245.473632812 634.651367188 l 1
 525.466796875 742.943359375 l 1
518.950195312 300.858398438 m 1
 576.235351562 217.892578125 l 1
 609.859375 282.770507812 l 1
 632.520507812 360.478515625 l 1
 617.671875 536.5390625 l 1
 497.916992188 600.095703125 l 1
 352.876953125 536.50390625 l 1
 270.4609375 360.478515625 l 1
 284.639648438 184.427734375 l 1
 405.064453125 120.862304688 l 1
 461 129 l 1
 403.965820312 211.965820312 l 1
 518.950195312 300.858398438 l 1
EndSplineSet
Validated: 1
Layer: 2
EndChar
StartChar: R
Encoding: 50 82 106
Width: 690
Flags: HMW
HStem: -7.05005 21.42G<61.4038 61.4038 61.4038 224.604 506.124 506.124 506.124 688.704> 247.95 137.7<299.064 326.604 272.544 370.464> 579.45 147.9<336.804 336.804 336.804 406.164>
LayerCount: 3
Back
SplineSet
207.7421875 720.004882812 m 5
 490.758789062 720.004882812 l 5
 676.8359375 670.334960938 l 5
 722.674804688 502.930664062 l 5
 647.825195312 370.029296875 l 5
 507.765625 309.02734375 l 5
 594.879882812 258.615234375 l 5
 640.729492188 167.0625 l 5
 684.745117188 0 l 5
 505.764648438 0 l 5
 475.920898438 120.9609375 l 5
 423.944335938 224.453125 l 5
 329.952148438 249.926757812 l 5
 276.849609375 249.926757812 l 5
 230 0 l 5
 70.0263671875 0 l 5
 207.7421875 720.004882812 l 5
302.775390625 384.970703125 m 5
 372.80078125 384.970703125 l 5
 497.60546875 407.083984375 l 5
 555.69921875 480.842773438 l 5
 523.270507812 559.404296875 l 5
 407.813476562 574.955078125 l 5
 339.956054688 574.955078125 l 5
 302.775390625 384.970703125 l 5
70 0 m 1
 208 720 l 1
 491 720 l 2
 647 720 754 660 723 503 c 0
 702 393 616 323 508 309 c 1
 579 299 625 232 641 167 c 2
 685 0 l 1
 506 0 l 1
 476 121 l 2
 451 225 411 250 330 250 c 2
 277 250 l 1
 230 0 l 1
 70 0 l 1
340 575 m 1
 303 385 l 1
 373 385 l 2
 476 385 542 412 556 481 c 0
 572 565 503 575 408 575 c 2
 340 575 l 1
EndSplineSet
Fore
SplineSet
299.234375 370.3203125 m 1
 411.389648438 370.3203125 l 1
 523.458984375 406.431640625 l 1
 564.358398438 478.391601562 l 1
 547.29296875 544.1015625 l 1
 450.114257812 575 l 1
 340 575 l 1
 299.234375 370.3203125 l 1
72.75 13.25 m 1
 208 721 l 1
 485.875 720 l 1
 676.693359375 671.341796875 l 1
 730.592773438 481.538085938 l 1
 622.529296875 299.108398438 l 1
 575.44140625 284.104492188 l 1
 690.294921875 56.14453125 l 1
 535 -15 l 1
 420.705078125 234.801757812 l 1
 398.208984375 227.633789062 l 1
 272.705078125 227.633789062 l 1
 227 -15 l 1
 72.75 13.25 l 1
EndSplineSet
Validated: 1
Layer: 2
EndChar
StartChar: S
Encoding: 51 83 107
Width: 647
Flags: HMW
HStem: -22.4976 142.8<306.07 381.04 306.07 394.81> 517.082 225.42<526.9 538.12 384.61 687.04 526.9 526.9> 599.702 142.8<394.81 467.23>
LayerCount: 3
Back
SplineSet
79 230 m 1xa0
 234 238 l 1
 225 153 266 125 349 125 c 0
 413 125 471 147 482 204 c 0
 490 245 473 264 419 283 c 0
 384 296 308 317 268 330 c 0
 149 368 141 448 154 516 c 0
 182 665 319 735 450 735 c 0xc0
 620 735 713 664 681 514 c 1
 524 514 l 1
 535 566 504 595 427 595 c 0
 362 595 317 568 311 530 c 0
 305 503 313 487 345 474 c 0
 375 461 443 441 508 422 c 0
 608 392 670 329 646 209 c 0
 616 57 463 -15 326 -15 c 0
 135 -15 60 77 79 230 c 1xa0
EndSplineSet
Fore
SplineSet
231.099609375 235.5625 m 1
 254.58984375 145.427734375 l 1
 348.357421875 120.34765625 l 1
 436.501953125 138.829101562 l 1
 484.149414062 200.87109375 l 1
 475.721679688 249.61328125 l 1
 419.782226562 281.395507812 l 1
 265.70703125 329.354492188 l 1
 157.145507812 412.642578125 l 1
 149.470703125 518.88671875 l 1
 261.030273438 687.5546875 l 1
 451.413085938 742.258789062 l 1
 646.418945312 686.951171875 l 1
 677.860351562 555.842773438 l 1
 526.834960938 517.100585938 l 1
 511.0625 578.250976562 l 1
 427.9453125 599.666015625 l 1
 346.241210938 581.048828125 l 1
 309.497070312 533.420898438 l 1
 312.368164062 499.495117188 l 1
 344.190429688 476.28515625 l 1
 413.915039062 452.063476562 l 1
 510.424804688 423.30859375 l 1
 628.169921875 349.154296875 l 1
 651.149414062 206.059570312 l 1
 528.885742188 33.623046875 l 1
 324.803710938 -22.5009765625 l 1
 118.530273438 43.9306640625 l 1
 80.1396484375 195.782226562 l 1
 231.099609375 235.5625 l 1
EndSplineSet
Validated: 1
Layer: 2
EndChar
StartChar: T
Encoding: 52 84 108
Width: 697
Flags: HMW
HStem: 0 21G<252 412 252 252> 575 145<168 362 140 772 522 522 522 744>
LayerCount: 3
Back
SplineSet
412 0 m 1
 252 0 l 1
 362 575 l 1
 140 575 l 1
 168 720 l 1
 772 720 l 1
 744 575 l 1
 522 575 l 1
 412 0 l 1
EndSplineSet
Fore
SplineSet
409.25 -14.75 m 1
 254.75 14 l 1
 362 575 l 1
 140 575 l 1
 140 720 l 1
 772 720 l 1
 772 575 l 1
 522 575 l 1
 409.25 -14.75 l 1
EndSplineSet
Validated: 1
Layer: 2
EndChar
StartChar: U
Encoding: 53 85 109
Width: 753
Flags: HMW
HStem: -22.4999 147.9<352.126 446.986 352.126 471.466> 706.8 20.4G<202.696 365.896 365.896 365.896 664.756 827.956 827.956 827.956>
LayerCount: 3
Back
SplineSet
583 317 m 2
 661 720 l 1
 821 720 l 1
 741 302 l 2
 703 107 570 -15 373 -15 c 0
 178 -15 90 107 128 302 c 2
 208 720 l 1
 368 720 l 1
 290 317 l 2
 263 179 308 130 401 130 c 0
 494 130 556 179 583 317 c 2
EndSplineSet
Fore
SplineSet
664 735 m 5
 818 705 l 5
 740.826171875 300.859375 l 5
 617.264648438 64.55859375 l 5
 368.837890625 -22.505859375 l 5
 154.7734375 64.55859375 l 5
 122.26953125 300.859375 l 5
 205.5 734 l 5
 359.5 705 l 5
 284.147460938 316.16796875 l 5
 294.8828125 168.046875 l 5
 397.322265625 125.530273438 l 5
 515.333984375 168.046875 l 5
 583.029296875 316.16796875 l 5
 664 735 l 5
EndSplineSet
Validated: 1
Layer: 2
EndChar
StartChar: V
Encoding: 54 86 110
Width: 740
Flags: HMW
HStem: 0 21G<295 437 295 295> 700 20G<153 318 318 318 700 863 863 863>
LayerCount: 3
Back
SplineSet
437 0 m 1
 295 0 l 1
 153 720 l 1
 318 720 l 1
 405 199 l 1
 700 720 l 1
 863 720 l 1
 437 0 l 1
EndSplineSet
Fore
SplineSet
428 -15 m 1
 280.75 72 l 1
 155.25 708.25 l 1
 315.5 735 l 1
 405 199 l 1
 708.5 735 l 1
 831 666 l 1
 428 -15 l 1
EndSplineSet
Validated: 1
Layer: 2
EndChar
StartChar: W
Encoding: 55 87 111
Width: 1030
Flags: HMW
HStem: 0 21G<188 378 188 188 652 652 652 842> 700 20G<153 320 320 320 561 745 745 745 987 1153 1153 1153>
VStem: 170 154 633 126
LayerCount: 3
Back
SplineSet
378 0 m 1
 188 0 l 1
 153 720 l 1
 320 720 l 1
 328 175 l 1
 561 720 l 1
 745 720 l 1
 773 175 l 1
 987 720 l 1
 1153 720 l 1
 842 0 l 1
 652 0 l 1
 615 528 l 1
 378 0 l 1
EndSplineSet
Fore
SplineSet
378 0 m 1
 184 86 l 1
 153 718.25 l 1
 320 720 l 1
 328 175 l 1
 567.5 735 l 1
 748 658 l 1
 773 175 l 1
 992.75 735 l 1
 1135.5 679.25 l 1
 835.75 -14.5 l 1
 647.25 66.75 l 1
 615 528 l 1
 378 0 l 1
EndSplineSet
Validated: 1
Layer: 2
EndChar
StartChar: X
Encoding: 56 88 112
Width: 722
Flags: HMW
HStem: 0 21G<20 204 20 20 524 524 524 702> 700 20G<176 364 364 364 652 835 835 835>
LayerCount: 3
Back
SplineSet
204 0 m 1
 20 0 l 1
 350 373 l 1
 176 720 l 1
 364 720 l 1
 461 492 l 1
 652 720 l 1
 835 720 l 1
 526 368 l 1
 702 0 l 1
 524 0 l 1
 416 250 l 1
 204 0 l 1
EndSplineSet
Fore
SplineSet
191.5 -14.75 m 1
 85.75 74.5 l 1
 350 373 l 1
 201.75 668.75 l 1
 357.75 735 l 1
 461 492 l 1
 664.5 735 l 1
 770.75 646.75 l 1
 526 368 l 1
 678.5 49 l 1
 530.25 -14.5 l 1
 416 250 l 1
 191.5 -14.75 l 1
EndSplineSet
Validated: 1
Layer: 2
EndChar
StartChar: bracketleft
Encoding: 59 91 149
Width: 357
Flags: HMW
HStem: -140 135<214 309> 685 135<348 470 348 348>
LayerCount: 3
Back
SplineSet
309 -140 m 1
 32 -140 l 1
 219 820 l 1
 496 820 l 1
 470 685 l 1
 348 685 l 1
 214 -5 l 1
 336 -5 l 1
 309 -140 l 1
EndSplineSet
Fore
SplineSet
309 -140 m 1
 32 -140 l 1
 219 820 l 1
 469 820 l 1
 470 685 l 1
 348 685 l 1
 214 -5 l 1
 309 -5 l 1
 309 -140 l 1
EndSplineSet
Validated: 1
Layer: 2
EndChar
StartChar: backslash
Encoding: 60 92 152
Width: 401
Flags: HMW
HStem: -100 21G<227 381 227 227> 800 20G<159 314 314 314>
VStem: 193 154
LayerCount: 3
Back
SplineSet
381 -100 m 1
 227 -100 l 1
 159 820 l 1
 314 820 l 1
 381 -100 l 1
EndSplineSet
Fore
SplineSet
380.25 -89.5 m 1
 227 -100 l 1
 160 808.5 l 1
 314 820 l 1
 380.25 -89.5 l 1
EndSplineSet
Validated: 1
Layer: 2
EndChar
StartChar: bracketright
Encoding: 61 93 150
Width: 357
Flags: HMW
HStem: -140 135<19 141 19 269 -7 141> 685 135<179 275 153 456>
LayerCount: 3
Back
SplineSet
269 -140 m 1
 -7 -140 l 1
 19 -5 l 1
 141 -5 l 1
 275 685 l 1
 153 685 l 1
 179 820 l 1
 456 820 l 1
 269 -140 l 1
EndSplineSet
Fore
SplineSet
269 -140 m 1
 -7 -140 l 1
 -7 -5 l 1
 141 -5 l 1
 275 685 l 1
 153 685 l 1
 153 820 l 5
 456 820 l 1
 269 -140 l 1
EndSplineSet
Validated: 1
Layer: 2
EndChar
StartChar: asciicircum
Encoding: 62 94 169
Width: 596
Flags: HMW
HStem: 470 250<171 505 171 505 465 465>
LayerCount: 3
Back
SplineSet
368 720 m 1
 505 720 l 1
 606 471 l 1
 465 470 l 1
 415 611 l 1
 309 470 l 1
 171 470 l 1
 368 720 l 1
EndSplineSet
Fore
SplineSet
368 720 m 5
 505 720 l 5
 606 471 l 5
 491.25 423.75 l 5
 418.75 629.75 l 5
 251.75 406.5 l 5
 171 470 l 5
 368 720 l 5
EndSplineSet
Validated: 1
Layer: 2
EndChar
StartChar: underscore
Encoding: 63 95 140
Width: 656
Flags: HMW
HStem: 0 125<74 606 50 630>
LayerCount: 3
Back
SplineSet
606 0 m 1
 50 0 l 1
 74 125 l 1
 630 125 l 1
 606 0 l 1
EndSplineSet
Fore
SplineSet
630 0 m 5
 50 0 l 1
 49.75 125 l 1
 629.75 125 l 5
 630 0 l 5
EndSplineSet
Validated: 1
Layer: 2
EndChar
StartChar: grave
Encoding: 64 96 182
Width: 324
Flags: HMW
HStem: 533 187<243 298 120 374 243 243>
LayerCount: 3
Back
SplineSet
298 720 m 1
 374 533 l 1
 243 533 l 1
 120 720 l 1
 298 720 l 1
EndSplineSet
Fore
SplineSet
258.25 806 m 5
 368.25 533 l 5
 276.75 495.75 l 5
 129.25 720 l 5
 258.25 806 l 5
EndSplineSet
Validated: 1
Layer: 2
EndChar
StartChar: a
Encoding: 65 97 63
Width: 551
Flags: HMW
HStem: -15 112<141 267.5> 0 21G<364 515 364 364> 413 122<313.5 362.5>
LayerCount: 3
Back
SplineSet
73.947265625 22.37109375 m 5
 44.2490234375 131.791992188 l 5
 121.755859375 252.703125 l 5
 280.166015625 300.772460938 l 5
 348.284179688 310.544921875 l 5
 396.208007812 324.694335938 l 5
 399.209960938 336.78515625 l 5
 391.030273438 387.555664062 l 5
 331.268554688 412.811523438 l 5
 263.432617188 388.522460938 l 5
 226.231445312 335.784179688 l 5
 107.272460938 377.799804688 l 5
 216.801757812 501.270507812 l 5
 362.280273438 534.7734375 l 5
 515.10546875 484.677734375 l 5
 544.260742188 313.86328125 l 5
 485.25 0 l 5
 341.779296875 0 l 5
 350.270507812 54.013671875 l 5
 273.034179688 -0.1083984375 l 5
 188.295898438 -15.0927734375 l 5
 188.295898438 -15.0927734375 l 5
 73.947265625 22.37109375 l 5
379.28515625 234.834960938 m 5
 342.772460938 222.986328125 l 5
 282.250976562 208.819335938 l 5
 223.052734375 187.340820312 l 5
 195.303710938 141.71484375 l 5
 202.557617188 110.655273438 l 5
 244.322265625 96.7802734375 l 5
 313.8984375 117.642578125 l 5
 366.282226562 164.635742188 l 5
 379.28515625 234.834960938 l 5
350 54 m 1xa0
 298 2 250 -15 188 -15 c 0
 94 -15 25 36 44 132 c 0
 65 244 151 286 280 301 c 0
 335 307 368 313 396 325 c 1
 399 337 l 2
 405 371 394 413 331 413 c 0x60
 273 413 243 374 226 336 c 1
 107 378 l 1
 156 498 265 535 362 535 c 0
 495 535 576 475 544 314 c 2
 505 106 l 2
 494 53 500 19 515 0 c 1
 364 0 l 1
 350 13 349 37 350 54 c 1xa0
366 165 m 1
 379 235 l 1
 359 228 334 219 282 209 c 0
 234 200 201 183 195 142 c 0
 192 119 201 97 244 97 c 0xa0
 291 97 342 130 366 165 c 1
EndSplineSet
Fore
SplineSet
67.541015625 17.6220703125 m 1
 37.2490234375 129.231445312 l 1
 116.305664062 252.560546875 l 1
 277.883789062 301.590820312 l 1
 396.247070312 325.991210938 l 1
 399.30859375 338.32421875 l 1
 390.965820312 390.110351562 l 1
 330.008789062 415.87109375 l 1
 260.81640625 391.095703125 l 1
 222.87109375 337.302734375 l 1
 124.459960938 406.118164062 l 1
 213.252929688 506.098632812 l 1
 361.640625 540.272460938 l 1
 517.522460938 489.174804688 l 1
 544.260742188 314.943359375 l 1
 482 -15 l 1
 343.485351562 11.2783203125 l 1
 349.390625 49.8974609375 l 1
 270.609375 -5.3076171875 l 1
 184.176757812 -20.591796875 l 1
 67.541015625 17.6220703125 l 1
378.985351562 234.334960938 m 1
 280.010742188 207.798828125 l 1
 219.62890625 185.890625 l 1
 191.32421875 139.352539062 l 1
 198.723632812 107.671875 l 1
 241.323242188 93.51953125 l 1
 312.291015625 114.798828125 l 1
 365.72265625 162.731445312 l 1
 378.985351562 234.334960938 l 1
EndSplineSet
Validated: 1
Layer: 2
EndChar
StartChar: b
Encoding: 66 98 64
Width: 587
Flags: HMW
HStem: -15 125<292.5 344.5 285.5 384> 0 110<50 344.5> 410 125<402 404> 700 20G<188 338 338 338>
LayerCount: 3
Back
SplineSet
188 720 m 1x70
 338 720 l 1
 291 475 l 1
 330 522 381 535 423 535 c 0
 547 535 634 442 599 260 c 0
 564 78 446 -15 322 -15 c 0xb0
 263 -15 221 11 201 61 c 1
 190 0 l 1
 50 0 l 1
 188 720 l 1x70
238 260 m 0
 219 158 256 110 315 110 c 0
 374 110 430 158 449 260 c 0
 469 362 436 410 372 410 c 0
 308 410 258 362 238 260 c 0
EndSplineSet
Fore
SplineSet
336.200195312 707.44921875 m 1
 291.850585938 477.212890625 l 1
 357.9296875 525.70703125 l 1
 426.368164062 538.353515625 l 1
 576.956054688 467.737304688 l 1
 605.8671875 257.837890625 l 1
 498.654296875 48.0908203125 l 1
 323.395507812 -22.5087890625 l 1
 246.81640625 -2.9140625 l 1
 200.017578125 54.869140625 l 1
 187 -15 l 1
 52.26953125 11.5009765625 l 1
 191 735 l 1
 336.200195312 707.44921875 l 1
316.25390625 104.869140625 m 1
 399.848632812 142.357421875 l 1
 452.8984375 257.837890625 l 1
 445.728515625 373.384765625 l 1
 374.333984375 410.805664062 l 1
 289.14453125 373.384765625 l 1
 237.690429688 257.837890625 l 1
 247.161132812 142.392578125 l 1
 316.25390625 104.869140625 l 1
EndSplineSet
Validated: 1
Layer: 2
EndChar
StartChar: c
Encoding: 67 99 65
Width: 540
Flags: HMW
HStem: -20.5023 127.5<253.333 310.963 253.333 319.123> 313.038 227.46<411.943 432.343 301.783 564.943 411.943 411.943> 412.998 127.5<314.023 375.223>
LayerCount: 3
Back
SplineSet
286.91015625 110.063476562 m 1
 350.787109375 130.216796875 l 1
 396.032226562 196.012695312 l 1
 540 175 l 5
 422.916992188 28.015625 l 1
 263.068359375 -14.8173828125 l 1
 101.563476562 50.6123046875 l 1
 68.166015625 260.032226562 l 1
 182.206054688 469.536132812 l 1
 369.0234375 535.048828125 l 1
 526.005859375 485.078125 l 1
 560.0078125 312.137695312 l 1
 410.037109375 312.137695312 l 1
 404.142578125 382.078125 l 1
 345.100585938 410.001953125 l 1
 265.051757812 371.405273438 l 1
 218.139648438 260.032226562 l 1
 221.391601562 148.7265625 l 1
 286.91015625 110.063476562 l 1
218 260 m 0xa0
 200 163 222 110 287 110 c 0
 335 110 373 135 396 196 c 1
 540 175 l 1
 485 36 375 -15 263 -15 c 0
 129 -15 31 68 68 260 c 0
 105 452 235 535 369 535 c 0
 491 535 602 476 560 312 c 1
 410 312 l 1xc0
 423 368 403 410 345 410 c 0
 283 410 236 357 218 260 c 0xa0
EndSplineSet
Fore
SplineSet
530.26953125 489.577148438 m 1
 562.393554688 325.532226562 l 0
 411.943359375 313.038085938 l 0
 405.96875 384.517578125 l 1
 345.74609375 413 l 1
 264.095703125 373.630859375 l 1
 216.24609375 260.030273438 l 1
 219.5625 146.499023438 l 1
 286.391601562 107.0625 l 1
 351.545898438 127.619140625 l 1
 397.696289062 194.73046875 l 1
 503.48828125 121.788085938 l 1
 425.119140625 23.3740234375 l 1
 262.073242188 -20.31640625 l 1
 97.337890625 46.421875 l 1
 63.2724609375 260.030273438 l 1
 179.59375 473.724609375 l 1
 370.147460938 540.547851562 l 1
 530.26953125 489.577148438 l 1
EndSplineSet
Validated: 1
Layer: 2
EndChar
StartChar: d
Encoding: 68 100 66
Width: 578
Flags: HMW
HStem: -22.5008 127.5<263.562 267.642> -7.20081 112.2<263.562 523.152 263.562 380.352> 410.999 127.5<321.192 372.192 287.532 386.472> 706.799 20.4G<510.912 663.912 663.912 663.912>
LayerCount: 3
Back
SplineSet
508 720 m 1xb0
 658 720 l 1
 520 0 l 1
 380 0 l 1
 391 61 l 1
 351 11 299 -15 240 -15 c 0
 116 -15 34 78 69 260 c 0
 104 442 227 535 351 535 c 0
 393 535 440 522 461 475 c 1
 508 720 l 1xb0
430 260 m 0
 450 362 418 410 354 410 c 0
 290 410 239 362 219 260 c 0x70
 200 158 236 110 295 110 c 0
 354 110 411 158 430 260 c 0
EndSplineSet
Fore
SplineSet
656.033203125 707.41015625 m 1
 517 -15 l 1
 381.642578125 11.01953125 l 1
 389.864257812 54.869140625 l 1
 320.096679688 -2.947265625 l 1
 235.7890625 -22.5087890625 l 1
 87.751953125 48.0908203125 l 1
 61.392578125 257.837890625 l 1
 171.11328125 467.737304688 l 1
 348.879882812 538.353515625 l 1
 413.034179688 525.732421875 l 1
 461.120117188 477.212890625 l 1
 511 735 l 1
 656.033203125 707.41015625 l 1
352.108398438 410.805664062 m 1
 266.408203125 373.384765625 l 1
 214.444335938 257.837890625 l 1
 223.298828125 142.357421875 l 1
 291.907226562 104.869140625 l 1
 376.075195312 142.357421875 l 1
 429.5703125 257.837890625 l 1
 422.919921875 373.384765625 l 1
 352.108398438 410.805664062 l 1
EndSplineSet
Validated: 1
Layer: 2
EndChar
StartChar: e
Encoding: 69 101 67
Width: 556
Flags: HMW
HStem: -20.4975 127.5<272.44 331.09 272.44 335.68> 216.142 104.04<230.11 360.67 207.67 369.85> 413.002 127.5<325.99 371.38>
VStem: 432.07 158.1<368.122 368.122>
LayerCount: 3
Back
SplineSet
544 141 m 1
 485 38 398 -15 273 -15 c 0
 139 -15 31 68 68 260 c 0
 105 452 246 535 379 535 c 0
 486 535 592 487 585 366 c 0
 579 252 483 217 360 217 c 2
 210 217 l 1
 200 145 240 110 307 110 c 0
 355 110 391 137 409 170 c 1
 544 141 l 1
351 410 m 0
 301 410 249 376 232 319 c 1
 369 319 l 2
 407 319 431 337 430 366 c 0
 429 396 390 410 351 410 c 0
EndSplineSet
Fore
SplineSet
272.001953125 -20.5556640625 m 5
 102.08984375 46.1826171875 l 5
 62.912109375 259.791015625 l 5
 184.750976562 473.485351562 l 5
 379.991210938 540.30859375 l 5
 528.602539062 500.420898438 l 5
 590.100585938 368.118164062 l 5
 520.130859375 248.556640625 l 5
 360.688476562 216.169921875 l 5
 207.719726562 216.169921875 l 5
 227.701171875 134.106445312 l 5
 306.610351562 107.078125 l 5
 370.064453125 125.048828125 l 5
 410.686523438 168.211914062 l 5
 498.370117188 86.6025390625 l 5
 435.3671875 19.587890625 l 5
 272.001953125 -20.5556640625 l 5
230.08203125 320.07421875 m 5
 369.872070312 320.07421875 l 5
 415.905273438 332.908203125 l 5
 432.029296875 367.86328125 l 5
 406.275390625 401.712890625 l 5
 351.505859375 412.67578125 l 5
 278.166992188 388.189453125 l 5
 230.08203125 320.07421875 l 5
EndSplineSet
Validated: 1
Layer: 2
EndChar
StartChar: f
Encoding: 70 102 68
Width: 414
Flags: HMW
HStem: -210 132<23 53 19 91> 401 119<124 180 102 202 349 438> 603 128<403.5 424.5 348 428>
LayerCount: 3
Back
SplineSet
5.28125 -76.919921875 m 1
 19.421875 -78.00390625 l 1
 78.890625 -45.3349609375 l 1
 102.284179688 27.03125 l 1
 175.310546875 400.99609375 l 5
 97.2822265625 400.99609375 l 5
 119.374023438 519.873046875 l 5
 197.485351562 519.873046875 l 5
 201.404296875 540.884765625 l 5
 266.541992188 677.138671875 l 5
 398.390625 730.869140625 l 5
 464.340820312 725.783203125 l 5
 509.346679688 714.91015625 l 5
 469.416015625 592.948242188 l 5
 443.541992188 600.119140625 l 5
 415.48046875 602.87109375 l 5
 373.309570312 589.387695312 l 5
 348.456054688 542.76953125 l 5
 344.370117188 519.83984375 l 5
 455.409179688 519.83984375 l 5
 433.401367188 400.962890625 l 5
 322.278320312 400.962890625 l 5
 239.33203125 -28.0166015625 l 1
 168.974609375 -158.783203125 l 1
 30.341796875 -210.087890625 l 1
 -13.6220703125 -206.418945312 l 1
 -54.7724609375 -196.071289062 l 1
 -12.673828125 -72.025390625 l 1
 -12.6728515625 -72.025390625 l 1
 5.28125 -76.919921875 l 1
-54.6728515625 -196 m 1
 -12.6728515625 -72 l 1
 2.3271484375 -77 9.3271484375 -78 19.3271484375 -78 c 0
 77.3271484375 -78 92.3271484375 -26 102.327148438 27 c 2
 175.327148438 401 l 5
 97.3271484375 401 l 5
 119.327148438 520 l 5
 197.327148438 520 l 5
 201.327148438 541 l 6
 222.327148438 651 288.327148438 731 398.327148438 731 c 4
 441.327148438 731 494.327148438 723 509.327148438 715 c 5
 469.327148438 593 l 5
 456.327148438 599 431.327148438 603 415.327148438 603 c 4
 382.327148438 603 358.327148438 587 348.327148438 543 c 6
 344.327148438 520 l 5
 455.327148438 520 l 5
 433.327148438 401 l 5
 322.327148438 401 l 5
 239.327148438 -28 l 2
 218.327148438 -134 142.327148438 -210 30.3271484375 -210 c 0
 6.3271484375 -210 -34.6728515625 -205 -54.6728515625 -196 c 1
EndSplineSet
Fore
SplineSet
14.1513671875 -84.771484375 m 5
 74.8095703125 -51.44921875 l 5
 101.170898438 22.3642578125 l 5
 175.158203125 401.05859375 l 5
 102.423828125 401.05859375 l 5
 102.517578125 520.0625 l 5
 195.776367188 520.0625 l 5
 199.7734375 546.495117188 l 5
 266.213867188 685.473632812 l 5
 400.69921875 740.278320312 l 5
 467.96875 735.090820312 l 5
 508.51953125 725.275390625 l 5
 473.145507812 599.599609375 l 5
 418.130859375 609.720703125 l 5
 375.1171875 595.967773438 l 5
 349.766601562 548.416992188 l 5
 345.598632812 520.029296875 l 5
 438.013671875 520.029296875 l 5
 438.005859375 401.024414062 l 5
 322.565429688 401.024414062 l 5
 238.459960938 -33.78515625 l 5
 166.6953125 -167.166992188 l 5
 25.2900390625 -219.497070312 l 5
 -52.5 -207.422851562 l 5
 -18.5859375 -78.673828125 l 5
 -18.5849609375 -78.673828125 l 5
 14.1513671875 -84.771484375 l 5
EndSplineSet
Validated: 1
Layer: 2
EndChar
StartChar: g
Encoding: 71 103 69
Width: 575
Flags: HMW
HStem: -220 116<215.5 277.5 215.5 309.5> -220 230 -5 125<262 264> 410 110<319.5 615> 410 125<319.5 371.5 280 378.5>
VStem: 26 130
LayerCount: 3
Back
SplineSet
519 20 m 2xb4
 494 -109 401 -220 218 -220 c 0
 116 -220 21 -179 26 -90 c 0
 29 -44 65 9 162 10 c 1
 84 42 39 126 66 265 c 0
 101 447 218 535 342 535 c 0x4c
 401 535 443 509 464 459 c 1
 475 520 l 1
 615 520 l 1
 519 20 l 2xb4
427 265 m 0
 447 367 408 410 349 410 c 0
 290 410 236 367 216 265 c 0
 197 163 230 120 294 120 c 0xb4
 358 120 408 163 427 265 c 0
243 -5 m 0
 220 -5 198 -2 178 4 c 1
 166 -6 157 -22 156 -44 c 0
 153 -88 191 -104 240 -104 c 0
 315 -104 355 -49 369 18 c 2
 374 45 l 1
 336 6 285 -5 243 -5 c 0
EndSplineSet
Fore
SplineSet
214.24609375 -227.4765625 m 1
 75.328125 -195.2265625 l 1
 18.4228515625 -94.919921875 l 1
 51.7333984375 -26.6259765625 l 1
 157.106445312 7.037109375 l 1
 67.888671875 96.1767578125 l 1
 59.1513671875 267.142578125 l 1
 165.907226562 474.448242188 l 1
 340.772460938 542.470703125 l 1
 417.51171875 522.82421875 l 1
 465.171875 464.922851562 l 1
 478 535 l 1
 612.834960938 509.451171875 l 1
 518.463867188 17.3193359375 l 1
 428.122070312 -154.470703125 l 1
 214.24609375 -227.4765625 l 1
157.8828125 -18.9033203125 m 1
 150.899414062 -47.896484375 l 1
 173.857421875 -95.353515625 l 1
 236.609375 -109.19921875 l 1
 325.657226562 -72.611328125 l 1
 368.15234375 15.193359375 l 1
 373.33984375 42.7490234375 l 1
 308.079101562 2.3505859375 l 1
 239.7578125 -8.271484375 l 1
 205.40625 -5.9755859375 l 1
 173.348632812 0.9130859375 l 1
 173.34765625 0.9130859375 l 1
 157.8828125 -18.9033203125 l 1
347.744140625 414.922851562 m 1
 265.03125 380.018554688 l 1
 212.036132812 267.311523438 l 1
 220.0390625 154.2734375 l 1
 291.624023438 119.361328125 l 1
 376.697265625 154.307617188 l 1
 427.333007812 267.311523438 l 1
 417.766601562 380.018554688 l 1
 347.744140625 414.922851562 l 1
EndSplineSet
Validated: 1
Layer: 2
EndChar
StartChar: h
Encoding: 72 104 70
Width: 584
Flags: HMW
HStem: 0 21G<50 200 50 50 375 375 375 525> 409 126<347 510> 700 20G<188 338 338 338>
LayerCount: 3
Back
SplineSet
200 0 m 1
 50 0 l 1
 188 720 l 1
 338 720 l 1
 286 455 l 1
 332 512 376 535 438 535 c 0
 582 535 609 443 586 319 c 2
 525 0 l 1
 375 0 l 1
 435 315 l 2
 447 375 431 409 373 409 c 0
 321 409 270 367 253 283 c 2
 200 0 l 1
EndSplineSet
Fore
SplineSet
50.4345703125 11.5 m 1
 189.25 735 l 1
 334.081054688 707.450195312 l 1
 284.619140625 456.979492188 l 1
 355.958984375 519.55859375 l 1
 439.543945312 538.5234375 l 1
 578.865234375 475.791992188 l 1
 587.637695312 318.290039062 l 1
 523.75 -15 l 1
 378.41015625 11.01953125 l 1
 436.317382812 314.130859375 l 1
 431.66015625 384.967773438 l 1
 373.30859375 409.956054688 l 1
 298.780273438 377.833007812 l 1
 251.03515625 281.557617188 l 1
 195.25 -15 l 1
 50.4375 11.3310546875 l 1
 50.4345703125 11.5 l 1
EndSplineSet
Validated: 1
Layer: 2
EndChar
StartChar: i
Encoding: 73 105 71
Width: 258
Flags: HMW
HStem: 0 21G<50 200 50 50> 500 20G<149 299 299 299> 584 136<188 311 161 338>
LayerCount: 3
Back
SplineSet
273.5 584 m 5
 236 584 l 5
 198.5 584 l 5
 167.75 618 l 5
 174.5 652 l 5
 181.25 686 l 5
 225.5 720 l 5
 263 720 l 5
 300.5 720 l 5
 331.25 686 l 5
 324.5 652 l 5
 317.75 618 l 5
 273.5 584 l 5
197 -15 m 1
 53 14 l 1
 152 535 l 1
 296.5 507.75 l 1
 197 -15 l 1
197 -15 m 1
 53 14 l 1
 152 535 l 1
 296.5 508 l 1
 197 -15 l 1
200 0 m 1
 50 0 l 1
 149 520 l 1
 299 520 l 1
 200 0 l 1
EndSplineSet
Fore
SplineSet
224.5 732.75 m 1
 303.2421875 717.047851562 l 1
 335.530273438 673.553710938 l 1
 320.802734375 599.431640625 l 1
 274.34765625 571.568359375 l 1
 195.604492188 587.271484375 l 1
 163.31640625 630.764648438 l 1
 178.043945312 704.88671875 l 1
 224.5 732.75 l 1
197 -15 m 1
 52 11 l 1
 152 535 l 1
 296 505 l 1
 197 -15 l 1
EndSplineSet
Validated: 1
Layer: 2
SplineSet
226.166992188 726.290039062 m 5
 262.962890625 718.952148438 l 5
 299.7578125 711.615234375 l 5
 329.93359375 670.966796875 l 5
 316.168945312 601.693359375 l 5
 272.752929688 575.653320312 l 5
 235.956054688 582.991210938 l 5
 199.161132812 590.329101562 l 5
 168.985351562 630.9765625 l 5
 182.75 700.25 l 5
 226.166992188 726.290039062 l 5
EndSplineSet
EndChar
StartChar: j
Encoding: 74 106 72
Width: 261
Flags: HMW
HStem: -210 132<-25.5 4 -29 41.5> 500 20G<152 302 302 302> 584 136<191 314 164 341>
LayerCount: 3
Back
SplineSet
276.5 584 m 5
 239 584 l 5
 201.5 584 l 5
 170.75 618 l 5
 177.5 652 l 5
 184.25 686 l 5
 228.5 720 l 5
 266 720 l 5
 303.5 720 l 5
 334.25 686 l 5
 327.5 652 l 5
 320.75 618 l 5
 276.5 584 l 5
-57.9912109375 -71.873046875 m 1
 -38.8798828125 -76.79296875 l 1
 -24.146484375 -77.876953125 l 1
 33.666015625 -45.2080078125 l 1
 56.966796875 27.158203125 l 1
 155 535 l 1
 299.5 506.75 l 1
 197.015625 -27.8564453125 l 1
 125.282226562 -158.514648438 l 1
 -13.9755859375 -209.760742188 l 1
 -58.0126953125 -206.17578125 l 1
 -99.9228515625 -195.76171875 l 1
 -57.9912109375 -71.873046875 l 1
-100 -196 m 1
 -58 -72 l 1
 -42 -77 -34 -78 -24 -78 c 0
 32 -78 47 -26 57 27 c 2
 152 520 l 1
 302 520 l 1
 197 -28 l 2
 176 -134 97 -210 -14 -210 c 0
 -37 -210 -80 -205 -100 -196 c 1
314 584 m 5
 164 584 l 5
 191 720 l 5
 341 720 l 5
 314 584 l 5
EndSplineSet
Fore
SplineSet
227 733 m 1
 305.7421875 717.297851562 l 1
 338.030273438 673.803710938 l 1
 323.302734375 599.681640625 l 1
 276.84765625 571.818359375 l 1
 198.104492188 587.521484375 l 1
 165.81640625 631.014648438 l 1
 180.543945312 705.13671875 l 1
 227 733 l 1
-57.9912109375 -72.123046875 m 1
 -38.8798828125 -77.04296875 l 1
 -24.146484375 -78.126953125 l 1
 33.666015625 -45.4580078125 l 1
 56.966796875 27.158203125 l 1
 155 535 l 1
 299.5 507.5 l 1
 197.015625 -28.1064453125 l 1
 125.282226562 -161.264648438 l 1
 -13.9755859375 -212.510742188 l 1
 -58.0126953125 -208.92578125 l 1
 -99.9228515625 -198.51171875 l 1
 -57.9912109375 -72.123046875 l 1
EndSplineSet
Validated: 1
Layer: 2
EndChar
StartChar: k
Encoding: 75 107 73
Width: 578
Flags: HMW
HStem: 0 21G<50 50 50 200 376 376 376 541> 200 125<237 283 237 283> 387 133<544.5 618 562 618> 700 20G<188 338 338 338>
LayerCount: 3
Back
SplineSet
50 0 m 1
 188 720 l 1
 338 720 l 1
 261 325 l 1
 283 325 l 2
 313 325 324 328 357 359 c 0
 381 383 409 437 421 453 c 0
 464 512 516 520 587 520 c 2
 618 520 l 1
 578 387 l 1
 562 387 l 2
 527 387 517 376 493 342 c 0
 471 308 449 284 409 274 c 1
 408 270 l 1
 442 262 466 224 488 173 c 1
 541 0 l 1
 376 0 l 1
 335 149 l 2
 322 185 299 200 259 200 c 2
 237 200 l 1
 200 0 l 1
 50 0 l 1
EndSplineSet
Fore
SplineSet
578.068359375 387.124023438 m 1
 562.059570312 387.124023438 l 1
 523.431640625 377.327148438 l 1
 457.918945312 299.123046875 l 1
 409.087890625 274.16796875 l 1
 408.087890625 270.165039062 l 1
 452.561523438 237.830078125 l 1
 488.032226562 173.29296875 l 1
 532.5 27.75 l 1
 380 -15 l 1
 335.061523438 149.204101562 l 1
 307.1875 188.243164062 l 1
 259.118164062 200.141601562 l 1
 237.110351562 200.141601562 l 1
 197.346679688 -14.7646484375 l 1
 52.5 12.75 l 1
 190.75 735 l 0
 335.573242188 707.259765625 l 1
 260.872070312 325.10546875 l 1
 282.963867188 325.10546875 l 1
 318.830078125 330.44140625 l 1
 357.073242188 359.108398438 l 1
 393.534179688 409.086914062 l 1
 421.1796875 453.061523438 l 1
 493.642578125 508.626953125 l 1
 586.98828125 520 l 1
 618 520 l 1
 578.068359375 387.124023438 l 1
EndSplineSet
Validated: 1
Layer: 2
EndChar
StartChar: l
Encoding: 76 108 74
Width: 260
Flags: HMW
HStem: 0 21G<49 199 49 49> 715 20G<340 340>
LayerCount: 3
Back
SplineSet
199 0 m 1
 49 0 l 1
 182 695 l 1
 340 735 l 1
 199 0 l 1
EndSplineSet
Fore
SplineSet
196.25 -15 m 1
 51.5 12.75 l 1
 189.75 735 l 1
 334.75 707.25 l 1
 196.25 -15 l 1
EndSplineSet
Validated: 1
Layer: 2
EndChar
StartChar: m
Encoding: 77 109 75
Width: 862
Flags: HMW
HStem: -5.2025 21.42G<41.8139 194.814 41.8139 41.8139 347.814 347.814 347.814 500.814 652.794 652.794 652.794 805.794> 411.978 113.22<142.794 382.494> 411.978 128.52<335.064 478.374>
LayerCount: 3
Back
SplineSet
200 0 m 1xc0
 50 0 l 1
 149 520 l 1
 290 520 l 1
 276 446 l 1
 324 510 371 535 440 535 c 0
 516 535 560 500 569 439 c 1
 616 508 673 535 738 535 c 0
 835 535 889 472 866 356 c 2
 799 0 l 1
 649 0 l 1
 709 317 l 2
 719 371 712 409 665 409 c 0
 614 409 569 366 555 291 c 2xc0
 500 0 l 1
 350 0 l 1
 410 317 l 2
 423 385 402 409 366 409 c 0xa0
 309 409 267 354 251 269 c 2
 200 0 l 1xc0
EndSplineSet
Fore
SplineSet
49.51171875 12.9921875 m 1
 149 535 l 1
 284.57421875 508.977539062 l 1
 273.569335938 449.706054688 l 1
 349.171875 519.514648438 l 1
 440.909179688 540.352539062 l 1
 532.220703125 514.803710938 l 1
 572.451171875 442.5625 l 1
 651.69921875 517.856445312 l 1
 744.72265625 540.352539062 l 1
 855.899414062 493.506835938 l 1
 872.00390625 358.203125 l 1
 801.75 -15 l 1
 657.375 13.3125 l 1
 715.131835938 318.162109375 l 1
 714.451171875 385.69921875 l 1
 670.256835938 412.0390625 l 1
 600.094726562 380.553710938 l 1
 555.4296875 291.797851562 l 1
 497.25 -15 l 1
 352.646484375 13.5673828125 l 1
 410.403320312 318.416992188 l 1
 406.635742188 391.3125 l 1
 365.50390625 412.293945312 l 1
 291.14453125 373.392578125 l 1
 248.162109375 269.446289062 l 1
 194 -15 l 1
 49.51171875 12.9921875 l 1
EndSplineSet
Validated: 1
Layer: 2
EndChar
StartChar: n
Encoding: 78 110 76
Width: 584
Flags: HMW
HStem: 0 21G<50 200 50 50 375 375 375 525> 409 111<149 402> 409 126<347 510>
LayerCount: 3
Back
SplineSet
200 0 m 1xa0
 50 0 l 1
 149 520 l 1
 290 520 l 1
 276 445 l 1
 326 509 376 535 438 535 c 0
 582 535 609 443 586 319 c 2
 525 0 l 1
 375 0 l 1
 435 315 l 2
 447 375 431 409 373 409 c 0xc0
 321 409 270 367 253 283 c 2
 200 0 l 1xa0
EndSplineSet
Fore
SplineSet
50.75 13 m 5
 150.25 535 l 5
 285.875 508.981445312 l 5
 274.799804688 448.520507812 l 5
 352.805664062 518.9921875 l 5
 439.928710938 540.356445312 l 5
 579.326171875 477.624023438 l 5
 587.797851562 320.62109375 l 5
 523.75 -15 l 5
 379.196289062 13.31640625 l 5
 436.953125 315.962890625 l 5
 432.087890625 386.799804688 l 5
 373.779296875 411.787109375 l 5
 299.239257812 379.665039062 l 5
 251.420898438 283.389648438 l 5
 195.25 -15 l 5
 50.75 12.830078125 l 5
 50.75 13 l 5
EndSplineSet
Validated: 1
Layer: 2
EndChar
StartChar: o
Encoding: 79 111 77
Width: 572
Flags: HMW
HStem: -15 125<262.5 331.5 262.5 342.5> 410 125<320.5 389.5>
LayerCount: 3
Back
SplineSet
68 260 m 0
 105 452 240 535 379 535 c 0
 518 535 621 452 584 260 c 0
 547 68 412 -15 273 -15 c 0
 134 -15 31 68 68 260 c 0
218 260 m 0
 200 163 228 110 297 110 c 0
 366 110 416 163 434 260 c 0
 452 357 424 410 355 410 c 0
 286 410 236 357 218 260 c 0
EndSplineSet
Fore
SplineSet
380.264648438 540.365234375 m 5
 552.015625 473.541992188 l 5
 589.268554688 259.84765625 l 5
 469.759765625 46.2392578125 l 5
 272.19140625 -20.4990234375 l 5
 100.334960938 46.2392578125 l 5
 63.1025390625 259.84765625 l 5
 182.623046875 473.541992188 l 5
 380.264648438 540.365234375 l 5
296.595703125 106.879882812 m 5
 386.004882812 146.31640625 l 5
 436.385742188 259.84765625 l 5
 429.419921875 373.448242188 l 5
 355.942382812 412.817382812 l 5
 266.555664062 373.448242188 l 5
 216.068359375 259.84765625 l 5
 223.077148438 146.31640625 l 5
 296.595703125 106.879882812 l 5
EndSplineSet
Validated: 1
Layer: 2
EndChar
StartChar: p
Encoding: 80 112 78
Width: 588
Flags: HMW
HStem: -200 21G<21 171 21 21> -15 125<306 356 292 389> 410 110<159 412.5> 410 125<408.5 412.5>
LayerCount: 3
Back
SplineSet
171 -200 m 1xd0
 21 -200 l 1
 159 520 l 1
 299 520 l 1
 288 459 l 1
 327 509 379 535 438 535 c 0
 562 535 644 442 609 260 c 0
 574 78 451 -15 327 -15 c 0
 285 -15 238 -2 218 45 c 1
 171 -200 l 1xd0
248 260 m 0
 229 158 260 110 324 110 c 0
 388 110 440 158 459 260 c 0xe0
 479 362 442 410 383 410 c 0
 324 410 268 362 248 260 c 0
EndSplineSet
Fore
SplineSet
24.451171875 -182.549804688 m 1
 162 535 l 1
 297.108398438 509.184570312 l 1
 288.885742188 464.74609375 l 1
 357.716796875 522.715820312 l 1
 441.853515625 542.293945312 l 1
 589.860351562 471.677734375 l 1
 616.251953125 261.776367188 l 1
 506.520507812 52.029296875 l 1
 328.6796875 -18.5703125 l 1
 264.68359375 -6.0166015625 l 1
 217.459960938 42.572265625 l 1
 169 -210 l 1
 24.451171875 -182.549804688 l 1
325.53515625 108.72265625 m 1
 411.681640625 146.212890625 l 1
 463.200195312 261.692382812 l 1
 454.6328125 377.239257812 l 1
 385.736328125 414.661132812 l 1
 301.982421875 377.239257812 l 1
 248.072265625 261.692382812 l 1
 255.081054688 146.247070312 l 1
 325.53515625 108.72265625 l 1
EndSplineSet
Validated: 1
Layer: 2
EndChar
StartChar: q
Encoding: 81 113 79
Width: 588
Flags: HMW
HStem: -200 21G<330 480 330 330> -15 125<263 265> 410 110<322.5 618> 410 125<322.5 374.5 283 381.5>
LayerCount: 3
Back
SplineSet
480 -200 m 1xe0
 330 -200 l 1
 377 45 l 1
 337 -2 286 -15 244 -15 c 0
 120 -15 33 78 68 260 c 0
 103 442 221 535 345 535 c 0xd0
 404 535 446 509 467 459 c 1
 478 520 l 1
 618 520 l 1
 480 -200 l 1xe0
429 260 m 0
 449 362 411 410 352 410 c 0
 293 410 238 362 218 260 c 0
 199 158 231 110 295 110 c 0
 359 110 410 158 429 260 c 0
EndSplineSet
Fore
SplineSet
333.080078125 -181.892578125 m 1
 376.411132812 42.740234375 l 1
 309.396484375 -5.900390625 l 1
 240.788085938 -18.572265625 l 1
 90.2314453125 52.0439453125 l 1
 61.2890625 261.944335938 l 1
 168.500976562 471.692382812 l 1
 343.758789062 542.291015625 l 1
 420.466796875 522.696289062 l 1
 468.158203125 464.913085938 l 1
 481 535 l 1
 615.975585938 509.302734375 l 1
 478 -210 l 1
 333.08203125 -182.061523438 l 1
 333.080078125 -181.892578125 l 1
350.987304688 414.828125 m 1
 267.774414062 377.40625 l 1
 214.34375 261.859375 l 1
 221.870117188 146.380859375 l 1
 292.913085938 108.890625 l 1
 378.484375 146.380859375 l 1
 429.556640625 261.859375 l 1
 420.46875 377.40625 l 1
 350.987304688 414.828125 l 1
EndSplineSet
Validated: 1
Layer: 2
EndChar
StartChar: r
Encoding: 82 114 80
Width: 462
Flags: HMW
HStem: 0 21G<50 200 50 50> 395 125<149 419.5> 395 140<397.5 419.5>
LayerCount: 3
Back
SplineSet
200 0 m 1xa0
 50 0 l 1
 149 520 l 1
 290 520 l 1
 273 430 l 1
 319 500 360 535 435 535 c 0
 475 535 501 528 522 509 c 1
 475 375 l 1
 456 385 435 395 404 395 c 0xc0
 318 395 263 332 244 231 c 2
 200 0 l 1xa0
EndSplineSet
Fore
SplineSet
52.25 12.75 m 1
 52.25 12.8330078125 l 2
 52.2919921875 12.8330078125 l 1
 152 535 l 1
 288 509 l 1
 273.025390625 429.830078125 l 1
 345.134765625 511.608398438 l 1
 437 537.865234375 l 1
 487.5703125 532.028320312 l 1
 533 507 l 1
 474.930664062 374.931640625 l 1
 443.950195312 388.71484375 l 1
 403.905273438 394.967773438 l 1
 298.857421875 350.842773438 l 1
 244.014648438 230.999023438 l 1
 197.25 -14.75 l 1
 52.25 12.75 l 1
EndSplineSet
Validated: 1
Layer: 2
EndChar
StartChar: s
Encoding: 83 115 81
Width: 515
Flags: HMW
HStem: -15 115<243 291.5 243 313> 353 182<401 416 295.5 530 401 401> 420 115<306.5 345.5>
LayerCount: 3
Back
SplineSet
51 150 m 1xa0
 179 171 l 1
 177 126 215 100 271 100 c 0
 312 100 366 110 374 152 c 0
 379 176 363 188 342 193 c 2
 205 220 l 2
 139 235 89 283 106 369 c 0
 129 488 237 535 354 535 c 0xc0
 478 535 555 462 530 353 c 1
 401 353 l 1
 413 406 364 420 327 420 c 0
 286 420 240 408 233 373 c 0
 229 356 238 342 264 337 c 2
 398 312 l 2
 452 300 526 263 505 156 c 0
 483 41 380 -15 246 -15 c 0
 119 -15 42 55 51 150 c 1xa0
EndSplineSet
Fore
SplineSet
176.747070312 169.475585938 m 5
 201.586914062 116.005859375 l 5
 270.62109375 97.03125 l 5
 335.786132812 107.450195312 l 5
 375.633789062 150.008789062 l 5
 369.211914062 178.227539062 l 5
 342.89453125 191.844726562 l 5
 203.190429688 219.391601562 l 5
 120.923828125 268.208984375 l 5
 102.174804688 371.168945312 l 5
 192.635742188 501.310546875 l 5
 355.224609375 540.3828125 l 5
 501.880859375 489.293945312 l 5
 524.567382812 395.661132812 l 5
 403.010742188 354.84765625 l 5
 384.071289062 409.228515625 l 5
 327.504882812 423.125 l 5
 266.580078125 412.587890625 l 5
 231.674804688 375.336914062 l 5
 235.970703125 352.44140625 l 5
 263.22265625 338.603515625 l 5
 399.78125 313.012695312 l 5
 482.993164062 269.749023438 l 5
 508.875 153.920898438 l 5
 419.657226562 22.7490234375 l 5
 244.856445312 -20.4814453125 l 5
 93.4697265625 27.3330078125 l 5
 58.6826171875 114.651367188 l 5
 176.747070312 169.475585938 l 5
EndSplineSet
Validated: 1
Layer: 2
EndChar
StartChar: t
Encoding: 84 116 82
Width: 385
Flags: HMW
HStem: -10 130<181.5 311> 401 119<112 164 90 186 336 413> 650 20G<365 365>
LayerCount: 3
Back
SplineSet
348 126 m 1
 334 7 l 1
 312 -4 255 -10 236 -10 c 0
 127 -10 96 50 115 152 c 2
 164 401 l 1
 90 401 l 1
 112 520 l 1
 186 520 l 1
 206 627 l 1
 365 670 l 1
 336 520 l 1
 435 520 l 1
 413 401 l 1
 314 401 l 1
 274 197 l 2
 265 152 259 120 306 120 c 0
 316 120 331 121 348 126 c 1
EndSplineSet
Fore
SplineSet
235.064453125 -16.78515625 m 5
 124.3984375 26.853515625 l 5
 114 148 l 5
 164.09765625 401.077148438 l 5
 89.9267578125 401.077148438 l 5
 90.0146484375 520.000976562 l 5
 185.966796875 520.000976562 l 5
 216 681 l 5
 361.947265625 653.59375 l 5
 336.015625 520.000976562 l 5
 413.232421875 520.000976562 l 5
 412.9140625 401.077148438 l 5
 313.982421875 401.077148438 l 5
 273.752929688 194.262695312 l 5
 268.674804688 137.875976562 l 5
 306.322265625 115.865234375 l 5
 349.177734375 121.819335938 l 5
 365.497070312 8.5986328125 l 5
 235.064453125 -16.78515625 l 5
EndSplineSet
Validated: 1
Layer: 2
EndChar
StartChar: u
Encoding: 85 117 83
Width: 574
Flags: HMW
HStem: -15 126<153 316> 0 111<261 515 261 374> 500 20G<139 289 289 289 464 614 614 614>
LayerCount: 3
Back
SplineSet
464 520 m 1xa0
 614 520 l 1
 515 0 l 1
 374 0 l 1
 388 75 l 1
 337 11 287 -15 225 -15 c 0
 81 -15 54 77 78 201 c 2
 139 520 l 1
 289 520 l 1
 229 205 l 2
 217 145 232 111 290 111 c 0x60
 342 111 393 153 410 237 c 2
 464 520 l 1xa0
EndSplineSet
Fore
SplineSet
513.75 -15 m 5
 378.123046875 11.01953125 l 5
 389.37109375 71.15625 l 5
 310.506835938 0.837890625 l 5
 223.22265625 -20.509765625 l 5
 83.921875 42.22265625 l 5
 76.064453125 199.724609375 l 5
 140.25 535 l 5
 284.884765625 507.15234375 l 5
 227.134765625 203.883789062 l 5
 231.428710938 132.901367188 l 5
 289.291992188 107.888671875 l 5
 363.821289062 140.028320312 l 5
 411.565429688 236.45703125 l 5
 468.5 535.25 l 5
 613.283203125 507.666015625 l 5
 513.75 -15 l 5
EndSplineSet
Validated: 1
Layer: 2
EndChar
StartChar: v
Encoding: 86 118 84
Width: 555
Flags: HMW
HStem: 0 21G<203 335 203 203> 500 20G<90 242 242 242 495 645 645 645>
LayerCount: 3
Back
SplineSet
335 0 m 1
 203 0 l 1
 90 520 l 1
 242 520 l 1
 302 184 l 1
 495 520 l 1
 645 520 l 1
 335 0 l 1
EndSplineSet
Fore
SplineSet
326.25 -14.75 m 1
 195 63.2391304348 l 0
 188.25 67.25 l 1
 92.5 508.5 l 1
 239.25 535 l 1
 302 184 l 1
 503.5 535 l 1
 615.75 471 l 1
 326.25 -14.75 l 1
EndSplineSet
Validated: 1
Layer: 2
EndChar
StartChar: w
Encoding: 87 119 85
Width: 771
Flags: HMW
HStem: 0 21G<144 277 144 144 465 465 465 596> 500 20G<86 237 237 237 407 538 538 538 712 857 857 857>
VStem: 244 209 453 94
LayerCount: 3
Back
SplineSet
277 0 m 1
 144 0 l 1
 86 520 l 1
 237 520 l 1
 252 168 l 1
 407 520 l 1
 538 520 l 1
 557 179 l 1
 712 520 l 1
 857 520 l 1
 596 0 l 1
 465 0 l 1
 441 349 l 1
 277 0 l 1
EndSplineSet
Fore
SplineSet
270 -15 m 1
 139 46 l 1
 85.25 526.25 l 1
 236.25 535 l 1
 252 168 l 1
 413.5 535 l 1
 540.25 480.25 l 1
 557 179 l 1
 719 535 l 1
 837 480 l 5
 588.5 -14.75 l 1
 461.75 48 l 1
 441 349 l 1
 270 -15 l 1
EndSplineSet
Validated: 1
Layer: 2
EndChar
StartChar: x
Encoding: 88 120 86
Width: 575
Flags: HMW
HStem: 0 21G<10 182 10 10 377 377 377 550> 500 20G<121 297 297 297 466 635 635 635>
LayerCount: 3
Back
SplineSet
182 0 m 1
 10 0 l 1
 240 266 l 1
 121 520 l 1
 297 520 l 1
 353 372 l 1
 466 520 l 1
 635 520 l 1
 426 269 l 1
 550 0 l 1
 377 0 l 1
 309 160 l 1
 182 0 l 1
EndSplineSet
Fore
SplineSet
170 -15 m 1
 67 66 l 1
 240 266 l 1
 140.5 478.25 l 1
 291.25 535 l 1
 353 372 l 1
 477.5 535 l 1
 581.75 456 l 1
 426 269 l 1
 529 46 l 1
 383.5 -15 l 1
 309 160 l 1
 170 -15 l 1
EndSplineSet
Validated: 1
Layer: 2
EndChar
StartChar: y
Encoding: 89 121 87
Width: 556
Flags: HMW
HStem: -210 134<75.5 112.5 75.5 141.5> 500 20G<106 259 259 259 498 646 646 646>
LayerCount: 3
Back
SplineSet
10 -195 m 1
 25 -62 l 1
 41 -69 58 -76 93 -76 c 0
 132 -76 171 -62 201 -9 c 2
 209 5 l 1
 106 520 l 1
 259 520 l 1
 313 177 l 1
 498 520 l 1
 646 520 l 1
 337 -29 l 2
 270 -149 189 -210 94 -210 c 0
 57 -210 27 -202 10 -195 c 1
EndSplineSet
Fore
SplineSet
93.0244140625 -75.9580078125 m 1
 150.377929688 -62.31640625 l 1
 200.979492188 -8.8525390625 l 1
 208.983398438 5.1552734375 l 1
 153.513216221 283 l 0
 107.75 511.25 l 1
 256.584960938 535.000976562 l 1
 313.020507812 177.12890625 l 1
 506.002929688 535.000976562 l 1
 620 473.75 l 1
 336.946289062 -28.85546875 l 1
 224.990234375 -169.291992188 l 1
 93.0263671875 -214.759765625 l 1
 43.5400390625 -209.923828125 l 1
 -1 -197 l 1
 25.0048828125 -62 l 1
 93.0244140625 -75.9580078125 l 1
EndSplineSet
Validated: 1
Layer: 2
EndChar
StartChar: z
Encoding: 90 122 88
Width: 517
Flags: HMW
HStem: 0 125<53 53 229 444 30 53> 395 125<148 352 124 557 533 533>
LayerCount: 3
Back
SplineSet
444 0 m 1
 30 0 l 1
 53 125 l 1
 352 395 l 1
 124 395 l 1
 148 520 l 1
 557 520 l 1
 533 395 l 1
 229 125 l 1
 517 125 l 1
 444 0 l 1
EndSplineSet
Fore
SplineSet
444 0 m 1
 165.25 0 l 1
 53 125 l 1
 352 395 l 1
 124 395 l 1
 124 520 l 1
 422.25 520 l 1
 533 395 l 1
 229 125 l 1
 444 125 l 1
 444 0 l 1
EndSplineSet
Validated: 1
Layer: 2
EndChar
StartChar: braceleft
Encoding: 91 123 171
Width: 349
Flags: HMW
HStem: -110 129<164 322> 695 129<394 414 346 418 346 454>
LayerCount: 3
Back
SplineSet
477 814 m 1
 454 695 l 1
 418 695 l 2
 370 695 364 643 354 590 c 2
 328 457 l 2
 316 394 271 370 239 357 c 1
 266 344 302 320 289 257 c 2
 264 124 l 2
 253 71 238 19 286 19 c 2
 322 19 l 1
 299 -100 l 1
 287 -105 244 -110 220 -110 c 0
 108 -110 83 -34 103 72 c 2
 130 207 l 2
 143 274 112 297 77 297 c 1
 101 417 l 1
 136 417 175 440 188 507 c 2
 214 642 l 2
 235 748 290 824 402 824 c 0
 426 824 467 819 477 814 c 1
EndSplineSet
Fore
SplineSet
457.416992188 701.672851562 m 5
 420.598632812 701.672851562 l 5
 373.470703125 668.435546875 l 5
 355.295898438 594.698242188 l 5
 328.765625 458.994140625 l 5
 291.001953125 388.879882812 l 5
 238.123046875 357.038085938 l 5
 278.9375 325.1953125 l 5
 289.141601562 255.08984375 l 5
 263.6328125 119.385742188 l 5
 252.28125 45.5634765625 l 5
 286.081054688 12.2412109375 l 5
 322.899414062 12.2412109375 l 5
 299.430664062 -109.182617188 l 5
 263.760742188 -116.157226562 l 5
 218.90625 -119.303710938 l 5
 108.802734375 -67.076171875 l 5
 99.779296875 66.400390625 l 5
 127.159179688 204.059570312 l 5
 118.454101562 275.5859375 l 5
 73.080078125 295.895507812 l 5
 97.5693359375 418.170898438 l 5
 150.372070312 438.413085938 l 5
 186.340820312 509.998046875 l 5
 212.870117188 647.666015625 l 5
 273.932617188 780.963867188 l 5
 404.698242188 833.200195312 l 5
 448.19140625 829.967773438 l 5
 480.970703125 823.079101562 l 5
 457.416992188 701.672851562 l 5
EndSplineSet
Validated: 1
Layer: 2
EndChar
StartChar: bar
Encoding: 92 124 147
Width: 280
Flags: MW
HStem: -100 21G<120 280 120 120> 800 20G<120 280 280 280>
VStem: 120 160<-100 820>
LayerCount: 3
Back
SplineSet
280 -100 m 1
 120 -100 l 1
 120 820 l 1
 280 820 l 1
 280 -100 l 1
EndSplineSet
Fore
SplineSet
280 -100 m 1
 120 -100 l 1
 120 820 l 1
 280 820 l 1
 280 -100 l 1
EndSplineSet
Validated: 1
Layer: 2
EndChar
StartChar: braceright
Encoding: 93 125 170
Width: 349
Flags: HMW
HStem: -110 129<73 93 33 141> 695 129<165 323 165 323>
LayerCount: 3
Back
SplineSet
165 695 m 1
 188 814 l 1
 200 819 243 824 267 824 c 0
 379 824 404 748 383 642 c 2
 357 507 l 2
 344 440 375 417 410 417 c 1
 386 297 l 1
 351 297 312 274 299 207 c 2
 272 72 l 2
 252 -34 197 -110 85 -110 c 0
 61 -110 20 -105 10 -100 c 1
 33 19 l 1
 69 19 l 2
 117 19 122 71 133 124 c 2
 158 257 l 2
 171 320 215 344 248 357 c 1
 220 370 185 394 197 457 c 2
 223 590 l 2
 233 643 249 695 201 695 c 2
 165 695 l 1
EndSplineSet
Fore
SplineSet
29.5830078125 12.3271484375 m 5
 66.4013671875 12.3271484375 l 5
 113.529296875 45.564453125 l 5
 131.704101562 119.301757812 l 5
 158.234375 255.005859375 l 5
 195.998046875 325.120117188 l 5
 248.876953125 356.961914062 l 5
 208.0625 388.8046875 l 5
 197.858398438 458.91015625 l 5
 223.3671875 594.614257812 l 5
 234.71875 668.436523438 l 5
 200.918945312 701.758789062 l 5
 164.100585938 701.758789062 l 5
 187.569335938 823.182617188 l 5
 223.239257812 830.157226562 l 5
 268.09375 833.303710938 l 5
 378.197265625 781.076171875 l 5
 387.220703125 647.599609375 l 5
 359.840820312 509.940429688 l 5
 368.545898438 438.4140625 l 5
 413.919921875 418.104492188 l 5
 389.430664062 295.829101562 l 5
 336.627929688 275.586914062 l 5
 300.659179688 204.001953125 l 5
 274.129882812 66.333984375 l 5
 213.067382812 -66.9638671875 l 5
 82.3017578125 -119.200195312 l 5
 38.80859375 -115.967773438 l 5
 6.029296875 -109.079101562 l 5
 29.5830078125 12.3271484375 l 5
EndSplineSet
Validated: 1
Layer: 2
EndChar
StartChar: asciitilde
Encoding: 94 126 181
Width: 526
Flags: HMW
HStem: 242.701 142.8<401.865 433.995> 334.501 51 334.501 142.8<231.015 263.145>
LayerCount: 3
Back
SplineSet
81 265 m 1x40
 110 415 l 1
 156 455 209 475 257 475 c 0
 346 475 366 385 435 385 c 0x20
 493 385 538 415 584 455 c 1
 555 305 l 1
 509 265 456 245 408 245 c 0
 319 245 299 335 230 335 c 0x80
 172 335 127 305 81 265 c 1x40
EndSplineSet
Fore
SplineSet
8.6552734375 356.940429688 m 5
 179.814453125 461.926757812 l 5
 255.545898438 477.303710938 l 5
 353.967773438 431.39453125 l 5
 437.0859375 385.4765625 l 5
 517.651367188 405.853515625 l 5
 589.03515625 456.900390625 l 5
 655.844726562 363.315429688 l 5
 485.138671875 257.970703125 l 5
 409.450195312 242.620117188 l 5
 311.017578125 288.538085938 l 5
 227.826171875 334.456054688 l 5
 147.333984375 314.078125 l 5
 75.9619140625 263.032226562 l 5
 8.6552734375 356.940429688 l 5
EndSplineSet
Validated: 1
Layer: 2
EndChar
StartChar: exclamdown
Encoding: 95 161 287
Width: 259
Flags: HMW
HStem: -200 21G<11 170 11 11> 370 150<155 276 125 306>
LayerCount: 3
Back
SplineSet
127 292 m 1
 243 292 l 1
 170 -200 l 1
 11 -200 l 1
 127 292 l 1
155 520 m 1
 306 520 l 1
 276 370 l 1
 125 370 l 1
 155 520 l 1
EndSplineSet
Fore
SplineSet
190.5 525.5 m 1
 269.2421875 509.797851562 l 1
 301.530273438 466.303710938 l 1
 286.802734375 392.181640625 l 1
 240.34765625 364.318359375 l 1
 161.604492188 380.021484375 l 1
 129.31640625 423.514648438 l 1
 144.043945312 497.63671875 l 1
 190.5 525.5 l 1
131 310 m 1
 244.25 292 l 1
 170.75 -197 l 1
 16 -174 l 1
 131 310 l 1
EndSplineSet
Validated: 1
Layer: 2
EndChar
StartChar: cent
Encoding: 96 162 286
Width: 540
Flags: HMW
HStem: -115 21G<203 203 203 278> 615 20G<349 424 424 424>
LayerCount: 3
Back
SplineSet
203 -115 m 1
 223 -12 l 1
 110 3 35 87 68 260 c 0
 101 433 210 517 329 532 c 1
 349 635 l 1
 424 635 l 1
 404 533 l 1
 511 522 598 460 560 312 c 1
 410 312 l 1
 420 355 410 390 379 403 c 1
 323 115 l 1
 354 126 379 151 396 196 c 1
 540 175 l 1
 490 50 397 -3 298 -13 c 1
 278 -115 l 1
 203 -115 l 1
218 260 m 0
 204 185 214 137 248 118 c 1
 303 401 l 1
 262 382 231 334 218 260 c 0
EndSplineSet
Fore
SplineSet
222 -18 m 1
 86.3359375 60.7060546875 l 1
 63.1328125 259.779296875 l 1
 163.341796875 458.938476562 l 1
 330 538 l 1
 350.25 642 l 1
 422.75 628 l 1
 405.25 538.75 l 1
 540.768554688 477.888671875 l 1
 564.895507812 312.926757812 l 1
 411.840820312 312.926757812 l 1
 411.756835938 370.811523438 l 1
 380 407 l 1
 322 111 l 1
 365.776367188 140.354492188 l 1
 397.587890625 194.734375 l 1
 510.859375 128.422851562 l 1
 439.869140625 33.3544921875 l 1
 297 -19 l 1
 276.5 -122.5 l 1
 204.334960938 -108.211914062 l 1
 222 -18 l 1
247 114 m 1
 304 405 l 1
 248.721679688 352.763671875 l 1
 215.932617188 259.950195312 l 1
 212.990234375 166.065429688 l 1
 247 114 l 1
EndSplineSet
Validated: 1
Layer: 2
EndChar
StartChar: currency
Encoding: 97 164 191
Width: 596
Flags: HMW
HStem: 97 21G<147 147 487 487> 138 134<329 343.5> 448 134<393.5 408> 604 20G<250 250 590 590>
LayerCount: 3
Back
SplineSet
487 97 m 1
 433 164 l 1
 400 147 362 138 325 138 c 0
 287 138 254 147 226 164 c 1
 147 97 l 1
 72 190 l 1
 157 262 l 1
 150 290 150 323 157 360 c 0
 165 397 178 429 196 458 c 1
 139 531 l 1
 250 624 l 1
 304 556 l 1
 337 573 375 582 412 582 c 0
 449 582 482 573 510 556 c 1
 590 624 l 1
 665 531 l 1
 579 458 l 1
 586 429 587 397 579 360 c 0
 572 323 559 290 541 262 c 1
 598 190 l 1
 487 97 l 1
289 360 m 0
 278 301 307 272 351 272 c 0
 395 272 436 301 447 360 c 0
 459 419 430 448 386 448 c 0
 345 448 301 419 289 360 c 0
EndSplineSet
Fore
SplineSet
436 160 m 1
 324.116210938 133.706054688 l 1
 222 161 l 1
 147 97 l 1
 72 190 l 1
 152 258 l 1
 152.864257812 359.9609375 l 1
 193 462 l 1
 139 531 l 1
 250 624 l 1
 301 560 l 1
 412.63671875 586.498046875 l 1
 514.75 560 l 1
 590 624 l 1
 665 531 l 1
 583 461.5 l 1
 583.203125 359.9609375 l 1
 544 258 l 1
 598 190 l 1
 487 97 l 1
 436 160 l 1
350.64453125 270.362304688 m 1
 412.239257812 292.755859375 l 1
 448.515625 360.234375 l 1
 438.83203125 427.634765625 l 1
 386.358398438 449.943359375 l 1
 325.805664062 427.634765625 l 1
 287.381835938 360.234375 l 1
 297.969726562 292.662109375 l 1
 350.64453125 270.362304688 l 1
EndSplineSet
Validated: 1
Layer: 2
EndChar
StartChar: yen
Encoding: 98 165 286
Width: 705
Flags: HMW
HStem: 0 183<272 307 157 433 272 272> 108 75<157 292 142 307 468 603> 228 75<180 316 166 324 497 627> 700 20G<149 324 324 324 664 834 834 834>
LayerCount: 3
Back
SplineSet
433 0 m 1x70
 272 0 l 1
 292 108 l 1xb0
 142 108 l 1
 157 183 l 1
 307 183 l 1
 316 228 l 1
 166 228 l 1
 180 303 l 1
 324 303 l 1
 149 720 l 1
 324 720 l 1
 443 443 l 1
 664 720 l 1
 834 720 l 1
 497 303 l 1
 641 303 l 1
 627 228 l 1
 477 228 l 1
 468 183 l 1
 618 183 l 1
 603 108 l 1
 453 108 l 1
 433 0 l 1x70
EndSplineSet
Fore
SplineSet
274.75 14.25 m 1
 291.866210938 107.953125 l 1
 141.896484375 107.953125 l 1
 141.901367188 182.8125 l 1
 306.872070312 182.8125 l 1
 315.875 227.9140625 l 1
 165.905273438 227.9140625 l 1
 164.91015625 302.7734375 l 1
 323.877929688 302.7734375 l 1
 168 672 l 1
 317 735 l 1
 442.919921875 442.8203125 l 1
 675 735 l 1
 779 653 l 1
 496.85546875 302.7734375 l 1
 626.823242188 302.7734375 l 1
 626.819335938 227.9140625 l 1
 476.848632812 227.9140625 l 1
 468.012695312 182.8125 l 1
 602.982421875 182.8125 l 1
 602.893554688 107.953125 l 1
 452.83984375 107.953125 l 1
 430.25 -14.75 l 1
 274.75 14.25 l 1
EndSplineSet
Validated: 1
Layer: 2
SplineSet
430.25 -14.75 m 5
 275 14.75 l 5
 327 293 l 5
 168 672 l 5
 316.75 735 l 5
 441 443 l 5
 675 735 l 5
 779 653 l 5
 488 293 l 5
 430.25 -14.75 l 5
EndSplineSet
EndChar
StartChar: brokenbar
Encoding: 99 166 148
Width: 280
Flags: MW
HStem: -100 21G<120 280 120 120> 800 20G<120 280 280 280>
VStem: 120 160<-100 325 410 820>
LayerCount: 3
Back
SplineSet
280 -100 m 1
 120 -100 l 1
 120 325 l 1
 280 325 l 1
 280 -100 l 1
120 410 m 1
 120 820 l 1
 280 820 l 1
 280 410 l 1
 120 410 l 1
EndSplineSet
Fore
SplineSet
280 -100 m 1
 120 -100 l 1
 120 325 l 1
 280 325 l 1
 280 -100 l 1
120 410 m 1
 120 820 l 1
 280 820 l 1
 280 410 l 1
 120 410 l 1
EndSplineSet
Validated: 1
Layer: 2
EndChar
StartChar: section
Encoding: 100 167 190
Width: 533
Flags: HMW
HStem: -22.5026 117.3<255.667 315.337 255.667 327.067> 625.197 117.3<352.058 404.077>
LayerCount: 3
Back
SplineSet
64 150 m 1
 213 163 l 1
 212 118 224 100 290 100 c 0
 341 100 370 115 375 143 c 0
 381 170 359 172 309 188 c 2
 190 227 l 2
 140 243 94 280 109 356 c 0
 122 423 168 446 190 462 c 1
 151 484 143 534 152 581 c 0
 174 690 296 735 403 735 c 0
 547 735 601 674 591 585 c 1
 443 573 l 1
 440 600 426 620 379 620 c 0
 324 620 304 608 299 586 c 0
 295 561 315 555 345 546 c 2
 463 509 l 2
 532 488 585 449 568 362 c 0
 560 319 520 276 493 260 c 1
 527 236 535 191 525 143 c 0
 503 28 389 -15 265 -15 c 0
 118 -15 51 45 64 150 c 1
259 379 m 0
 254 354 265 339 285 333 c 0
 333 319 368 308 370 308 c 0
 392 315 411 325 416 350 c 0
 421 377 408 391 383 398 c 2
 302 421 l 1
 288 420 265 407 259 379 c 0
EndSplineSet
Fore
SplineSet
210.619140625 159.174804688 m 1
 224.265625 109.778320312 l 1
 289.1875 94.8857421875 l 1
 350.088867188 106.11328125 l 1
 375.916992188 138.762695312 l 1
 363.68359375 165.919921875 l 1
 187.150390625 224.474609375 l 1
 121.028320312 267.313476562 l 1
 104.5859375 356.01171875 l 1
 142.392578125 429.629882812 l 1
 187.150390625 464.091796875 l 1
 149.470703125 515.180664062 l 1
 148.461914062 585.345703125 l 1
 244.014648438 705.732421875 l 1
 404.48828125 742.643554688 l 1
 559.28515625 700.1796875 l 1
 580.02734375 638.45703125 l 1
 445.387695312 577.2578125 l 1
 429.571289062 611.56640625 l 1
 380.084960938 625.216796875 l 1
 320.137695312 616.251953125 l 1
 298.455078125 590.517578125 l 1
 308.881835938 564.067382812 l 1
 465.709960938 512.119140625 l 1
 552.185546875 462.34765625 l 1
 572.84765625 362.126953125 l 1
 541.842773438 299.77734375 l 1
 496.490234375 257.967773438 l 1
 529.556640625 207.576171875 l 1
 529.139648438 138.75390625 l 1
 435.479492188 14.2177734375 l 1
 264.015625 -22.37890625 l 1
 100.290039062 21.58203125 l 1
 67.22265625 120.041992188 l 1
 210.619140625 159.174804688 l 1
283.999023438 332.546875 m 1
 370.73046875 306.989257812 l 1
 400.704101562 321.499023438 l 1
 417.666992188 349.845703125 l 1
 412.341796875 381.986328125 l 1
 383.995117188 398.817382812 l 1
 301.346679688 422.03515625 l 1
 276.336914062 410.961914062 l 1
 257.384765625 379.349609375 l 1
 261.189453125 348.697265625 l 1
 283.999023438 332.546875 l 1
EndSplineSet
Validated: 1
Layer: 2
EndChar
StartChar: copyright
Encoding: 101 169 176
Width: 590
Flags: HMW
HStem: -15 94<298.5 403.5 298.5 427> 126 80<338 361 338 381> 312 82<338 361> 441 94<298.5 403.5>
VStem: 91 98<210 309.5 210 341> 234 75<244 275 244 295.5> 513 98<210 309.5>
LayerCount: 3
Back
SplineSet
85 260 m 0
 85 422 193 535 345 535 c 0
 497 535 605 422 605 260 c 0
 605 98 497 -15 345 -15 c 0
 193 -15 85 98 85 260 c 0
183 260 m 0
 183 160 240 79 345 79 c 0
 450 79 507 160 507 260 c 0
 507 359 450 441 345 441 c 0
 240 441 183 359 183 260 c 0
303 260 m 0
 303 228 319 206 345 206 c 0
 365 206 379 218 384 238 c 1
 456 217 l 1
 444 156 405 126 345 126 c 0
 269 126 228 189 228 260 c 0
 228 331 269 394 345 394 c 0
 405 394 444 364 456 303 c 1
 384 282 l 1
 379 301 365 312 345 312 c 0
 319 312 303 290 303 260 c 0
EndSplineSet
Fore
SplineSet
345.043945312 534.782226562 m 1
 531.995117188 458.080078125 l 1
 604.969726562 259.765625 l 1
 531.995117188 61.66015625 l 1
 345.043945312 -15.083984375 l 1
 158.165039062 61.6025390625 l 1
 85.201171875 259.765625 l 1
 158.133789062 458.012695312 l 1
 345.043945312 534.782226562 l 1
345.043945312 78.8701171875 m 1
 465.451171875 131.833984375 l 1
 507.017578125 259.765625 l 1
 465.388671875 387.463867188 l 1
 345.043945312 440.828125 l 1
 224.740234375 387.498046875 l 1
 183.15234375 259.765625 l 1
 224.740234375 131.833984375 l 1
 345.043945312 78.8701171875 l 1
345.043945312 205.91015625 m 1
 370.1875 214.45703125 l 1
 384.140625 238.01171875 l 1
 447.25 200.5 l 1
 418.559570312 148.518554688 l 1
 345.043945312 125.796875 l 1
 258.126953125 166.237304688 l 1
 228.168945312 259.765625 l 1
 258.126953125 353.377929688 l 1
 345.043945312 393.7265625 l 1
 418.590820312 371.12109375 l 1
 446.25 320.75 l 5
 384.140625 281.686523438 l 1
 370.1875 303.81640625 l 1
 345.043945312 311.654296875 l 1
 314.282226562 296.904296875 l 1
 303.028320312 259.715820312 l 1
 314.313476562 220.885742188 l 1
 345.043945312 205.91015625 l 1
EndSplineSet
Validated: 1
Layer: 2
EndChar
StartChar: guillemotleft
Encoding: 102 171 162
Width: 471
Flags: HMW
HStem: 94 21G<153 279 153 153 343 469 343 343> 412 20G<218 344 344 344 408 534 534 534>
LayerCount: 3
Back
SplineSet
261 263 m 1
 408 432 l 1
 534 432 l 1
 408 263 l 1
 469 94 l 1
 343 94 l 1
 261 263 l 1
71 263 m 1
 218 432 l 1
 344 432 l 1
 218 263 l 1
 279 94 l 1
 153 94 l 1
 71 263 l 1
EndSplineSet
Fore
SplineSet
261 263 m 5
 458.25 490 l 5
 534 432 l 5
 408 263 l 5
 469 94 l 5
 362 55 l 5
 261 263 l 5
71 263 m 5
 268.25 490 l 5
 344 432 l 5
 218 263 l 5
 279 94 l 5
 172 55 l 5
 71 263 l 5
EndSplineSet
Validated: 1
Layer: 2
EndChar
StartChar: registered
Encoding: 103 174 177
Width: 590
Flags: HMW
HStem: -15 94<292.5 397.5 292.5 421> 137 154<242 337 242 337 318 382 318 466> 441 94<292.5 397.5>
VStem: 85 98<210 309.5 210 341> 242 76<137 223 137 291 291 328> 370 78<304 317> 507 98<210 309.5>
LayerCount: 3
Back
SplineSet
80.3330078125 260 m 0
 80.3330078125 422 188.333007812 535 340.333007812 535 c 0
 492.333007812 535 600.333007812 422 600.333007812 260 c 0
 600.333007812 98 492.333007812 -15 340.333007812 -15 c 0
 188.333007812 -15 80.3330078125 98 80.3330078125 260 c 0
237.333007812 137 m 1
 237.333007812 397 l 1
 333.333007812 397 l 2
 385.333007812 397 443.333007812 380 443.333007812 321 c 0
 443.333007812 281 416.333007812 259 382.333007812 254 c 1
 410.333007812 247 428.333007812 222 437.333007812 198 c 2
 461.333007812 137 l 1
 377.333007812 137 l 1
 364.333007812 181 l 2
 352.333007812 220 337.333007812 223 320.333007812 223 c 2
 313.333007812 223 l 1
 313.333007812 137 l 1
 237.333007812 137 l 1
313.333007812 328 m 1
 313.333007812 291 l 1
 332.333007812 291 l 2
 358.333007812 291 365.333007812 297 365.333007812 311 c 0
 365.333007812 323 355.333007812 328 331.333007812 328 c 2
 313.333007812 328 l 1
178.333007812 260 m 0
 178.333007812 160 235.333007812 79 340.333007812 79 c 0
 445.333007812 79 502.333007812 160 502.333007812 260 c 0
 502.333007812 359 445.333007812 441 340.333007812 441 c 0
 235.333007812 441 178.333007812 359 178.333007812 260 c 0
EndSplineSet
Fore
SplineSet
340.842773438 540.235351562 m 1
 531.534179688 461.999023438 l 1
 605.966796875 259.717773438 l 1
 531.534179688 57.650390625 l 1
 340.842773438 -20.62890625 l 1
 150.151367188 57.591796875 l 1
 75.71875 259.717773438 l 1
 150.151367188 461.9296875 l 1
 340.842773438 540.235351562 l 1
340.842773438 75.205078125 m 1
 463.625976562 129.227539062 l 1
 506.056640625 259.717773438 l 1
 463.5625 389.970703125 l 1
 340.842773438 444.401367188 l 1
 218.123046875 390.004882812 l 1
 175.62890625 259.717773438 l 1
 218.059570312 129.227539062 l 1
 340.842773438 75.205078125 l 1
320.3515625 222.041992188 m 2
 313.208007812 222.041992188 l 1
 313.208007812 134.543945312 l 1
 235.74609375 134.543945312 l 1
 235.74609375 399.58203125 l 1
 235.74609375 399.58203125 l 1
 284.6796875 399.58984375 l 1
 333.615234375 399.58984375 l 1
 409.588867188 383.421875 l 1
 445.770507812 322.04296875 l 1
 427.668945312 274.55078125 l 1
 383.61328125 253.594726562 l 1
 418.932617188 231.583984375 l 1
 439.6484375 196.629882812 l 1
 455.243164062 157.239257812 l 1
 378.426757812 134.551757812 l 1
 365.247070312 179.193359375 l 1
 344.6484375 215.578125 l 1
 320.3515625 222.041992188 l 2
331.744140625 329.110351562 m 2
 313.377929688 329.110351562 l 1
 313.29296875 291.44140625 l 1
 313.29296875 291.44140625 l 1
 332.764648438 291.432617188 l 1
 359.549804688 296.280273438 l 1
 366.436523438 311.69140625 l 1
 358.2734375 325.02734375 l 1
 331.744140625 329.110351562 l 2
EndSplineSet
Validated: 5
Layer: 2
EndChar
StartChar: degree
Encoding: 104 176 175
Width: 366
Flags: HMW
HStem: 449 93<279.5 306.5 279.5 332.5> 640 95<279.5 306.5>
VStem: 150 93<578 605 578 631> 341 95<578 605>
LayerCount: 3
Back
SplineSet
150 592 m 0
 150 670 215 735 293 735 c 0
 372 735 436 670 436 592 c 0
 436 513 372 449 293 449 c 0
 215 449 150 513 150 592 c 0
243 592 m 0
 243 564 266 542 293 542 c 0
 320 542 341 564 341 592 c 0
 341 618 320 640 293 640 c 0
 266 640 243 618 243 592 c 0
EndSplineSet
Fore
SplineSet
292.948242188 738.077148438 m 5
 396.1328125 695.0078125 l 5
 438.860351562 592.251953125 l 5
 396.1328125 489.0625 l 5
 292.948242188 446.256835938 l 5
 190.157226562 489.0625 l 5
 147.12109375 592.251953125 l 5
 190.189453125 695.0078125 l 5
 292.948242188 738.077148438 l 5
292.948242188 541.32421875 m 5
 327.767578125 556.18359375 l 5
 341.92578125 592.336914062 l 5
 327.767578125 626.782226562 l 5
 292.948242188 641.31640625 l 5
 257.096679688 626.782226562 l 5
 241.844726562 592.336914062 l 5
 257.12890625 556.114257812 l 5
 292.948242188 541.32421875 l 5
EndSplineSet
Validated: 1
Layer: 2
EndChar
StartChar: plusminus
Encoding: 105 177 180
Width: 596
Flags: HMW
HStem: 55 135<96 546 70 572> 385 135<161 304 134 331 466 610 161 439> 660 20G<362 497 497 497>
LayerCount: 3
Back
SplineSet
439 385 m 1
 414 254 l 1
 279 254 l 1
 304 385 l 1
 134 385 l 1
 161 520 l 1
 331 520 l 1
 362 680 l 1
 497 680 l 1
 466 520 l 1
 637 520 l 1
 610 385 l 1
 439 385 l 1
546 55 m 1
 70 55 l 1
 96 190 l 1
 572 190 l 1
 546 55 l 1
EndSplineSet
Fore
SplineSet
439 385 m 1
 409 229 l 1
 279 254 l 1
 304 385 l 1
 134 385 l 1
 134 520 l 1
 331 520 l 1
 367 705 l 1
 497 680 l 1
 466 520 l 1
 610 520 l 1
 610 385 l 1
 439 385 l 1
572.25 55 m 1
 70 55 l 1
 69.75 190 l 1
 572 190 l 1
 572.25 55 l 1
EndSplineSet
Validated: 1
Layer: 2
EndChar
StartChar: paragraph
Encoding: 106 182 186
Width: 636
Flags: HMW
HStem: -100 21G<191 271 191 191 360 360 360 523> 735 85<433 522 433 433 685 766 685 685>
LayerCount: 3
Back
SplineSet
271 -100 m 1
 191 -100 l 1
 291 416 l 1
 175 419 109 498 132 614 c 0
 159 753 269 820 403 820 c 2
 783 820 l 1
 766 735 l 1
 685 735 l 1
 523 -100 l 1
 360 -100 l 1
 522 735 l 1
 433 735 l 1
 271 -100 l 1
EndSplineSet
Fore
SplineSet
194 -85 m 1
 290.916992188 416.021484375 l 1
 151.787109375 472.62890625 l 1
 124.444335938 614.009765625 l 1
 219.86328125 769.149414062 l 1
 402.874023438 819.995117188 l 1
 765.92578125 819.995117188 l 1
 765.919921875 734.962890625 l 1
 684.974609375 734.962890625 l 1
 523 -100 l 1
 363.060546875 -85.1669921875 l 1
 522 734.962890625 l 1
 433.051757812 734.962890625 l 1
 271.077148438 -100 l 1
 194.041992188 -85.1669921875 l 1
 194 -85 l 1
EndSplineSet
Validated: 1
Layer: 2
EndChar
StartChar: periodcentered
Encoding: 107 183 137
Width: 251
Flags: HMW
HStem: 187 150<115 237 86 266>
LayerCount: 3
Back
SplineSet
237 187 m 1
 86 187 l 1
 115 337 l 1
 266 337 l 1
 237 187 l 1
EndSplineSet
Fore
SplineSet
150.721679688 342.61328125 m 1
 229.463867188 326.911132812 l 1
 261.751953125 283.416992188 l 1
 247.024414062 209.294921875 l 1
 200.569335938 181.431640625 l 1
 121.826171875 197.134765625 l 1
 89.5380859375 240.627929688 l 1
 104.265625 314.75 l 1
 150.721679688 342.61328125 l 1
EndSplineSet
Validated: 1
Layer: 2
EndChar
StartChar: guillemotright
Encoding: 108 187 161
Width: 471
Flags: HMW
HStem: 94 21G<38 164 38 38 228 228 228 354> 412 20G<103 229 229 229 293 419 419 419>
LayerCount: 3
Back
SplineSet
229 432 m 1
 312 263 l 1
 164 94 l 1
 38 94 l 1
 165 263 l 1
 103 432 l 1
 229 432 l 1
419 432 m 1
 502 263 l 1
 354 94 l 1
 228 94 l 1
 355 263 l 1
 293 432 l 1
 419 432 l 1
EndSplineSet
Fore
SplineSet
311 263 m 1
 113.75 36 l 1
 38 94 l 1
 164 263 l 1
 103 432 l 1
 210 471 l 1
 311 263 l 1
501 263 m 1
 303.75 36 l 1
 228 94 l 1
 354 263 l 1
 293 432 l 1
 400 471 l 1
 501 263 l 1
EndSplineSet
Validated: 1
Layer: 2
EndChar
StartChar: questiondown
Encoding: 109 191 285
Width: 596
Flags: HMW
HStem: -215 140<257 303 257 317> 370 150<321 442 291 472>
LayerCount: 3
Back
SplineSet
285 312 m 1
 430 312 l 1
 421 267 l 2
 406 186 365 136 296 92 c 0
 243 58 220 34 212 -7 c 0
 204 -51 231 -75 283 -75 c 0
 323 -75 374 -41 387 26 c 1
 527 -4 l 1
 489 -136 377 -215 257 -215 c 0
 119 -215 32 -136 56 -13 c 0
 75 85 140 124 205 175 c 0
 246 208 265 220 278 277 c 2
 285 312 l 1
321 520 m 1
 472 520 l 1
 442 370 l 1
 291 370 l 1
 321 520 l 1
EndSplineSet
Fore
SplineSet
356.75 525.25 m 1
 435.4921875 509.547851562 l 1
 467.780273438 466.053710938 l 1
 453.052734375 391.931640625 l 1
 406.59765625 364.068359375 l 1
 327.854492188 379.771484375 l 1
 295.56640625 423.264648438 l 1
 310.293945312 497.38671875 l 1
 356.75 525.25 l 1
428.21484375 290.106445312 m 1
 424.51953125 271.362304688 l 1
 381.451171875 168.044921875 l 1
 297.05859375 92.97265625 l 1
 236.984375 45.107421875 l 1
 211.34765625 -8.0390625 l 1
 224.654296875 -59.60546875 l 1
 283.87890625 -77.431640625 l 1
 346.715820312 -51.55078125 l 1
 388.891601562 25.5458984375 l 1
 532.592773438 -4.986328125 l 1
 426.2734375 -163.0078125 l 1
 257.265625 -220.024414062 l 1
 92.837890625 -164.147460938 l 1
 52.2568359375 -14.0791015625 l 1
 110.56640625 99.8447265625 l 1
 252.00390625 220.529296875 l 1
 278.692382812 281.73828125 l 1
 285.836914062 317.450195312 l 1
 428.213867188 290.361328125 l 1
 428.21484375 290.106445312 l 1
EndSplineSet
Validated: 1
Layer: 2
EndChar
StartChar: Agrave
Encoding: 110 192 284
Width: 730
Flags: HMW
HStem: 0 21G<10 173 10 10 555 720 555 555> 130 132<319 509 319 531 244 509> 700 20G<434 578 578 578> 803 187<463 532 360 588 463 463>
LayerCount: 3
Back
SplineSet
434 720 m 1
 578 720 l 1
 720 0 l 1
 555 0 l 1
 531 130 l 1
 244 130 l 1
 173 0 l 1
 10 0 l 1
 434 720 l 1
463 521 m 1
 319 262 l 1
 509 262 l 1
 463 521 l 1
532 990 m 1
 588 803 l 1
 463 803 l 1
 360 990 l 1
 532 990 l 1
EndSplineSet
Fore
SplineSet
506 1012 m 5
 581.25 826 l 5
 482 785 l 5
 385.25 932 l 5
 506 1012 l 5
EndSplineSet
Refer: 89 65 N 1 0 0 1 0 0 3
Validated: 1
Layer: 2
EndChar
StartChar: Acircumflex
Encoding: 112 194 282
Width: 730
Flags: HMW
HStem: 0 21G<10 173 10 10 555 720 555 555> 130 132<319 509 319 531 244 509> 700 20G<434 578 578 578> 770 210<281 618 281 618 595 618 481 736 595 595>
LayerCount: 3
Back
SplineSet
481 980 m 5
 618 980 l 5
 719 731 l 5
 604.25 683.75 l 5
 531.75 889.75 l 5
 364.75 666.5 l 5
 284 730 l 5
 481 980 l 5
434 720 m 1
 578 720 l 1
 720 0 l 1
 555 0 l 1
 531 130 l 1
 244 130 l 1
 173 0 l 1
 10 0 l 1
 434 720 l 1
463 521 m 1
 319 262 l 1
 509 262 l 1
 463 521 l 1
481 980 m 1
 618 980 l 1
 736 770 l 1
 595 770 l 1
 532 891 l 1
 419 770 l 1
 281 770 l 1
 481 980 l 1
EndSplineSet
Refer: 89 65 N 1 0 0 1 0 0 3
Fore
SplineSet
481 980 m 5
 618 980 l 5
 685 814.25 l 5
 574 769 l 5
 531.75 889.75 l 5
 428 751 l 5
 349.5 813 l 5
 481 980 l 5
EndSplineSet
Refer: 89 65 N 1 0 0 1 0 0 3
Validated: 1
Layer: 2
EndChar
StartChar: Atilde
Encoding: 113 195 280
Width: 730
Flags: HMW
HStem: 0 21G<10 173 10 10 555 720 555 555> 130 132<319 509 319 531 244 509> 700 20G<434 578 578 578> 795 130<608.5 612> 845 130<453 466.5>
LayerCount: 3
Back
SplineSet
434 720 m 1xe8
 578 720 l 1
 720 0 l 1xf0
 555 0 l 1xe8
 531 130 l 1
 244 130 l 1xf0
 173 0 l 1xe8
 10 0 l 1xf0
 434 720 l 1xe8
463 521 m 1
 319 262 l 1
 509 262 l 1
 463 521 l 1
327 795 m 1
 354 935 l 1
 388 965 439 975 467 975 c 0
 536 975 584 925 633 925 c 0
 661 925 712 935 748 975 c 1
 721 835 l 1
 687 805 626 795 598 795 c 0
 529 795 491 845 442 845 c 0
 414 845 363 835 327 795 c 1
EndSplineSet
Fore
SplineSet
284.51953125 880.920898438 m 5
 425.0625 962.735351562 l 5
 475.262695312 971.658203125 l 5
 557.328125 946.151367188 l 5
 624.151367188 920.645507812 l 5
 674.595703125 930.81640625 l 5
 731.288085938 971.658203125 l 5
 792.48046875 886.020507812 l 5
 645.88671875 807.241210938 l 5
 590.649414062 798.28515625 l 5
 513.611328125 823.791992188 l 5
 451.87890625 849.297851562 l 5
 401.446289062 839.126953125 l 5
 344.826171875 798.28515625 l 5
 284.51953125 880.920898438 l 5
EndSplineSet
Refer: 89 65 N 1 0 0 1 0 0 3
Validated: 1
Layer: 2
EndChar
StartChar: Adieresis
Encoding: 114 196 279
Width: 730
Flags: HMW
HStem: 0 21G<10 173 10 10 555 720 555 555> 130 132<319 509 319 531 244 509> 700 20G<434 578 578 578> 780 140<339 464 313 490 339 554 580 705>
LayerCount: 3
Back
SplineSet
434 720 m 1
 578 720 l 1
 720 0 l 1
 555 0 l 1
 531 130 l 1
 244 130 l 1
 173 0 l 1
 10 0 l 1
 434 720 l 1
463 521 m 1
 319 262 l 1
 509 262 l 1
 463 521 l 1
464 780 m 1
 313 780 l 1
 339 920 l 1
 490 920 l 1
 464 780 l 1
705 780 m 1
 554 780 l 1
 580 920 l 1
 731 920 l 1
 705 780 l 1
EndSplineSet
Fore
SplineSet
617.93359375 931 m 5
 696.67578125 915.297851562 l 5
 728.963867188 871.803710938 l 5
 714.236328125 797.681640625 l 5
 667.78125 769.818359375 l 5
 589.038085938 785.521484375 l 5
 556.75 829.014648438 l 5
 571.477539062 903.13671875 l 5
 617.93359375 931 l 5
376.5 931 m 5
 455.2421875 915.297851562 l 5
 487.530273438 871.803710938 l 5
 472.802734375 797.681640625 l 5
 426.34765625 769.818359375 l 5
 347.604492188 785.521484375 l 5
 315.31640625 829.014648438 l 5
 330.043945312 903.13671875 l 5
 376.5 931 l 5
434 720 m 1
 578 720 l 1
 720 0 l 1
 555 0 l 1
 531 130 l 1
 244 130 l 1
 173 0 l 1
 10 0 l 1
 434 720 l 1
463 521 m 1
 319 262 l 1
 509 262 l 1
 463 521 l 1
EndSplineSet
Validated: 1
Layer: 2
EndChar
StartChar: Aring
Encoding: 115 197 278
Width: 730
Flags: HMW
HStem: 0 21G<10 173 173 173 555 720 720 720> 130 132<319 319 319 509> 700 20G<434 578 434 434> 749 93<516.5 543.5 516.5 551.5> 842 98<535.5 543.5> 940 95<535.5 562.5>
LayerCount: 3
Back
SplineSet
578 720 m 1
 434 720 l 1
 10 0 l 1
 173 0 l 1
 244 130 l 1
 531 130 l 1
 555 0 l 1
 720 0 l 1
 578 720 l 1
319 262 m 1
 463 521 l 1
 509 262 l 1
 319 262 l 1
397 892 m 0
 412 970 490 1035 568 1035 c 0
 647 1035 698 970 683 892 c 0
 668 813 591 749 512 749 c 0
 434 749 382 813 397 892 c 0
490 892 m 0
 484 864 503 842 530 842 c 0
 557 842 582 864 588 892 c 0
 593 918 576 940 549 940 c 0
 522 940 495 918 490 892 c 0
EndSplineSet
Fore
Refer: 175 176 N 1 0 0 1 246.762 299.717 2
Refer: 89 65 N 1 0 0 1 0 0 3
Validated: 1
Layer: 2
EndChar
StartChar: AE
Encoding: 116 198 278
Width: 1074
Flags: MW
HStem: 0 145<665 1014> 125 145<396 501 280 529> 295 145<722 1011 694 1039> 575 145<748 1115 748 748>
LayerCount: 3
Back
SplineSet
180 0 m 1x70
 10 0 l 1
 606 720 l 1
 1143 720 l 1
 1115 575 l 1xb0
 748 575 l 1x70
 722 440 l 1
 1039 440 l 1xb0
 1011 295 l 1
 694 295 l 1
 665 145 l 1
 1042 145 l 1
 1014 0 l 1
 477 0 l 1
 501 125 l 1
 280 125 l 1
 180 0 l 1x70
529 270 m 1
 572 490 l 1
 396 270 l 1
 529 270 l 1
EndSplineSet
Fore
SplineSet
180 0 m 1x70
 10 0 l 1
 606 720 l 1
 1143 720 l 1
 1115 575 l 1xb0
 748 575 l 1x70
 722 440 l 1
 1039 440 l 1xb0
 1011 295 l 1
 694 295 l 1
 665 145 l 1
 1042 145 l 1
 1014 0 l 1
 477 0 l 1
 501 125 l 1
 280 125 l 1
 180 0 l 1x70
529 270 m 1
 572 490 l 1
 396 270 l 1
 529 270 l 1
EndSplineSet
Validated: 1
Layer: 2
EndChar
StartChar: Ccedilla
Encoding: 117 199 276
Width: 741
Flags: HMW
HStem: -242 57<341.5 358 341.5 362> -99 55<366 373> -15 140<379 384 379 379> 595 140<452 546>
LayerCount: 3
Back
SplineSet
384 -142 m 0
 389 -114 381 -99 365 -99 c 0
 350 -99 340 -106 333 -124 c 1
 277 -112 l 1
 326 -11 l 1
 147 14 70 163 109 360 c 0
 150 577 314 735 534 735 c 0
 697 735 827 643 799 479 c 1
 634 479 l 1
 640 559 585 595 507 595 c 0
 397 595 302 507 274 360 c 0
 245 213 301 125 411 125 c 0
 489 125 550 165 591 250 c 1
 740 206 l 1
 669 68 557 -15 384 -15 c 2
 379 -15 l 1
 366 -44 l 1
 377 -44 l 2
 425 -44 461 -72 447 -142 c 0
 433 -212 386 -242 338 -242 c 0
 297 -242 265 -222 265 -173 c 1
 326 -160 l 1
 326 -178 334 -185 349 -185 c 0
 367 -185 378 -170 384 -142 c 0
EndSplineSet
Fore
SplineSet
364 -50 m 1
 375 -50 l 1
 435 -73 l 1
 447 -150 l 1
 404 -228 l 1
 336 -252 l 1
 283 -235 l 1
 261 -181 l 1
 323 -168 l 1
 329 -188 l 1
 347 -194 l 1
 369 -183 l 1
 382 -150 l 1
 381 -117 l 1
 363 -106 l 1
 344 -112 l 1
 331 -132 l 1
 273 -119 l 1
 323 -16 l 1
 129 107 l 1
 102 362 l 1
 250 636 l 1
 535 744 l 1
 744 676 l 1
 806 483 l 1
 637 483 l 1
 605 573 l 1
 508 602 l 1
 358 538 l 1
 270 362 l 1
 287 186 l 1
 410 122 l 1
 516 154 l 1
 594 250 l 1
 746 205 l 1
 603 40 l 1
 377 -20 l 1
 364 -50 l 1
EndSplineSet
Validated: 1
Layer: 2
EndChar
StartChar: Eacute
Encoding: 119 201 274
Width: 667
Flags: HMW
HStem: 0 145<257 607> 295 145<314 603 286 631> 575 145<340 707 340 340> 803 187<510 524 393 688>
LayerCount: 3
Back
SplineSet
607 0 m 1
 70 0 l 1
 208 720 l 1
 735 720 l 1
 707 575 l 1
 340 575 l 1
 314 440 l 1
 631 440 l 1
 603 295 l 1
 286 295 l 1
 257 145 l 1
 634 145 l 1
 607 0 l 1
688 990 m 1
 524 803 l 1
 393 803 l 1
 510 990 l 1
 688 990 l 1
EndSplineSet
Fore
SplineSet
483 1012 m 5
 603.75 932 l 5
 507 785 l 5
 407.75 826 l 5
 483 1012 l 5
607 0 m 1
 70 0 l 1
 208 720 l 1
 707.5 720 l 1
 707 575 l 1
 340 575 l 1
 314 440 l 1
 631 440 l 1
 630.5 295 l 1
 286 295 l 1
 257 145 l 1
 607 145 l 1
 607 0 l 1
EndSplineSet
Validated: 1
Layer: 2
EndChar
StartChar: Ecircumflex
Encoding: 120 202 274
Width: 667
Flags: HMW
HStem: 0 145<257 607> 295 145<314 603 286 631> 575 145<340 707 340 340> 770 210<251 588 251 588 565 588 451 706 565 565>
LayerCount: 3
Back
SplineSet
607 0 m 1
 70 0 l 1
 208 720 l 1
 735 720 l 1
 707 575 l 1
 340 575 l 1
 314 440 l 1
 631 440 l 1
 603 295 l 1
 286 295 l 1
 257 145 l 1
 634 145 l 1
 607 0 l 1
451 980 m 1
 588 980 l 1
 706 770 l 1
 565 770 l 1
 502 891 l 1
 389 770 l 1
 251 770 l 1
 451 980 l 1
EndSplineSet
Fore
SplineSet
451.25 980 m 5
 588.25 980 l 5
 655.25 814.25 l 5
 544.25 769 l 5
 502 889.75 l 5
 398.25 751 l 5
 319.75 813 l 5
 451.25 980 l 5
EndSplineSet
Refer: 93 69 N 1 0 0 1 0 0 3
Validated: 1
Layer: 2
EndChar
StartChar: Edieresis
Encoding: 121 203 273
Width: 667
Flags: HMW
HStem: 0 145<257 607> 295 145<314 603 286 631> 575 145<340 707 340 340> 780 140<309 434 283 460 309 524 550 675>
LayerCount: 3
Back
SplineSet
607 0 m 1
 70 0 l 1
 208 720 l 1
 735 720 l 1
 707 575 l 1
 340 575 l 1
 314 440 l 1
 631 440 l 1
 603 295 l 1
 286 295 l 1
 257 145 l 1
 634 145 l 1
 607 0 l 1
434 780 m 1
 283 780 l 1
 309 920 l 1
 460 920 l 1
 434 780 l 1
675 780 m 1
 524 780 l 1
 550 920 l 1
 701 920 l 1
 675 780 l 1
EndSplineSet
Fore
SplineSet
587.93359375 931 m 5
 666.67578125 915.297851562 l 5
 698.963867188 871.803710938 l 5
 684.236328125 797.681640625 l 5
 637.78125 769.818359375 l 5
 559.038085938 785.521484375 l 5
 526.75 829.014648438 l 5
 541.477539062 903.13671875 l 5
 587.93359375 931 l 5
346.5 931 m 5
 425.2421875 915.297851562 l 5
 457.530273438 871.803710938 l 5
 442.802734375 797.681640625 l 5
 396.34765625 769.818359375 l 5
 317.604492188 785.521484375 l 5
 285.31640625 829.014648438 l 5
 300.043945312 903.13671875 l 5
 346.5 931 l 5
EndSplineSet
Refer: 93 69 N 1 0 0 1 0 0 3
Validated: 1
Layer: 2
EndChar
StartChar: Igrave
Encoding: 122 204 272
Width: 300
Flags: HMW
HStem: 0 21G<70 230 70 70> 700 20G<208 368 368 368> 803 187<263 332 160 388 263 263>
LayerCount: 3
Back
SplineSet
230 0 m 1
 70 0 l 1
 208 720 l 1
 368 720 l 1
 230 0 l 1
332 990 m 1
 388 803 l 1
 263 803 l 1
 160 990 l 1
 332 990 l 1
EndSplineSet
Fore
SplineSet
306 1012 m 1
 381.25 826 l 1
 282 785 l 1
 185.25 932 l 1
 306 1012 l 1
EndSplineSet
Refer: 97 73 S 1 0 0 1 0 0 3
Validated: 1
Layer: 2
EndChar
StartChar: Iacute
Encoding: 123 205 271
Width: 300
Flags: HMW
HStem: 0 21G<70 230 70 70> 700 20G<208 368 368 368> 803 187<330 344 213 508>
LayerCount: 3
Back
SplineSet
230 0 m 1
 70 0 l 1
 208 720 l 1
 368 720 l 1
 230 0 l 1
508 990 m 1
 344 803 l 1
 213 803 l 1
 330 990 l 1
 508 990 l 1
EndSplineSet
Fore
SplineSet
302.75 1012 m 5
 423.5 932 l 5
 326.75 785 l 5
 227.5 826 l 5
 302.75 1012 l 5
EndSplineSet
Refer: 97 73 N 1 0 0 1 0 0 3
Validated: 1
Layer: 2
EndChar
StartChar: Icircumflex
Encoding: 124 206 270
Width: 300
Flags: HMW
HStem: 0 21G<70 230 70 70> 700 20G<208 368 368 368> 770 210<71 408 71 408 385 408 271 526 385 385>
LayerCount: 3
Back
SplineSet
230 0 m 1
 70 0 l 1
 208 720 l 1
 368 720 l 1
 230 0 l 1
271 980 m 1
 408 980 l 1
 526 770 l 1
 385 770 l 1
 322 891 l 1
 209 770 l 1
 71 770 l 1
 271 980 l 1
EndSplineSet
Fore
SplineSet
271 980 m 1
 408 980 l 1
 475 814.25 l 1
 364 769 l 1
 321.75 889.75 l 1
 218 751 l 1
 139.5 813 l 1
 271 980 l 1
EndSplineSet
Refer: 97 73 S 1 0 0 1 0 0 3
Validated: 1
Layer: 2
EndChar
StartChar: Idieresis
Encoding: 125 207 268
Width: 300
Flags: HMW
HStem: 0 21G<70 229 70 70> 700 20G<209 368 368 368> 779 141<145 268 118 295 145 333 360 483>
LayerCount: 3
Back
SplineSet
229 0 m 1
 70 0 l 1
 209 720 l 1
 368 720 l 1
 229 0 l 1
268 779 m 1
 118 779 l 1
 145 920 l 1
 295 920 l 1
 268 779 l 1
483 779 m 1
 333 779 l 1
 360 920 l 1
 510 920 l 1
 483 779 l 1
EndSplineSet
Fore
SplineSet
397.1171875 931 m 1
 475.859375 915.297851562 l 1
 508.147460938 871.803710938 l 1
 493.419921875 797.681640625 l 1
 446.96484375 769.818359375 l 1
 368.221679688 785.521484375 l 1
 335.93359375 829.014648438 l 1
 350.661132812 903.13671875 l 1
 397.1171875 931 l 1
181.93359375 931 m 1
 260.67578125 915.297851562 l 1
 292.963867188 871.803710938 l 1
 278.236328125 797.681640625 l 1
 231.78125 769.818359375 l 1
 153.038085938 785.521484375 l 1
 120.75 829.014648438 l 1
 135.477539062 903.13671875 l 1
 181.93359375 931 l 1
EndSplineSet
Refer: 97 73 S 1 0 0 1 0 0 3
Validated: 1
Layer: 2
EndChar
StartChar: Eth
Encoding: 126 208 267
Width: 784
Flags: HMW
HStem: 0 144<327 390> 300 125<92 198 68 222 382 484> 575 145<411 473 411 411>
LayerCount: 3
Back
SplineSet
390 0 m 2
 140 0 l 1
 198 300 l 1
 68 300 l 1
 92 425 l 1
 222 425 l 1
 279 720 l 1
 518 720 l 2
 760 720 859 594 814 362 c 0
 770 137 632 0 390 0 c 2
357 300 m 1
 327 144 l 1
 392 144 l 2
 528 144 619 196 651 363 c 0
 687 547 591 575 473 575 c 2
 411 575 l 1
 382 425 l 1
 508 425 l 1
 484 300 l 1
 357 300 l 1
EndSplineSet
Fore
Validated: 1
Layer: 2
EndChar
StartChar: Ntilde
Encoding: 127 209 266
Width: 769
Flags: HMW
HStem: 0 21G<70 226 70 70 537 537 537 699> 700 20G<208 370 370 370 681 837 837 837> 795 130<628.5 632> 845 130<473 486.5>
LayerCount: 3
Back
SplineSet
226 0 m 1xe0
 70 0 l 1
 208 720 l 1xd0
 370 720 l 1xe0
 592 259 l 1
 681 720 l 1xd0
 837 720 l 1xe0
 699 0 l 1xd0
 537 0 l 1
 313 461 l 1
 226 0 l 1xe0
347 795 m 1
 374 935 l 1
 408 965 459 975 487 975 c 0
 556 975 604 925 653 925 c 0
 681 925 732 935 768 975 c 1
 741 835 l 1
 707 805 646 795 618 795 c 0
 549 795 511 845 462 845 c 0
 434 845 383 835 347 795 c 1
EndSplineSet
Fore
SplineSet
304.26953125 880.920898438 m 5
 444.8125 962.735351562 l 5
 495.012695312 971.658203125 l 5
 577.078125 946.151367188 l 5
 643.901367188 920.645507812 l 5
 694.345703125 930.81640625 l 5
 751.038085938 971.658203125 l 5
 812.23046875 886.020507812 l 5
 665.63671875 807.241210938 l 5
 610.399414062 798.28515625 l 5
 533.361328125 823.791992188 l 5
 471.62890625 849.297851562 l 5
 421.196289062 839.126953125 l 5
 364.576171875 798.28515625 l 5
 304.26953125 880.920898438 l 5
223.25 -14.75 m 1
 72.75 14 l 1
 210.75 734.75 l 1
 378 703.25 l 1
 592 259 l 1
 683.75 734.75 l 1
 834.25 706 l 1
 696.25 -14.75 l 1
 528.75 17.25 l 1
 313 461 l 1
 223.25 -14.75 l 1
EndSplineSet
Validated: 1
Layer: 2
EndChar
StartChar: Oacute
Encoding: 129 211 264
Width: 765
Flags: HMW
HStem: -15 140<351 460.5 351 488.5> 595 140<442 551.5> 803 187<570 584 453 748>
LayerCount: 3
Back
SplineSet
109 360 m 0
 150 577 304 735 524 735 c 0
 743 735 835 577 794 360 c 0
 751 143 598 -15 379 -15 c 0
 159 -15 66 143 109 360 c 0
274 360 m 0
 245 213 296 125 406 125 c 0
 515 125 600 213 629 360 c 0
 657 507 606 595 497 595 c 0
 387 595 302 507 274 360 c 0
748 990 m 1
 584 803 l 1
 453 803 l 1
 570 990 l 1
 748 990 l 1
EndSplineSet
Fore
SplineSet
543.25 1012 m 5
 664 932 l 5
 567.25 785 l 5
 468 826 l 5
 543.25 1012 l 5
EndSplineSet
Refer: 103 79 N 1 0 0 1 0 0 3
Validated: 1
Layer: 2
EndChar
StartChar: Ocircumflex
Encoding: 130 212 264
Width: 765
Flags: HMW
HStem: -15 140<351 460.5 351 488.5> 595 140<442 551.5> 770 210<301 638 301 638 615 638 501 756 615 615>
LayerCount: 3
Back
SplineSet
109 360 m 0
 150 577 304 735 524 735 c 0
 743 735 835 577 794 360 c 0
 751 143 598 -15 379 -15 c 0
 159 -15 66 143 109 360 c 0
274 360 m 0
 245 213 296 125 406 125 c 0
 515 125 600 213 629 360 c 0
 657 507 606 595 497 595 c 0
 387 595 302 507 274 360 c 0
501 980 m 1
 638 980 l 1
 756 770 l 1
 615 770 l 1
 552 891 l 1
 439 770 l 1
 301 770 l 1
 501 980 l 1
EndSplineSet
Fore
SplineSet
501 980 m 1
 638 980 l 1
 705 814.25 l 1
 594 769 l 1
 551.75 889.75 l 1
 448 751 l 1
 369.5 813 l 1
 501 980 l 1
EndSplineSet
Refer: 103 79 N 1 0 0 1 0 0 3
Validated: 1
Layer: 2
EndChar
StartChar: Otilde
Encoding: 131 213 262
Width: 765
Flags: HMW
HStem: -15 140<351 460.5 351 488.5> 595 140<442 551.5> 845 80 845 130<473 486.5>
LayerCount: 3
Back
SplineSet
109 360 m 0xd0
 150 577 304 735 524 735 c 0
 743 735 835 577 794 360 c 0
 751 143 598 -15 379 -15 c 0
 159 -15 66 143 109 360 c 0xd0
274 360 m 0xe0
 245 213 296 125 406 125 c 0
 515 125 600 213 629 360 c 0
 657 507 606 595 497 595 c 0xd0
 387 595 302 507 274 360 c 0xe0
347 795 m 1
 374 935 l 1
 408 965 459 975 487 975 c 0
 556 975 604 925 653 925 c 0
 681 925 732 935 768 975 c 1
 741 835 l 1
 707 805 646 795 618 795 c 0
 549 795 511 845 462 845 c 0
 434 845 383 835 347 795 c 1
EndSplineSet
Fore
SplineSet
304.26953125 880.920898438 m 1
 444.8125 962.735351562 l 1
 495.012695312 971.658203125 l 1
 577.078125 946.151367188 l 1
 643.901367188 920.645507812 l 1
 694.345703125 930.81640625 l 1
 751.038085938 971.658203125 l 1
 812.23046875 886.020507812 l 1
 665.63671875 807.241210938 l 1
 610.399414062 798.28515625 l 1
 533.361328125 823.791992188 l 1
 471.62890625 849.297851562 l 1
 421.196289062 839.126953125 l 1
 364.576171875 798.28515625 l 1
 304.26953125 880.920898438 l 1
EndSplineSet
Refer: 103 79 S 1 0 0 1 -3 0 3
Validated: 1
Layer: 2
EndChar
StartChar: Odieresis
Encoding: 132 214 261
Width: 765
Flags: HMW
HStem: -15 140<351 460.5 351 488.5> 595 140<442 551.5> 780 140<359 484 333 510 359 574 600 725>
LayerCount: 3
Back
SplineSet
109 360 m 0
 150 577 304 735 524 735 c 0
 743 735 835 577 794 360 c 0
 751 143 598 -15 379 -15 c 0
 159 -15 66 143 109 360 c 0
274 360 m 0
 245 213 296 125 406 125 c 0
 515 125 600 213 629 360 c 0
 657 507 606 595 497 595 c 0
 387 595 302 507 274 360 c 0
484 780 m 1
 333 780 l 1
 359 920 l 1
 510 920 l 1
 484 780 l 1
725 780 m 1
 574 780 l 1
 600 920 l 1
 751 920 l 1
 725 780 l 1
EndSplineSet
Fore
SplineSet
638.18359375 931 m 1
 716.92578125 915.297851562 l 1
 749.213867188 871.803710938 l 1
 734.486328125 797.681640625 l 1
 688.03125 769.818359375 l 1
 609.288085938 785.521484375 l 1
 577 829.014648438 l 1
 591.727539062 903.13671875 l 1
 638.18359375 931 l 1
396.75 931 m 1
 475.4921875 915.297851562 l 1
 507.780273438 871.803710938 l 1
 493.052734375 797.681640625 l 1
 446.59765625 769.818359375 l 1
 367.854492188 785.521484375 l 1
 335.56640625 829.014648438 l 1
 350.293945312 903.13671875 l 1
 396.75 931 l 1
EndSplineSet
Refer: 103 79 N 1 0 0 1 -3 0 3
Validated: 1
Layer: 2
EndChar
StartChar: multiply
Encoding: 133 215 261
Width: 556
Flags: MW
HStem: 172 21G<189 189 433 433> 573 20G<271 271 515 515>
LayerCount: 3
Back
SplineSet
335 294 m 1
 189 172 l 1
 117 260 l 1
 263 382 l 1
 165 505 l 1
 271 593 l 1
 369 471 l 1
 515 593 l 1
 587 505 l 1
 440 382 l 1
 539 260 l 1
 433 172 l 1
 335 294 l 1
EndSplineSet
Fore
SplineSet
335 294 m 1
 189 172 l 1
 117 260 l 1
 263 382 l 1
 165 505 l 1
 271 593 l 1
 369 471 l 1
 515 593 l 1
 587 505 l 1
 440 382 l 1
 539 260 l 1
 433 172 l 1
 335 294 l 1
EndSplineSet
Validated: 1
Layer: 2
EndChar
StartChar: Oslash
Encoding: 134 216 259
Width: 765
Flags: HMW
HStem: -15 140<388 460.5 388 488.5> 595 140<442 514.5>
LayerCount: 3
Back
SplineSet
836 654 m 1
 816 634 795 615 775 595 c 1
 805 532 811 451 794 360 c 0
 751 143 598 -15 379 -15 c 0
 304 -15 243 3 198 36 c 1
 180 19 163 2 145 -15 c 1
 118 12 91 39 64 66 c 1
 85 86 105 106 126 126 c 1
 97 189 91 269 109 360 c 0
 150 577 304 735 524 735 c 0
 598 735 657 717 702 684 c 1
 720 701 737 718 755 735 c 1
 782 708 809 681 836 654 c 1
274 360 m 0
 267 323 264 291 267 262 c 1
 372 364 478 466 583 568 c 1
 560 585 532 595 497 595 c 0
 387 595 302 507 274 360 c 0
629 360 m 0
 636 397 638 430 635 459 c 1
 529 357 424 254 318 152 c 1
 340 134 370 125 406 125 c 0
 515 125 600 213 629 360 c 0
EndSplineSet
Fore
SplineSet
781.381835938 599.65625 m 1
 809.038085938 490.614257812 l 1
 800.856445312 360.208984375 l 1
 656.46484375 85.943359375 l 1
 377.575195312 -22.2548828125 l 1
 273.828125 -8.84375 l 1
 192.975585938 29.701171875 l 1
 146 -16 l 1
 63.265625 66.7353515625 l 1
 119.338867188 121.612304688 l 1
 92.724609375 230.305664062 l 1
 102.078125 360.293945312 l 1
 245.2265625 634.560546875 l 1
 525.358398438 742.758789062 l 1
 627.255859375 729.415039062 l 1
 706.897460938 690.810546875 l 1
 754.016601562 736.2265625 l 1
 836.75 653.5 l 1
 781.381835938 599.65625 l 1
263.376953125 260.2265625 m 1
 585.642578125 572.278320312 l 1
 546.43359375 592.435546875 l 1
 497.9765625 599.6640625 l 1
 352.904296875 536.073242188 l 1
 270.520507812 360.047851562 l 1
 263.12109375 307.045898438 l 1
 263.375976562 260.2265625 l 1
 263.376953125 260.2265625 l 1
638.71875 461.000976562 m 1
 315.24609375 147.893554688 l 1
 354.891601562 127.260742188 l 1
 405.123046875 120.372070312 l 1
 549.461914062 184.022460938 l 1
 632.579101562 359.98046875 l 1
 639.400390625 413.611328125 l 1
 638.719726562 461.000976562 l 1
 638.71875 461.000976562 l 1
EndSplineSet
Validated: 1
Layer: 2
EndChar
StartChar: Ugrave
Encoding: 135 217 258
Width: 753
Flags: HMW
HStem: -15 145<354.5 447.5 354.5 471.5> 700 20G<208 368 368 368 661 821 821 821> 803 187<463 532 360 588 463 463>
LayerCount: 3
Back
SplineSet
583 317 m 2
 661 720 l 1
 821 720 l 1
 741 302 l 2
 703 107 570 -15 373 -15 c 0
 178 -15 90 107 128 302 c 2
 208 720 l 1
 368 720 l 1
 290 317 l 2
 263 179 308 130 401 130 c 0
 494 130 556 179 583 317 c 2
532 990 m 1
 588 803 l 1
 463 803 l 1
 360 990 l 1
 532 990 l 1
EndSplineSet
Fore
SplineSet
505.75 1012 m 5
 581 826 l 5
 481.75 785 l 5
 385 932 l 5
 505.75 1012 l 5
EndSplineSet
Refer: 109 85 N 1 0 0 1 2.75 0 3
Validated: 1
Layer: 2
EndChar
StartChar: Uacute
Encoding: 136 218 258
Width: 753
Flags: HMW
HStem: -15 145<500 593 500 617> 700 20G<353.5 513.5 513.5 513.5 806.5 966.5 966.5 966.5> 803 187<685.5 699.5 568.5 863.5>
LayerCount: 3
Back
SplineSet
664 735 m 5
 818 705 l 5
 740.826171875 300.859375 l 5
 617.264648438 64.55859375 l 5
 368.837890625 -22.505859375 l 5
 154.7734375 64.55859375 l 5
 122.26953125 300.859375 l 5
 205.5 734 l 5
 359.5 705 l 5
 284.147460938 316.16796875 l 5
 294.8828125 168.046875 l 5
 397.322265625 125.530273438 l 5
 515.333984375 168.046875 l 5
 583.029296875 316.16796875 l 5
 664 735 l 5
729 317 m 2
 807 720 l 1
 967 720 l 1
 887 302 l 2
 849 107 716 -15 519 -15 c 0
 324 -15 236 107 274 302 c 2
 354 720 l 1
 514 720 l 1
 436 317 l 2
 409 179 454 130 547 130 c 0
 640 130 702 179 729 317 c 2
864 990 m 1
 700 803 l 1
 569 803 l 1
 686 990 l 1
 864 990 l 1
EndSplineSet
Fore
SplineSet
506.5 1012 m 5
 627.25 932 l 5
 530.5 785 l 5
 431.25 826 l 5
 506.5 1012 l 5
664 735 m 1
 818 705 l 1
 740.826171875 300.859375 l 1
 617.264648438 64.55859375 l 1
 368.837890625 -22.505859375 l 1
 154.7734375 64.55859375 l 1
 122.26953125 300.859375 l 1
 205.5 734 l 1
 359.5 705 l 1
 284.147460938 316.16796875 l 1
 294.8828125 168.046875 l 1
 397.322265625 125.530273438 l 1
 515.333984375 168.046875 l 1
 583.029296875 316.16796875 l 1
 664 735 l 1
EndSplineSet
Validated: 1
Layer: 2
EndChar
StartChar: Ucircumflex
Encoding: 137 219 257
Width: 753
Flags: HMW
HStem: -15 145<354.5 447.5 354.5 471.5> 700 20G<208 368 368 368 661 821 821 821> 770 210<291 628 291 628 605 628 491 746 605 605>
LayerCount: 3
Back
SplineSet
583 317 m 2
 661 720 l 1
 821 720 l 1
 741 302 l 2
 703 107 570 -15 373 -15 c 0
 178 -15 90 107 128 302 c 2
 208 720 l 1
 368 720 l 1
 290 317 l 2
 263 179 308 130 401 130 c 0
 494 130 556 179 583 317 c 2
491 980 m 1
 628 980 l 1
 746 770 l 1
 605 770 l 1
 542 891 l 1
 429 770 l 1
 291 770 l 1
 491 980 l 1
EndSplineSet
Fore
SplineSet
491 980 m 1
 628 980 l 1
 695 814.25 l 1
 584 769 l 1
 541.75 889.75 l 1
 438 751 l 1
 359.5 813 l 1
 491 980 l 1
EndSplineSet
Refer: 109 85 S 1 0 0 1 2.5 0 3
Validated: 1
Layer: 2
EndChar
StartChar: Udieresis
Encoding: 138 220 255
Width: 753
Flags: HMW
HStem: -15 145<354.5 447.5 354.5 471.5> 700 20G<208 368 368 368 661 821 821 821> 780 140<349 474 323 500 349 564 590 715>
LayerCount: 3
Back
SplineSet
583 317 m 2
 661 720 l 1
 821 720 l 1
 741 302 l 2
 703 107 570 -15 373 -15 c 0
 178 -15 90 107 128 302 c 2
 208 720 l 1
 368 720 l 1
 290 317 l 2
 263 179 308 130 401 130 c 0
 494 130 556 179 583 317 c 2
474 780 m 1
 323 780 l 1
 349 920 l 1
 500 920 l 1
 474 780 l 1
715 780 m 1
 564 780 l 1
 590 920 l 1
 741 920 l 1
 715 780 l 1
EndSplineSet
Fore
SplineSet
627.68359375 931 m 5
 706.42578125 915.297851562 l 5
 738.713867188 871.803710938 l 5
 723.986328125 797.681640625 l 5
 677.53125 769.818359375 l 5
 598.788085938 785.521484375 l 5
 566.5 829.014648438 l 5
 581.227539062 903.13671875 l 5
 627.68359375 931 l 5
386.25 931 m 5
 464.9921875 915.297851562 l 5
 497.280273438 871.803710938 l 5
 482.552734375 797.681640625 l 5
 436.09765625 769.818359375 l 5
 357.354492188 785.521484375 l 5
 325.06640625 829.014648438 l 5
 339.793945312 903.13671875 l 5
 386.25 931 l 5
EndSplineSet
Refer: 109 85 N 1 0 0 1 2.5 0 3
Validated: 1
Layer: 2
EndChar
StartChar: Yacute
Encoding: 139 221 254
Width: 705
Flags: HMW
HStem: 0 21G<272 433 272 272> 700 20G<148 323 323 323 663 833 833 833> 803 187<530 544 413 708>
LayerCount: 3
Back
SplineSet
433 0 m 1
 272 0 l 1
 327 293 l 1
 148 720 l 1
 323 720 l 1
 441 443 l 1
 663 720 l 1
 833 720 l 1
 488 293 l 1
 433 0 l 1
708 990 m 1
 544 803 l 1
 413 803 l 1
 530 990 l 1
 708 990 l 1
EndSplineSet
Fore
Validated: 1
Layer: 2
EndChar
StartChar: Thorn
Encoding: 140 222 253
Width: 672
Flags: HMW
HStem: 0 21G<70 230 70 70> 130 140<282 378 255 392> 480 140<323 465 350 431> 715 20G<212 372 372 372>
LayerCount: 3
Back
SplineSet
230 0 m 1
 70 0 l 1
 212 735 l 1
 372 735 l 1
 350 620 l 1
 465 620 l 2
 610 620 739 554 705 379 c 0
 677 234 557 130 378 130 c 2
 255 130 l 1
 230 0 l 1
323 480 m 1
 282 270 l 1
 392 270 l 2
 495 270 532 329 542 376 c 0
 553 434 526 480 431 480 c 2
 323 480 l 1
EndSplineSet
Fore
Validated: 1
Layer: 2
EndChar
StartChar: germandbls
Encoding: 141 223 252
Width: 693
Flags: HMW
HStem: -15 115<481 519.5 481 536> 0 21G<98 245 98 98> 603 128<444.5 517>
LayerCount: 3
Back
SplineSet
324 150 m 1xa0
 453 171 l 1
 450 126 458 100 504 100 c 0
 535 100 561 120 567 152 c 0
 572 176 556 192 536 198 c 2
 476 215 l 2
 413 233 363 283 379 369 c 0
 408 519 547 507 557 557 c 0
 560 572 558 603 476 603 c 0
 413 603 355 567 340 493 c 2xa0
 245 0 l 1
 98 0 l 1
 189 472 l 2
 222 642 350 731 490 731 c 0
 656 731 717 660 699 567 c 0
 674 441 520 446 506 373 c 0
 503 356 511 339 536 332 c 2
 592 317 l 2
 645 303 719 263 698 156 c 0x60
 675 41 593 -15 479 -15 c 0
 362 -15 315 55 324 150 c 1xa0
EndSplineSet
Fore
SplineSet
455.991210938 167.16015625 m 1
 463.254882812 113.604492188 l 1
 507.947265625 94.544921875 l 1
 549.623046875 108.841796875 l 1
 572.231445312 147.68359375 l 1
 565.954101562 177.987304688 l 1
 540.603515625 194.70703125 l 1
 479.3828125 211.802734375 l 1
 399.698242188 264.46484375 l 1
 380.407226562 369.108398438 l 1
 478.510742188 503.170898438 l 1
 561.946289062 560.765625 l 1
 553.219726562 590.014648438 l 1
 479.3828125 607.78125 l 1
 391.673828125 579.935546875 l 1
 340.697265625 495.711914062 l 1
 242 -15 l 1
 100.5 13.25 l 1
 189.25 474 l 1
 299.309570312 671.245117188 l 1
 493.66796875 738.305664062 l 1
 670.583007812 690.209960938 l 1
 706.752929688 570.877929688 l 1
 604.196289062 451.75 l 1
 509.994140625 373.10546875 l 1
 514.712890625 348.390625 l 1
 540.604492188 331.270507812 l 1
 597.66015625 315.961914062 l 1
 680.043945312 269.491210938 l 1
 705.733398438 151.8515625 l 1
 628.866210938 20.53515625 l 1
 482.359375 -22.7109375 l 1
 355.154296875 25.1201171875 l 1
 324.374023438 145.642578125 l 1
 455.991210938 167.16015625 l 1
EndSplineSet
Validated: 1
Layer: 2
EndChar
StartChar: acircumflex
Encoding: 144 226 249
Width: 551
Flags: HMW
HStem: -15 112<141 267.5> 0 21G<364 515 364 364> 413 122<313.5 362.5> 600 180<190 491 190 491 444 491 354 585 444 444>
LayerCount: 3
Back
SplineSet
350 54 m 1xb0
 298 2 250 -15 188 -15 c 0
 94 -15 25 36 44 132 c 0
 65 244 151 286 280 301 c 0
 335 307 368 313 396 325 c 1
 399 337 l 2
 405 371 394 413 331 413 c 0
 273 413 243 374 226 336 c 1
 107 378 l 1
 156 498 265 535 362 535 c 0
 495 535 576 475 544 314 c 2
 505 106 l 2
 494 53 500 19 515 0 c 1
 364 0 l 1x70
 350 13 349 37 350 54 c 1xb0
366 165 m 1
 379 235 l 1
 359 228 334 219 282 209 c 0
 234 200 201 183 195 142 c 0
 192 119 201 97 244 97 c 0
 291 97 342 130 366 165 c 1
354 780 m 1
 491 780 l 1
 585 600 l 1
 444 600 l 1
 405 691 l 1
 328 600 l 1
 190 600 l 1xb0
 354 780 l 1
EndSplineSet
Fore
Refer: 169 94 N 1 0 0 1 2.464 125 2
Refer: 63 97 N 1 0 0 1 0 0 3
Validated: 1
Layer: 2
EndChar
StartChar: atilde
Encoding: 145 227 248
Width: 551
Flags: HMW
HStem: -15 112<141 267.5> 0 21G<364 515 364 364> 413 122<313.5 362.5> 595 120<472.5 478> 645 120<337 352.5>
LayerCount: 3
Back
SplineSet
350 54 m 1xa8
 298 2 250 -15 188 -15 c 0xb0
 94 -15 25 36 44 132 c 0xa8
 65 244 151 286 280 301 c 0
 335 307 368 313 396 325 c 1xb0
 399 337 l 2xa8
 405 371 394 413 331 413 c 0xb0
 273 413 243 374 226 336 c 1
 107 378 l 1
 156 498 265 535 362 535 c 0
 495 535 576 475 544 314 c 2
 505 106 l 2
 494 53 500 19 515 0 c 1
 364 0 l 1
 350 13 349 37 350 54 c 1xa8
366 165 m 1
 379 235 l 1
 359 228 334 219 282 209 c 0
 234 200 201 183 195 142 c 0
 192 119 201 97 244 97 c 0
 291 97 342 130 366 165 c 1
223 595 m 1
 248 725 l 1
 282 755 323 765 351 765 c 0
 420 765 448 715 497 715 c 0
 525 715 566 725 602 765 c 1
 577 635 l 1
 543 605 492 595 464 595 c 0
 395 595 377 645 328 645 c 0x70
 300 645 259 635 223 595 c 1
EndSplineSet
Fore
SplineSet
158.693359375 676.135742188 m 5
 299.236328125 757.950195312 l 5
 349.436523438 766.873046875 l 5
 431.501953125 741.366210938 l 5
 498.325195312 715.860351562 l 5
 548.76953125 726.03125 l 5
 605.461914062 766.873046875 l 5
 666.654296875 681.235351562 l 5
 520.060546875 602.456054688 l 5
 464.823242188 593.5 l 5
 387.78515625 619.006835938 l 5
 326.052734375 644.512695312 l 5
 275.620117188 634.341796875 l 5
 219 593.5 l 5
 158.693359375 676.135742188 l 5
EndSplineSet
Refer: 63 97 N 1 0 0 1 0 0 3
Validated: 1
Layer: 2
EndChar
StartChar: adieresis
Encoding: 146 228 248
Width: 551
Flags: HMW
HStem: -15 112<141 267.5> 0 21G<364 515 364 364> 413 122<313.5 362.5> 580 140<222 347 196 373 222 412 438 563>
LayerCount: 3
Back
SplineSet
350 54 m 1x70
 298 2 250 -15 188 -15 c 0
 94 -15 25 36 44 132 c 0
 65 244 151 286 280 301 c 0
 335 307 368 313 396 325 c 1
 399 337 l 2
 405 371 394 413 331 413 c 0
 273 413 243 374 226 336 c 1
 107 378 l 1
 156 498 265 535 362 535 c 0
 495 535 576 475 544 314 c 2
 505 106 l 2
 494 53 500 19 515 0 c 1
 364 0 l 1
 350 13 349 37 350 54 c 1x70
366 165 m 1
 379 235 l 1
 359 228 334 219 282 209 c 0
 234 200 201 183 195 142 c 0
 192 119 201 97 244 97 c 0
 291 97 342 130 366 165 c 1
347 580 m 1
 196 580 l 1
 222 720 l 1
 373 720 l 1
 347 580 l 1
563 580 m 1
 412 580 l 1
 438 720 l 1
 589 720 l 1xb0
 563 580 l 1
EndSplineSet
Fore
SplineSet
476.3671875 730.735351562 m 5
 555.109375 715.033203125 l 5
 587.397460938 671.5390625 l 5
 572.669921875 597.416992188 l 5
 526.21484375 569.553710938 l 5
 447.471679688 585.256835938 l 5
 415.18359375 628.75 l 5
 429.911132812 702.872070312 l 5
 476.3671875 730.735351562 l 5
259.68359375 730.735351562 m 5
 338.42578125 715.033203125 l 5
 370.713867188 671.5390625 l 5
 355.986328125 597.416992188 l 5
 309.53125 569.553710938 l 5
 230.788085938 585.256835938 l 5
 198.5 628.75 l 5
 213.227539062 702.872070312 l 5
 259.68359375 730.735351562 l 5
EndSplineSet
Refer: 63 97 N 1 0 0 1 0 0 3
Validated: 1
Layer: 2
EndChar
StartChar: aring
Encoding: 147 229 246
Width: 551
Flags: HMW
HStem: -15 112<141 267.5> 0 21G<364 515 515 515> 413 122<313.5 362.5> 579 93<387.5 414.5 387.5 422.5> 672 98<406.5 414.5> 770 95<406.5 433.5>
LayerCount: 3
Back
SplineSet
350 54 m 1xa8
 349 37 350 13 364 0 c 1
 515 0 l 1x68
 500 19 494 53 505 106 c 2
 544 314 l 2
 576 475 495 535 362 535 c 0
 265 535 156 498 107 378 c 1
 226 336 l 1
 243 374 273 413 331 413 c 0
 394 413 405 371 399 337 c 2
 396 325 l 1
 368 313 335 307 280 301 c 0
 151 286 65 244 44 132 c 0
 25 36 94 -15 188 -15 c 0
 250 -15 298 2 350 54 c 1xa8
379 235 m 1
 366 165 l 1
 342 130 291 97 244 97 c 0xb4
 201 97 192 119 195 142 c 0
 201 183 234 200 282 209 c 0
 334 219 359 228 379 235 c 1
268 722 m 0
 283 800 361 865 439 865 c 0
 518 865 569 800 554 722 c 0
 538 643 462 579 383 579 c 0
 305 579 252 643 268 722 c 0
361 722 m 0
 355 694 374 672 401 672 c 0
 428 672 453 694 459 722 c 0
 464 748 447 770 420 770 c 0
 393 770 366 748 361 722 c 0
EndSplineSet
Fore
Refer: 175 176 S 1 0 0 1 117.689 130 2
Refer: 63 97 N 1 0 0 1 0 0 3
Validated: 1
Layer: 2
EndChar
StartChar: ae
Encoding: 148 230 344
Width: 882
Flags: HMW
HStem: -20.4932 114.24<723.01 732.19> -20.4932 127.5<307.87 366.52 303.28 366.52> 216.147 104.04<296.65 408.85 278.29 296.65 296.65 431.29> 416.067 124.44<595 646>
VStem: 48.7897 158.1<368.127 368.127>
LayerCount: 3
Back
SplineSet
870 141 m 1x78
 811 38 724 -15 599 -15 c 0
 535 -15 478 3 439 43 c 1
 362 -6 280 -15 220 -15 c 0
 106 -15 45 44 55 132 c 0
 68 246 163 286 292 301 c 0
 347 307 380 313 409 325 c 0
 410 329 410 333 411 337 c 0
 418 371 407 413 344 413 c 0
 286 413 255 374 238 336 c 1
 199 350 158 364 119 378 c 1
 168 498 277 535 374 535 c 0
 442 535 496 519 529 481 c 1
 582 518 644 535 705 535 c 0
 812 535 918 487 911 366 c 0
 905 252 809 217 686 217 c 2
 536 217 l 1
 526 145 566 110 633 110 c 0
 681 110 717 137 735 170 c 1
 780 160 825 151 870 141 c 1x78
266 97 m 0xb8
 314 97 356 110 392 132 c 1
 387 154 385 179 387 206 c 0
 387 215 388 225 390 234 c 1
 371 227 344 218 294 209 c 0
 246 200 206 183 205 142 c 0
 204 119 216 97 266 97 c 0xb8
677 410 m 0
 627 410 575 376 558 319 c 1
 668 319 l 2
 720 319 757 325 756 366 c 0
 755 396 716 410 677 410 c 0
EndSplineSet
Fore
SplineSet
510.458007812 -6.4921875 m 1
 438.469726562 38.3623046875 l 1
 320.278320312 -9.9365234375 l 1
 215.095703125 -20.7294921875 l 1
 83.51171875 20.5615234375 l 1
 46.8203125 129.262695312 l 1
 123.294921875 253.170898438 l 1
 289.497070312 301.444335938 l 1
 407.858398438 325.852539062 l 1
 409.814453125 338.26953125 l 1
 402.407226562 389.903320312 l 1
 341.365234375 415.647460938 l 1
 271.736328125 390.873046875 l 1
 233.291992188 337.079101562 l 1
 136.197265625 406.88671875 l 1
 223.556640625 505.875976562 l 1
 371.9765625 540.048828125 l 1
 464.373046875 527.095703125 l 1
 530.048828125 485.124023438 l 1
 616.68359375 526.712890625 l 1
 709.375976562 540.048828125 l 1
 858.01953125 500.228515625 l 1
 919.486328125 367.8671875 l 1
 849.52734375 248.305664062 l 1
 690.159179688 215.918945312 l 1
 537.10546875 215.918945312 l 1
 557.088867188 133.846679688 l 1
 635.99609375 106.818359375 l 1
 699.481445312 124.815429688 l 1
 740.072265625 168.129882812 l 1
 828.521484375 86.3515625 l 1
 765.0078125 19.4130859375 l 1
 601.643554688 -20.7216796875 l 1
 510.458007812 -6.4921875 l 1
385.282226562 164.880859375 m 1
 388.436523438 233.251953125 l 1
 290.56640625 207.661132812 l 1
 227.219726562 185.744140625 l 1
 199.840820312 139.213867188 l 1
 211.478515625 107.5234375 l 1
 262.08203125 93.3798828125 l 1
 330.9140625 102.821289062 l 1
 390.5625 129.091796875 l 1
 390.5625 129.091796875 l 1
 385.282226562 164.880859375 l 1
559.893554688 319.900390625 m 1
 671.962890625 319.900390625 l 1
 737.106445312 328.149414062 l 1
 761.754882812 367.731445312 l 1
 736.032226562 401.581054688 l 1
 681.231445312 412.543945312 l 1
 607.903320312 388.014648438 l 1
 559.893554688 319.900390625 l 1
EndSplineSet
Validated: 5
Layer: 2
EndChar
StartChar: ccedilla
Encoding: 149 231 245
Width: 540
Flags: HMW
HStem: -200 47<223 236.5 223 241> -81 46<244 250> -15 125<254.5 263 254 311> 312 223<410 430 302 560 410 410> 410 125<314 374>
LayerCount: 3
Back
SplineSet
259 -117 m 0xe8
 263 -94 257 -81 243 -81 c 0
 231 -81 222 -87 217 -102 c 1
 170 -92 l 1
 210 -10 l 1
 104 9 36 94 68 260 c 0
 105 452 235 535 369 535 c 0
 491 535 602 476 560 312 c 1
 410 312 l 1xf0
 423 368 403 410 345 410 c 0
 283 410 236 357 218 260 c 0
 200 163 222 110 287 110 c 0
 335 110 373 135 396 196 c 1
 540 175 l 1
 485 36 375 -15 263 -15 c 2
 254 -15 l 1
 244 -35 l 1
 253 -35 l 2
 293 -35 322 -59 311 -117 c 0
 299 -175 261 -200 221 -200 c 0
 187 -200 160 -184 160 -143 c 1
 211 -132 l 1
 210 -147 217 -153 229 -153 c 0
 244 -153 254 -140 259 -117 c 0xe8
EndSplineSet
Fore
SplineSet
242.904296875 -39.0517578125 m 5
 252.004882812 -39.0517578125 l 5
 301.03515625 -58.6376953125 l 5
 311.100585938 -122.551757812 l 5
 275.834960938 -186.96875 l 5
 219.26953125 -207.065429688 l 5
 175.297851562 -193.771484375 l 5
 157.96484375 -150.486328125 l 5
 209.149414062 -137.596679688 l 5
 213.359375 -154.208007812 l 5
 227.516601562 -159.225585938 l 5
 246.712890625 -149.640625 l 5
 258.127929688 -122.323242188 l 5
 256.70703125 -95.310546875 l 5
 241.625976562 -85.87890625 l 5
 225.682617188 -90.8125 l 5
 215.096679688 -107.329101562 l 5
 167.139648438 -96.9521484375 l 5
 207.954101562 -13.4521484375 l 5
 82.74609375 68.0595703125 l 5
 63.1474609375 261.868164062 l 5
 179.467773438 475.4765625 l 5
 370.022460938 542.21484375 l 5
 530.14453125 491.313476562 l 5
 562.39453125 327.383789062 l 5
 411.771484375 314.845703125 l 5
 405.80078125 386.27734375 l 5
 345.62109375 414.845703125 l 5
 263.970703125 375.409179688 l 5
 216.119140625 261.868164062 l 5
 219.58984375 148.268554688 l 5
 286.443359375 108.899414062 l 5
 351.587890625 129.396484375 l 5
 397.665039062 196.568359375 l 5
 503.489257812 123.638671875 l 5
 425.171875 25.0673828125 l 5
 262.125976562 -18.6396484375 l 6
 253.110351562 -18.6396484375 l 5
 242.904296875 -39.0517578125 l 5
EndSplineSet
Validated: 1
Layer: 2
SplineSet
526.005859375 485.078125 m 5
 369.0234375 535.048828125 l 5
 182.206054688 469.536132812 l 5
 68.166015625 260.032226562 l 5
 101.563476562 50.6123046875 l 5
 263.068359375 -14.8173828125 l 5
 422.916992188 28.015625 l 5
 499.75 124.5 l 5
 396.032226562 196.012695312 l 5
 350.787109375 130.216796875 l 5
 286.91015625 110.063476562 l 5
 221.391601562 148.7265625 l 5
 218.139648438 260.032226562 l 5
 265.051757812 371.405273438 l 5
 345.100585938 410.001953125 l 5
 404.142578125 382.078125 l 5
 410 312 l 4
 557.5 324.25 l 4
 526.005859375 485.078125 l 5
EndSplineSet
EndChar
StartChar: egrave
Encoding: 150 232 245
Width: 556
Flags: HMW
HStem: -15 125<273.5 331 273.5 335.5> 217 102<232 360 210 369> 319 91<326 369 369 370.5 326 388> 410 125<326 370.5> 603 187<323 392 220 448 323 323>
VStem: 430 155<366 366>
LayerCount: 3
Back
SplineSet
544 141 m 1xac
 485 38 398 -15 273 -15 c 0
 139 -15 31 68 68 260 c 0
 105 452 246 535 379 535 c 0
 486 535 592 487 585 366 c 0
 579 252 483 217 360 217 c 2
 210 217 l 1
 200 145 240 110 307 110 c 0
 355 110 391 137 409 170 c 1
 544 141 l 1xac
351 410 m 0
 301 410 249 376 232 319 c 1
 369 319 l 2xdc
 407 319 431 337 430 366 c 0
 429 396 390 410 351 410 c 0
392 790 m 1
 448 603 l 1
 323 603 l 1
 220 790 l 1
 392 790 l 1
EndSplineSet
Fore
Refer: 182 96 S 1 0 0 1 82.1543 62 2
Refer: 67 101 N 1 0 0 1 0 0 3
Validated: 1
Layer: 2
EndChar
StartChar: eacute
Encoding: 151 233 244
Width: 556
Flags: HMW
HStem: -15 125<267.85 325.35 267.85 329.85> 217 102<226.35 354.35 204.35 363.35> 319 91<320.35 363.35 363.35 364.85 320.35 382.35> 410 125<320.35 364.85> 603 187<404.35 418.35 287.35 582.35>
VStem: 424.35 155<366 366>
LayerCount: 3
Back
SplineSet
538.350585938 141 m 1xac
 479.350585938 38 392.350585938 -15 267.350585938 -15 c 0
 133.350585938 -15 25.3505859375 68 62.3505859375 260 c 0
 99.3505859375 452 240.350585938 535 373.350585938 535 c 0
 480.350585938 535 586.350585938 487 579.350585938 366 c 0
 573.350585938 252 477.350585938 217 354.350585938 217 c 2
 204.350585938 217 l 1
 194.350585938 145 234.350585938 110 301.350585938 110 c 0
 349.350585938 110 385.350585938 137 403.350585938 170 c 1
 538.350585938 141 l 1xac
345.350585938 410 m 0
 295.350585938 410 243.350585938 376 226.350585938 319 c 1
 363.350585938 319 l 2xdc
 401.350585938 319 425.350585938 337 424.350585938 366 c 0
 423.350585938 396 384.350585938 410 345.350585938 410 c 0
582.350585938 790 m 1
 418.350585938 603 l 1
 287.350585938 603 l 1
 404.350585938 790 l 1
 582.350585938 790 l 1
EndSplineSet
Fore
SplineSet
436.404296875 868 m 5
 565.404296875 782 l 5
 417.904296875 557.75 l 5
 326.404296875 595 l 5
 436.404296875 868 l 5
EndSplineSet
Refer: 67 101 S 1 0 0 1 0 0 3
Validated: 1
Layer: 2
EndChar
StartChar: ecircumflex
Encoding: 152 234 242
Width: 556
Flags: HMW
HStem: -15 125<273.5 331 273.5 335.5> 217 102<232 360 210 369> 319 91<326 369 369 370.5 326 388> 410 125<326 370.5> 600 180<180 481 180 481 434 481 344 575 434 434>
VStem: 430 155<366 366>
LayerCount: 3
Back
SplineSet
544 141 m 1xac
 485 38 398 -15 273 -15 c 0
 139 -15 31 68 68 260 c 0
 105 452 246 535 379 535 c 0
 486 535 592 487 585 366 c 0
 579 252 483 217 360 217 c 2
 210 217 l 1
 200 145 240 110 307 110 c 0
 355 110 391 137 409 170 c 1
 544 141 l 1xac
351 410 m 0
 301 410 249 376 232 319 c 1
 369 319 l 2
 407 319 431 337 430 366 c 0
 429 396 390 410 351 410 c 0
344 780 m 1
 481 780 l 1xdc
 575 600 l 1
 434 600 l 1
 395 691 l 1
 318 600 l 1
 180 600 l 1
 344 780 l 1
EndSplineSet
Fore
Refer: 169 94 N 1 0 0 1 2.24983 125 2
Refer: 67 101 S 1 0 0 1 0 0 3
Validated: 1
Layer: 2
EndChar
StartChar: edieresis
Encoding: 153 235 242
Width: 556
Flags: HMW
HStem: -15 125<273.5 331 273.5 335.5> 217 102<232 360 210 369> 319 91<326 369 369 370.5 326 388> 410 125<326 370.5> 580 140<227 352 201 378 227 427 453 578>
VStem: 430 155<366 366>
LayerCount: 3
Back
SplineSet
544 141 m 1xac
 485 38 398 -15 273 -15 c 0
 139 -15 31 68 68 260 c 0
 105 452 246 535 379 535 c 0
 486 535 592 487 585 366 c 0
 579 252 483 217 360 217 c 2
 210 217 l 1
 200 145 240 110 307 110 c 0
 355 110 391 137 409 170 c 1
 544 141 l 1xac
351 410 m 0
 301 410 249 376 232 319 c 1
 369 319 l 2
 407 319 431 337 430 366 c 0
 429 396 390 410 351 410 c 0
352 580 m 1
 201 580 l 1
 227 720 l 1xdc
 378 720 l 1
 352 580 l 1
578 580 m 1
 427 580 l 1
 453 720 l 1
 604 720 l 1
 578 580 l 1
EndSplineSet
Fore
SplineSet
490.6171875 730.735351562 m 5
 569.359375 715.033203125 l 5
 601.647460938 671.5390625 l 5
 586.919921875 597.416992188 l 5
 540.46484375 569.553710938 l 5
 461.721679688 585.256835938 l 5
 429.43359375 628.75 l 5
 444.161132812 702.872070312 l 5
 490.6171875 730.735351562 l 5
264.93359375 730.735351562 m 5
 343.67578125 715.033203125 l 5
 375.963867188 671.5390625 l 5
 361.236328125 597.416992188 l 5
 314.78125 569.553710938 l 5
 236.038085938 585.256835938 l 5
 203.75 628.75 l 5
 218.477539062 702.872070312 l 5
 264.93359375 730.735351562 l 5
EndSplineSet
Refer: 67 101 N 1 0 0 1 0 0 3
Validated: 1
Layer: 2
EndChar
StartChar: igrave
Encoding: 154 236 241
Width: 258
Flags: HMW
HStem: 0 21G<50 200 50 50> 500 20G<149 299 299 299> 603 187<203 272 100 328 203 203>
LayerCount: 3
Back
SplineSet
200 0 m 1
 50 0 l 1
 149 520 l 1
 299 520 l 1
 200 0 l 1
272 790 m 1
 328 603 l 1
 203 603 l 1
 100 790 l 1
 272 790 l 1
EndSplineSet
Fore
SplineSet
197 -15 m 1
 52 11 l 1
 152 535 l 1
 296 505 l 1
 197 -15 l 1
EndSplineSet
Refer: 182 96 S 1 0 0 1 -34.846 62 2
Validated: 1
Layer: 2
EndChar
StartChar: iacute
Encoding: 155 237 240
Width: 258
Flags: HMW
HStem: 0 21G<50 200 50 50> 500 20G<149 299 299 299> 603 187<260 274 143 438>
LayerCount: 3
Back
SplineSet
200 0 m 1
 50 0 l 1
 149 520 l 1
 299 520 l 1
 200 0 l 1
438 790 m 1
 274 603 l 1
 143 603 l 1
 260 790 l 1
 438 790 l 1
EndSplineSet
Fore
SplineSet
291.405273438 868 m 5
 420.405273438 782 l 5
 272.905273438 557.75 l 5
 181.405273438 595 l 5
 291.405273438 868 l 5
197 -15 m 1
 52 11 l 1
 152 535 l 1
 296 505 l 1
 197 -15 l 1
EndSplineSet
Validated: 1
Layer: 2
EndChar
StartChar: icircumflex
Encoding: 156 238 239
Width: 258
Flags: HMW
HStem: 0 21G<50 200 50 50> 500 20G<149 299 299 299> 600 180<40 341 40 341 294 341 204 435 294 294>
LayerCount: 3
Back
SplineSet
200 0 m 1
 50 0 l 1
 149 520 l 1
 299 520 l 1
 200 0 l 1
204 780 m 1
 341 780 l 1
 435 600 l 1
 294 600 l 1
 255 691 l 1
 178 600 l 1
 40 600 l 1
 204 780 l 1
EndSplineSet
Fore
SplineSet
197 -15 m 5
 52 11 l 5
 152 535 l 5
 296 505 l 5
 197 -15 l 5
EndSplineSet
Refer: 169 94 N 1 0 0 1 -151.25 125 2
Validated: 1
Layer: 2
EndChar
StartChar: idieresis
Encoding: 157 239 237
Width: 258
Flags: HMW
HStem: 0 21G<50 200 50 50> 500 20G<149 299 299 299> 584 136<88 211 61 238 88 261 288 411>
LayerCount: 3
Back
SplineSet
211 584 m 1
 61 584 l 1
 88 720 l 1
 238 720 l 1
 211 584 l 1
200 0 m 1
 50 0 l 1
 149 520 l 1
 299 520 l 1
 200 0 l 1
411 584 m 1
 261 584 l 1
 288 720 l 1
 438 720 l 1
 411 584 l 1
EndSplineSet
Fore
SplineSet
324.6171875 730.735351562 m 5
 403.359375 715.033203125 l 5
 435.647460938 671.5390625 l 5
 420.919921875 597.416992188 l 5
 374.46484375 569.553710938 l 5
 295.721679688 585.256835938 l 5
 263.43359375 628.75 l 5
 278.161132812 702.872070312 l 5
 324.6171875 730.735351562 l 5
124.43359375 730.735351562 m 5
 203.17578125 715.033203125 l 5
 235.463867188 671.5390625 l 5
 220.736328125 597.416992188 l 5
 174.28125 569.553710938 l 5
 95.5380859375 585.256835938 l 5
 63.25 628.75 l 5
 77.9775390625 702.872070312 l 5
 124.43359375 730.735351562 l 5
197 -15 m 1
 52 11 l 1
 152 535 l 1
 296 505 l 1
 197 -15 l 1
EndSplineSet
Validated: 1
Layer: 2
EndChar
StartChar: eth
Encoding: 158 240 236
Width: 561
Flags: HMW
HStem: -15 125<271.5 320.5 271.5 336.5> 370 125<326.5 362 280.5 375.5> 802 20G<367 367>
LayerCount: 3
Back
SplineSet
472 784 m 1
 448 720 l 1
 593 636 627 442 581 240 c 0
 540 58 401 -15 272 -15 c 0
 173 -15 29 53 66 245 c 0
 103 437 236 495 325 495 c 0
 399 495 453 457 467 435 c 1
 464 473 450 534 396 577 c 1
 379 530 l 1
 275 568 l 1
 294 620 l 1
 274 624 252 626 228 626 c 1
 265 765 l 1
 293 765 319 762 344 758 c 1
 367 822 l 1
 472 784 l 1
215 240 m 0
 197 143 247 110 296 110 c 0
 345 110 413 143 431 240 c 0
 450 337 400 370 351 370 c 0
 302 370 234 337 215 240 c 0
EndSplineSet
Fore
Validated: 1
Layer: 2
EndChar
StartChar: ntilde
Encoding: 159 241 236
Width: 584
Flags: HMW
HStem: 0 21G<50 200 50 50 375 375 375 525> 409 111<149 402> 409 126<347 510> 595 120<482.5 488> 645 120<347 362.5>
LayerCount: 3
Back
SplineSet
200 0 m 1xd0
 50 0 l 1
 149 520 l 1xc8
 290 520 l 1xd0
 276 445 l 1
 326 509 376 535 438 535 c 0xc8
 582 535 609 443 586 319 c 2xd0
 525 0 l 1xc8
 375 0 l 1
 435 315 l 2
 447 375 431 409 373 409 c 0
 321 409 270 367 253 283 c 2
 200 0 l 1xd0
233 595 m 1
 258 725 l 1
 292 755 333 765 361 765 c 0
 430 765 458 715 507 715 c 0
 535 715 576 725 612 765 c 1
 587 635 l 1
 553 605 502 595 474 595 c 0xb0
 405 595 387 645 338 645 c 0
 310 645 269 635 233 595 c 1
EndSplineSet
Fore
SplineSet
168.693359375 676.135742188 m 5
 309.236328125 757.950195312 l 5
 359.436523438 766.873046875 l 5
 441.501953125 741.366210938 l 5
 508.325195312 715.860351562 l 5
 558.76953125 726.03125 l 5
 615.461914062 766.873046875 l 5
 676.654296875 681.235351562 l 5
 530.060546875 602.456054688 l 5
 474.823242188 593.5 l 5
 397.78515625 619.006835938 l 5
 336.052734375 644.512695312 l 5
 285.620117188 634.341796875 l 5
 229 593.5 l 5
 168.693359375 676.135742188 l 5
50.75 13 m 1
 150.25 535 l 1
 285.875 508.981445312 l 1
 274.799804688 448.520507812 l 1
 352.805664062 518.9921875 l 1
 439.928710938 540.356445312 l 1
 579.326171875 477.624023438 l 1
 587.797851562 320.62109375 l 1
 523.75 -15 l 1
 379.196289062 13.31640625 l 1
 436.953125 315.962890625 l 1
 432.087890625 386.799804688 l 1
 373.779296875 411.787109375 l 1
 299.239257812 379.665039062 l 1
 251.420898438 283.389648438 l 1
 195.25 -15 l 1
 50.75 12.830078125 l 1
 50.75 13 l 1
EndSplineSet
Validated: 1
Layer: 2
EndChar
StartChar: ograve
Encoding: 160 242 234
Width: 572
Flags: HMW
HStem: -15 125<262.5 331.5 262.5 342.5> 410 125<320.5 389.5> 603 187<333 402 230 458 333 333>
LayerCount: 3
Back
SplineSet
68 260 m 0
 105 452 240 535 379 535 c 0
 518 535 621 452 584 260 c 0
 547 68 412 -15 273 -15 c 0
 134 -15 31 68 68 260 c 0
218 260 m 0
 200 163 228 110 297 110 c 0
 366 110 416 163 434 260 c 0
 452 357 424 410 355 410 c 0
 286 410 236 357 218 260 c 0
402 790 m 1
 458 603 l 1
 333 603 l 1
 230 790 l 1
 402 790 l 1
EndSplineSet
Fore
Refer: 182 96 S 1 0 0 1 94.4043 62 2
Refer: 77 111 S 1 0 0 1 0 0 3
Validated: 1
Layer: 2
EndChar
StartChar: oacute
Encoding: 161 243 234
Width: 572
Flags: HMW
HStem: -15 125<262.5 331.5 262.5 342.5> 410 125<320.5 389.5> 603 187<420 434 303 598>
LayerCount: 3
Back
SplineSet
68 260 m 0
 105 452 240 535 379 535 c 0
 518 535 621 452 584 260 c 0
 547 68 412 -15 273 -15 c 0
 134 -15 31 68 68 260 c 0
218 260 m 0
 200 163 228 110 297 110 c 0
 366 110 416 163 434 260 c 0
 452 357 424 410 355 410 c 0
 286 410 236 357 218 260 c 0
598 790 m 1
 434 603 l 1
 303 603 l 1
 420 790 l 1
 598 790 l 1
EndSplineSet
Fore
SplineSet
451.154296875 868 m 5
 580.154296875 782 l 5
 432.654296875 557.75 l 5
 341.154296875 595 l 5
 451.154296875 868 l 5
EndSplineSet
Refer: 77 111 N 1 0 0 1 0 0 3
Validated: 1
Layer: 2
EndChar
StartChar: ocircumflex
Encoding: 162 244 232
Width: 572
Flags: HMW
HStem: -15 125<262.5 331.5 262.5 342.5> 410 125<320.5 389.5> 600 180<190 491 190 491 444 491 354 585 444 444>
LayerCount: 3
Back
SplineSet
68 260 m 0
 105 452 240 535 379 535 c 0
 518 535 621 452 584 260 c 0
 547 68 412 -15 273 -15 c 0
 134 -15 31 68 68 260 c 0
218 260 m 0
 200 163 228 110 297 110 c 0
 366 110 416 163 434 260 c 0
 452 357 424 410 355 410 c 0
 286 410 236 357 218 260 c 0
354 780 m 1
 491 780 l 1
 585 600 l 1
 444 600 l 1
 405 691 l 1
 328 600 l 1
 190 600 l 1
 354 780 l 1
EndSplineSet
Fore
Refer: 169 94 N 1 0 0 1 2.24983 125 2
Refer: 77 111 N 1 0 0 1 0 0 3
Validated: 1
Layer: 2
EndChar
StartChar: otilde
Encoding: 163 245 231
Width: 572
Flags: HMW
HStem: -15 125<262.5 331.5 262.5 342.5> 410 125<320.5 389.5> 645 70 645 120<327 342.5>
LayerCount: 3
Back
SplineSet
68 260 m 0xd0
 105 452 240 535 379 535 c 0
 518 535 621 452 584 260 c 0
 547 68 412 -15 273 -15 c 0
 134 -15 31 68 68 260 c 0xd0
218 260 m 0xe0
 200 163 228 110 297 110 c 0
 366 110 416 163 434 260 c 0
 452 357 424 410 355 410 c 0xd0
 286 410 236 357 218 260 c 0xe0
213 595 m 1
 238 725 l 1
 272 755 313 765 341 765 c 0
 410 765 438 715 487 715 c 0
 515 715 556 725 592 765 c 1
 567 635 l 1
 533 605 482 595 454 595 c 0
 385 595 367 645 318 645 c 0
 290 645 249 635 213 595 c 1
EndSplineSet
Fore
SplineSet
149.193359375 676.135742188 m 1
 289.736328125 757.950195312 l 1
 339.936523438 766.873046875 l 1
 422.001953125 741.366210938 l 1
 488.825195312 715.860351562 l 1
 539.26953125 726.03125 l 1
 595.961914062 766.873046875 l 1
 657.154296875 681.235351562 l 1
 510.560546875 602.456054688 l 1
 455.323242188 593.5 l 1
 378.28515625 619.006835938 l 1
 316.552734375 644.512695312 l 1
 266.120117188 634.341796875 l 1
 209.5 593.5 l 1
 149.193359375 676.135742188 l 1
EndSplineSet
Refer: 77 111 S 1 0 0 1 0 0 3
Validated: 1
Layer: 2
EndChar
StartChar: odieresis
Encoding: 164 246 230
Width: 572
Flags: HMW
HStem: -15 125<262.5 331.5 262.5 342.5> 410 125<320.5 389.5> 580 140<232 357 206 383 232 422 448 573>
LayerCount: 3
Back
SplineSet
68 260 m 0
 105 452 240 535 379 535 c 0
 518 535 621 452 584 260 c 0
 547 68 412 -15 273 -15 c 0
 134 -15 31 68 68 260 c 0
218 260 m 0
 200 163 228 110 297 110 c 0
 366 110 416 163 434 260 c 0
 452 357 424 410 355 410 c 0
 286 410 236 357 218 260 c 0
357 580 m 1
 206 580 l 1
 232 720 l 1
 383 720 l 1
 357 580 l 1
573 580 m 1
 422 580 l 1
 448 720 l 1
 599 720 l 1
 573 580 l 1
EndSplineSet
Fore
SplineSet
485.8671875 730.735351562 m 5
 564.609375 715.033203125 l 5
 596.897460938 671.5390625 l 5
 582.169921875 597.416992188 l 5
 535.71484375 569.553710938 l 5
 456.971679688 585.256835938 l 5
 424.68359375 628.75 l 5
 439.411132812 702.872070312 l 5
 485.8671875 730.735351562 l 5
269.43359375 730.735351562 m 5
 348.17578125 715.033203125 l 5
 380.463867188 671.5390625 l 5
 365.736328125 597.416992188 l 5
 319.28125 569.553710938 l 5
 240.538085938 585.256835938 l 5
 208.25 628.75 l 5
 222.977539062 702.872070312 l 5
 269.43359375 730.735351562 l 5
EndSplineSet
Refer: 77 111 N 1 0 0 1 0 0 3
Validated: 1
Layer: 2
EndChar
StartChar: divide
Encoding: 165 247 229
Width: 558
Flags: HMW
HStem: 102 150<250 372 221 401> 300 125<132 564 108 588> 472 150<322 444 293 473>
LayerCount: 3
Back
SplineSet
564 300 m 1
 108 300 l 1
 132 425 l 1
 588 425 l 1
 564 300 l 1
444 472 m 1
 293 472 l 1
 322 622 l 1
 473 622 l 1
 444 472 l 1
372 102 m 1
 221 102 l 1
 250 252 l 1
 401 252 l 1
 372 102 l 1
EndSplineSet
Fore
SplineSet
358.5 627.5 m 5
 437.2421875 611.797851562 l 5
 469.530273438 568.303710938 l 5
 454.802734375 494.181640625 l 5
 408.34765625 466.318359375 l 5
 329.604492188 482.021484375 l 5
 297.31640625 525.514648438 l 5
 312.043945312 599.63671875 l 5
 358.5 627.5 l 5
286.219726562 257.696289062 m 1
 364.961914062 241.994140625 l 1
 397.25 198.5 l 1
 382.522460938 124.377929688 l 1
 336.067382812 96.5146484375 l 1
 257.32421875 112.217773438 l 1
 225.036132812 155.7109375 l 1
 239.763671875 229.833007812 l 1
 286.219726562 257.696289062 l 1
588 300 m 1
 108 300 l 1
 108 425 l 1
 588 425 l 1
 588 300 l 1
EndSplineSet
Validated: 1
Layer: 2
EndChar
StartChar: oslash
Encoding: 166 248 228
Width: 572
Flags: HMW
HStem: -15 125<291 333.5 291 344.5> 410 125<322.5 365>
LayerCount: 3
Back
SplineSet
602 465 m 1
 571 434 l 1
 592 391 598 333 584 260 c 0
 547 68 412 -15 273 -15 c 0
 227 -15 185 -6 151 12 c 1
 124 -15 l 1
 51 55 l 1
 81 85 l 1
 60 128 54 186 68 260 c 0
 105 452 240 535 379 535 c 0
 425 535 466 526 501 507 c 1
 529 535 l 1
 602 465 l 1
218 260 m 0
 215 244 213 230 213 217 c 1
 396 401 l 1
 384 407 371 410 355 410 c 0
 286 410 236 357 218 260 c 0
434 260 m 0
 437 275 438 288 439 301 c 1
 256 118 l 1
 268 112 281 110 297 110 c 0
 366 110 416 163 434 260 c 0
EndSplineSet
Fore
SplineSet
576 439 m 1
 595.78125 360.154296875 l 1
 588.977539062 259.865234375 l 1
 469.5 46.2646484375 l 1
 271.900390625 -20.47265625 l 1
 205.034179688 -13.6689453125 l 1
 146 7 l 1
 124 -15 l 1
 51 55 l 1
 76 80 l 1
 56.0087890625 158.818359375 l 1
 62.8125 259.838867188 l 1
 182.322265625 473.592773438 l 1
 379.889648438 540.356445312 l 1
 446.405273438 533.3828125 l 1
 506 512 l 1
 529 535 l 1
 602 465 l 1
 576 439 l 1
211 215 m 1
 399 404 l 1
 377.955078125 410.545898438 l 1
 355.571289062 412.7578125 l 1
 266.171875 373.3203125 l 1
 215.866210938 259.780273438 l 1
 212.166015625 236.774414062 l 1
 211 215 l 1
254 116 m 1
 274.05859375 108.767578125 l 1
 296.474609375 106.895507812 l 1
 385.810546875 146.333007812 l 1
 436.178710938 259.865234375 l 1
 439.461914062 281.611328125 l 1
 442 304 l 1
 254 116 l 1
EndSplineSet
Validated: 1
Layer: 2
EndChar
StartChar: ugrave
Encoding: 167 249 227
Width: 574
Flags: HMW
HStem: -15 126<153 316> 0 111<261 515 261 374> 500 20G<139 289 289 289 464 614 614 614> 603 187<333 402 230 458 333 333>
LayerCount: 3
Back
SplineSet
464 520 m 1xb0
 614 520 l 1
 515 0 l 1
 374 0 l 1
 388 75 l 1
 337 11 287 -15 225 -15 c 0
 81 -15 54 77 78 201 c 2
 139 520 l 1
 289 520 l 1
 229 205 l 2
 217 145 232 111 290 111 c 0
 342 111 393 153 410 237 c 2
 464 520 l 1xb0
402 790 m 1
 458 603 l 1
 333 603 l 1x70
 230 790 l 1
 402 790 l 1
EndSplineSet
Fore
Refer: 182 96 S 1 0 0 1 82.5201 62 2
Refer: 83 117 S 1 0 0 1 0 0 3
Validated: 1
Layer: 2
EndChar
StartChar: uacute
Encoding: 168 250 227
Width: 574
Flags: HMW
HStem: -15 126<153 316> 0 111<261 515 261 374> 500 20G<139 289 289 289 464 614 614 614> 603 187<410 424 293 588>
LayerCount: 3
Back
SplineSet
464 520 m 1xb0
 614 520 l 1
 515 0 l 1
 374 0 l 1
 388 75 l 1
 337 11 287 -15 225 -15 c 0
 81 -15 54 77 78 201 c 2
 139 520 l 1
 289 520 l 1
 229 205 l 2
 217 145 232 111 290 111 c 0
 342 111 393 153 410 237 c 2
 464 520 l 1xb0
588 790 m 1
 424 603 l 1
 293 603 l 1x70
 410 790 l 1
 588 790 l 1
EndSplineSet
Fore
SplineSet
441.520507812 868.25 m 5
 570.520507812 782.25 l 5
 423.020507812 558 l 5
 331.520507812 595.25 l 5
 441.520507812 868.25 l 5
EndSplineSet
Refer: 83 117 N 1 0 0 1 0 0 3
Validated: 1
Layer: 2
EndChar
StartChar: ucircumflex
Encoding: 169 251 226
Width: 574
Flags: HMW
HStem: -15 126<153 316> 0 111<261 515 261 374> 500 20G<139 289 289 289 464 614 614 614> 600 180<200 501 200 501 454 501 364 595 454 454>
LayerCount: 3
Back
SplineSet
464 520 m 1xb0
 614 520 l 1
 515 0 l 1
 374 0 l 1
 388 75 l 1
 337 11 287 -15 225 -15 c 0
 81 -15 54 77 78 201 c 2
 139 520 l 1
 289 520 l 1
 229 205 l 2
 217 145 232 111 290 111 c 0
 342 111 393 153 410 237 c 2
 464 520 l 1xb0
364 780 m 1
 501 780 l 1
 595 600 l 1
 454 600 l 1
 415 691 l 1
 338 600 l 1x70
 200 600 l 1
 364 780 l 1
EndSplineSet
Fore
Refer: 169 94 N 1 0 0 1 2.61564 125 2
Refer: 83 117 S 1 0 0 1 0 0 3
Validated: 1
Layer: 2
EndChar
StartChar: udieresis
Encoding: 170 252 225
Width: 574
Flags: HMW
HStem: -15 126<153 316> 0 111<261 515 261 374> 500 20G<139 289 289 289 464 614 614 614> 580 140<232 357 206 383 232 422 448 573>
LayerCount: 3
Back
SplineSet
464 520 m 1xb0
 614 520 l 1
 515 0 l 1
 374 0 l 1
 388 75 l 1
 337 11 287 -15 225 -15 c 0
 81 -15 54 77 78 201 c 2
 139 520 l 1
 289 520 l 1
 229 205 l 2
 217 145 232 111 290 111 c 0
 342 111 393 153 410 237 c 2
 464 520 l 1xb0
357 580 m 1
 206 580 l 1
 232 720 l 1
 383 720 l 1
 357 580 l 1
573 580 m 1
 422 580 l 1
 448 720 l 1x70
 599 720 l 1
 573 580 l 1
EndSplineSet
Fore
SplineSet
485.8671875 730.735351562 m 5
 564.609375 715.033203125 l 5
 596.897460938 671.5390625 l 5
 582.169921875 597.416992188 l 5
 535.71484375 569.553710938 l 5
 456.971679688 585.256835938 l 5
 424.68359375 628.75 l 5
 439.411132812 702.872070312 l 5
 485.8671875 730.735351562 l 5
269.43359375 730.735351562 m 5
 348.17578125 715.033203125 l 5
 380.463867188 671.5390625 l 5
 365.736328125 597.416992188 l 5
 319.28125 569.553710938 l 5
 240.538085938 585.256835938 l 5
 208.25 628.75 l 5
 222.977539062 702.872070312 l 5
 269.43359375 730.735351562 l 5
EndSplineSet
Refer: 83 117 N 1 0 0 1 0 0 3
Validated: 1
Layer: 2
EndChar
StartChar: yacute
Encoding: 171 253 223
Width: 556
Flags: HMW
HStem: -210 134<75.5 112.5 75.5 141.5> 500 20G<106 259 259 259 498 646 646 646> 603 187<420 434 303 598>
LayerCount: 3
Back
SplineSet
10 -195 m 1
 25 -62 l 1
 41 -69 58 -76 93 -76 c 0
 132 -76 171 -62 201 -9 c 2
 209 5 l 1
 106 520 l 1
 259 520 l 1
 313 177 l 1
 498 520 l 1
 646 520 l 1
 337 -29 l 2
 270 -149 189 -210 94 -210 c 0
 57 -210 27 -202 10 -195 c 1
598 790 m 1
 434 603 l 1
 303 603 l 1
 420 790 l 1
 598 790 l 1
EndSplineSet
Fore
Validated: 1
Layer: 2
EndChar
StartChar: thorn
Encoding: 172 254 223
Width: 577
Flags: HMW
HStem: -200 21G<10 160 10 10> -15 125<295 345 281 378> 410 125<397.5 401.5> 700 20G<186 336 336 336>
LayerCount: 3
Back
SplineSet
160 -200 m 1
 10 -200 l 1
 186 720 l 1
 336 720 l 1
 287 459 l 1
 326 509 368 535 427 535 c 0
 551 535 633 442 598 260 c 0
 563 78 440 -15 316 -15 c 0
 274 -15 227 -2 207 45 c 1
 160 -200 l 1
237 260 m 0
 218 158 249 110 313 110 c 0
 377 110 429 158 448 260 c 0
 468 362 431 410 372 410 c 0
 313 410 257 362 237 260 c 0
EndSplineSet
Fore
Validated: 1
Layer: 2
EndChar
StartChar: ydieresis
Encoding: 173 255 222
Width: 572
Flags: HMW
HStem: -210 134<75.5 112.5 75.5 141.5> 500 20G<106 259 259 259 498 646 646 646> 580 140<217 342 191 368 217 417 443 568>
LayerCount: 3
Back
SplineSet
10 -195 m 1
 25 -62 l 1
 41 -69 58 -76 93 -76 c 0
 132 -76 171 -62 201 -9 c 2
 209 5 l 1
 106 520 l 1
 259 520 l 1
 313 177 l 1
 498 520 l 1
 646 520 l 1
 337 -29 l 2
 270 -149 189 -210 94 -210 c 0
 57 -210 27 -202 10 -195 c 1
342 580 m 1
 191 580 l 1
 217 720 l 1
 368 720 l 1
 342 580 l 1
568 580 m 1
 417 580 l 1
 443 720 l 1
 594 720 l 1
 568 580 l 1
EndSplineSet
Fore
Validated: 1
Layer: 2
EndChar
StartChar: Abreve
Encoding: -1 258 325
Width: 1000
Flags: HM
LayerCount: 3
Back
SplineSet
434 720 m 1xe8
 578 720 l 1
 720 0 l 1xe8
 555 0 l 1xf0
 531 130 l 1
 244 130 l 1
 173 0 l 1
 10 0 l 1
 434 720 l 1xe8
463 521 m 1
 319 262 l 1
 509 262 l 1
 463 521 l 1
604 920 m 1
 724 920 l 1
 706 825 636 753 506 753 c 0
 376 753 338 826 356 920 c 1
 476 920 l 1
 466 870 486 847 524 847 c 0
 562 847 594 870 604 920 c 1
EndSplineSet
Fore
Validated: 1
Layer: 2
EndChar
StartChar: abreve
Encoding: -1 259 309
Width: 1000
Flags: HM
LayerCount: 3
Back
SplineSet
350 54 m 1xa8
 298 2 250 -15 188 -15 c 0x70
 94 -15 25 36 44 132 c 0xa8
 65 244 151 286 280 301 c 0
 335 307 368 313 396 325 c 1
 399 337 l 2
 405 371 394 413 331 413 c 0
 273 413 243 374 226 336 c 1
 107 378 l 1
 156 498 265 535 362 535 c 0
 495 535 576 475 544 314 c 2
 505 106 l 2
 494 53 500 19 515 0 c 1
 364 0 l 1xb0
 350 13 349 37 350 54 c 1xa8
366 165 m 1
 379 235 l 1
 359 228 334 219 282 209 c 0
 234 200 201 183 195 142 c 0
 192 119 201 97 244 97 c 0
 291 97 342 130 366 165 c 1
452 720 m 1
 557 720 l 1
 538 625 460 573 360 573 c 0
 260 573 200 626 219 720 c 1
 324 720 l 1
 321 680 349 664 377 664 c 0xb0
 405 664 439 680 452 720 c 1
EndSplineSet
Fore
Validated: 1
Layer: 2
EndChar
StartChar: Aogonek
Encoding: -1 260 333
Width: 1000
Flags: HM
LayerCount: 3
Back
SplineSet
435 720 m 1
 579 720 l 1
 720 0 l 1
 685 0 l 2
 627 0 588 -39 580 -80 c 0
 573 -118 592 -139 625 -139 c 0
 655 -139 677 -123 698 -93 c 1
 755 -158 l 1
 731 -193 675 -239 603 -239 c 0
 514 -239 459 -187 476 -99 c 0
 487 -44 519 -10 552 12 c 1
 532 130 l 1
 245 130 l 1
 173 0 l 1
 10 0 l 1
 435 720 l 1
465 521 m 1
 319 262 l 1
 509 262 l 1
 465 521 l 1
EndSplineSet
Fore
Validated: 1
Layer: 2
EndChar
StartChar: aogonek
Encoding: -1 261 330
Width: 1000
Flags: HM
LayerCount: 3
Back
SplineSet
362 54 m 1xd0
 309 2 262 -15 200 -15 c 0
 106 -15 36 36 55 132 c 0
 77 244 163 286 292 301 c 0
 347 307 380 313 409 325 c 1
 411 337 l 2
 418 371 407 413 344 413 c 0
 286 413 255 374 238 336 c 1
 119 378 l 1
 168 498 277 535 374 535 c 0
 507 535 588 475 557 314 c 2
 516 106 l 2
 506 53 511 19 526 0 c 1
 495 0 l 2xb0
 444 0 400 -29 390 -80 c 0
 383 -118 402 -139 435 -139 c 0
 465 -139 487 -123 508 -93 c 1
 565 -158 l 1
 541 -193 485 -239 413 -239 c 0
 324 -239 269 -187 286 -99 c 0
 299 -33 345 1 384 20 c 1
 375 26 363 41 362 54 c 1xd0
378 165 m 1
 391 235 l 1
 372 228 346 219 294 209 c 0
 246 200 213 183 207 142 c 0
 204 119 213 97 256 97 c 0xd0
 303 97 354 130 378 165 c 1
EndSplineSet
Fore
Validated: 1
Layer: 2
EndChar
StartChar: Cacute
Encoding: -1 262 322
Width: 1000
Flags: HM
LayerCount: 3
Back
SplineSet
274 360 m 0
 245 213 301 125 411 125 c 0
 489 125 550 165 591 250 c 1
 740 206 l 1
 669 68 557 -15 384 -15 c 0
 164 -15 66 143 109 360 c 0
 150 577 314 735 534 735 c 0
 697 735 827 643 799 479 c 1
 634 479 l 1
 640 559 585 595 507 595 c 0
 397 595 302 507 274 360 c 0
748 990 m 1
 584 803 l 1
 453 803 l 1
 570 990 l 1
 748 990 l 1
EndSplineSet
Fore
Validated: 1
Layer: 2
EndChar
StartChar: Ccaron
Encoding: -1 268 322
Width: 1000
Flags: HM
LayerCount: 3
Back
SplineSet
274 360 m 0
 245 213 301 125 411 125 c 0
 489 125 550 165 591 250 c 1
 740 206 l 1
 669 68 557 -15 384 -15 c 0
 164 -15 66 143 109 360 c 0
 150 577 314 735 534 735 c 0
 697 735 827 643 799 479 c 1
 634 479 l 1
 640 559 585 595 507 595 c 0
 397 595 302 507 274 360 c 0
615 790 m 1
 478 790 l 1
 366 980 l 1
 504 980 l 1
 561 879 l 1
 660 980 l 1
 801 980 l 1
 615 790 l 1
EndSplineSet
Fore
Validated: 1
Layer: 2
EndChar
StartChar: ccaron
Encoding: -1 269 305
Width: 1000
Flags: HM
LayerCount: 3
Back
SplineSet
218 260 m 0xd0
 200 163 222 110 287 110 c 0
 335 110 373 135 396 196 c 1
 540 175 l 1
 485 36 375 -15 263 -15 c 0
 129 -15 31 68 68 260 c 0
 105 452 235 535 369 535 c 0
 491 535 602 476 560 312 c 1
 410 312 l 1
 423 368 403 410 345 410 c 0
 283 410 236 357 218 260 c 0xd0
440 600 m 1
 303 600 l 1
 209 780 l 1
 347 780 l 1
 386 689 l 1
 463 780 l 1
 604 780 l 1xb0
 440 600 l 1
EndSplineSet
Fore
Validated: 1
Layer: 2
EndChar
StartChar: Dcaron
Encoding: -1 270 318
Width: 1000
Flags: HM
LayerCount: 3
Back
SplineSet
320 0 m 2
 70 0 l 1
 208 720 l 1
 447 720 l 2
 689 720 787 594 743 362 c 0
 699 137 562 0 320 0 c 2
340 575 m 1
 257 144 l 1
 322 144 l 2
 458 144 548 196 580 363 c 0
 616 547 520 575 402 575 c 2
 340 575 l 1
515 790 m 1
 378 790 l 1
 266 980 l 1
 404 980 l 1
 461 879 l 1
 560 980 l 1
 701 980 l 1
 515 790 l 1
EndSplineSet
Fore
Validated: 1
Layer: 2
EndChar
StartChar: dcaron
Encoding: -1 271 339
Width: 1000
Flags: HM
LayerCount: 3
Back
SplineSet
514 720 m 1xb0
 664 720 l 1
 525 0 l 1
 385 0 l 1
 396 61 l 1
 357 11 305 -15 246 -15 c 0
 122 -15 40 78 75 260 c 0
 110 442 233 535 357 535 c 0
 399 535 446 522 467 475 c 1
 514 720 l 1xb0
436 260 m 0
 456 362 424 410 360 410 c 0
 296 410 245 362 225 260 c 0
 205 158 242 110 301 110 c 0
 360 110 416 158 436 260 c 0
767 570 m 1
 690 570 l 1
 719 720 l 1
 870 720 l 1
 841 570 l 2
 825 485 773 437 714 413 c 1x70
 689 476 l 1
 727 491 757 516 767 570 c 1
EndSplineSet
Fore
Validated: 1
Layer: 2
EndChar
StartChar: Dcroat
Encoding: -1 272 317
Width: 1000
Flags: HM
LayerCount: 3
Back
SplineSet
390 0 m 2
 140 0 l 1
 198 300 l 1
 68 300 l 1
 92 425 l 1
 222 425 l 1
 279 720 l 1
 518 720 l 2
 760 720 859 594 814 362 c 0
 770 137 632 0 390 0 c 2
357 300 m 1
 327 144 l 1
 392 144 l 2
 528 144 619 196 651 363 c 0
 687 547 591 575 473 575 c 2
 411 575 l 1
 382 425 l 1
 508 425 l 1
 484 300 l 1
 357 300 l 1
EndSplineSet
Fore
Validated: 1
Layer: 2
EndChar
StartChar: dcroat
Encoding: -1 273 303
Width: 1000
Flags: HM
LayerCount: 3
Back
SplineSet
477 562 m 1xb0
 423 562 l 1
 441 658 l 1
 496 658 l 1
 508 720 l 1
 658 720 l 1
 646 658 l 1
 701 658 l 1
 683 562 l 1
 627 562 l 1
 520 0 l 1
 380 0 l 1
 391 61 l 1x70
 351 11 299 -15 240 -15 c 0
 116 -15 34 78 69 260 c 0
 104 442 227 535 351 535 c 0
 393 535 440 522 461 475 c 1
 477 562 l 1xb0
430 260 m 0
 450 362 418 410 354 410 c 0
 290 410 239 362 219 260 c 0xa8
 200 158 236 110 295 110 c 0
 354 110 411 158 430 260 c 0
EndSplineSet
Fore
Validated: 1
Layer: 2
EndChar
StartChar: Eogonek
Encoding: -1 280 320
Width: 1000
Flags: HM
LayerCount: 3
Back
SplineSet
455 0 m 1
 70 0 l 1
 209 720 l 1
 736 720 l 1
 708 575 l 1
 341 575 l 1
 315 440 l 1
 632 440 l 1
 604 295 l 1
 287 295 l 1
 258 145 l 1
 635 145 l 1
 607 0 l 1
 585 0 l 2
 534 0 498 -39 490 -80 c 0
 483 -118 502 -139 535 -139 c 0
 565 -139 587 -123 608 -93 c 1
 665 -158 l 1
 641 -193 582 -239 510 -239 c 0
 421 -239 369 -187 386 -99 c 0
 394 -58 422 -18 455 0 c 1
EndSplineSet
Fore
Validated: 1
Layer: 2
EndChar
StartChar: eogonek
Encoding: -1 281 304
Width: 1000
Flags: HM
LayerCount: 3
Back
SplineSet
544 141 m 1
 502 68 443 38 373 -1 c 0
 346 -16 312 -40 305 -80 c 0
 298 -118 317 -139 350 -139 c 0
 380 -139 402 -123 423 -93 c 1
 442 -115 461 -136 480 -158 c 1
 456 -193 398 -239 326 -239 c 0
 237 -239 183 -192 200 -104 c 0
 207 -72 232 -31 259 -15 c 1
 241 -14 223 -12 206 -8 c 0
 105 16 37 101 68 260 c 0
 105 452 246 535 379 535 c 0
 486 535 592 487 585 366 c 0
 579 252 483 217 360 217 c 2
 210 217 l 1
 200 145 240 110 307 110 c 0
 355 110 391 137 409 170 c 1
 454 160 499 151 544 141 c 1
351 410 m 0
 301 410 249 376 232 319 c 1
 342 319 l 2
 394 319 431 325 430 366 c 0
 429 396 390 410 351 410 c 0
EndSplineSet
Fore
Validated: 1
Layer: 2
EndChar
StartChar: lacute
Encoding: -1 314 308
Width: 1000
Flags: HM
LayerCount: 3
Back
SplineSet
200 0 m 1
 50 0 l 1
 183 695 l 1
 341 735 l 1
 200 0 l 1
488 990 m 1
 324 803 l 1
 193 803 l 1
 310 990 l 1
 488 990 l 1
EndSplineSet
Fore
Validated: 1
Layer: 2
EndChar
StartChar: Lcaron
Encoding: -1 317 327
Width: 1000
Flags: HM
LayerCount: 3
Back
SplineSet
608 0 m 1
 70 0 l 1
 208 720 l 1
 368 720 l 1
 257 145 l 1
 635 145 l 1
 608 0 l 1
375 790 m 1
 238 790 l 1
 126 980 l 1
 264 980 l 1
 321 879 l 1
 420 980 l 1
 561 980 l 1
 375 790 l 1
EndSplineSet
Fore
Validated: 1
Layer: 2
EndChar
StartChar: lcaron
Encoding: 174 318 340
Width: 421
Flags: HMW
HStem: 0 21G<55 205 55 55> 570 150<399 447 370 550 521 521> 715 20G<347 347>
LayerCount: 3
Back
SplineSet
205 0 m 1xc0
 55 0 l 1
 190 695 l 1
 347 735 l 1
 205 0 l 1xc0
447 570 m 1
 370 570 l 1
 399 720 l 1
 550 720 l 1
 521 570 l 2
 505 485 453 437 394 413 c 1xa0
 369 476 l 1
 407 491 437 516 447 570 c 1
EndSplineSet
Fore
SplineSet
390.249023438 678.120117188 m 1
 443.70703125 722.90625 l 1
 508.163085938 722.90625 l 1
 544.278320312 678.111328125 l 1
 538.120117188 646.37109375 l 1
 523.294921875 569.9375 l 1
 474.561523438 466.578125 l 1
 403.7734375 417.756835938 l 1
 367.264648438 474.11328125 l 1
 417.825195312 507.103515625 l 1
 447.788085938 569.9375 l 1
 414.100585938 569.9375 l 1
 377.973632812 614.758789062 l 1
 390.249023438 678.120117188 l 1
203.5 -15 m 1
 58.75 12.75 l 1
 197 735 l 1
 342 707.25 l 1
 203.5 -15 l 1
EndSplineSet
Validated: 1
Layer: 2
EndChar
StartChar: Lslash
Encoding: -1 321 335
Width: 1000
Flags: HM
LayerCount: 3
Back
SplineSet
688 0 m 1
 150 0 l 1
 197 245 l 1
 110 199 l 1
 69 308 l 1
 225 391 l 1
 289 720 l 1
 449 720 l 1
 404 487 l 1
 496 536 l 1
 537 427 l 1
 376 341 l 1
 338 145 l 1
 716 145 l 1
 688 0 l 1
EndSplineSet
Fore
Validated: 1
Layer: 2
EndChar
StartChar: lslash
Encoding: -1 322 330
Width: 1000
Flags: HM
LayerCount: 3
Back
SplineSet
304 0 m 1
 154 0 l 1
 202 248 l 1
 110 199 l 1
 69 308 l 1
 230 394 l 1
 289 695 l 1
 446 735 l 1
 397 483 l 1
 496 536 l 1
 537 427 l 1
 369 337 l 1
 304 0 l 1
EndSplineSet
Fore
Validated: 1
Layer: 2
EndChar
StartChar: Nacute
Encoding: -1 323 316
Width: 1000
Flags: HM
LayerCount: 3
Back
SplineSet
226 0 m 1
 70 0 l 1
 208 720 l 1
 370 720 l 1
 592 259 l 1
 681 720 l 1
 837 720 l 1
 699 0 l 1
 537 0 l 1
 313 461 l 1
 226 0 l 1
738 990 m 1
 574 803 l 1
 443 803 l 1
 560 990 l 1
 738 990 l 1
EndSplineSet
Fore
Validated: 1
Layer: 2
EndChar
StartChar: Ncaron
Encoding: -1 327 315
Width: 1000
Flags: HM
LayerCount: 3
Back
SplineSet
226 0 m 1
 70 0 l 1
 208 720 l 1
 370 720 l 1
 592 259 l 1
 681 720 l 1
 837 720 l 1
 699 0 l 1
 537 0 l 1
 313 461 l 1
 226 0 l 1
595 790 m 1
 458 790 l 1
 346 980 l 1
 484 980 l 1
 541 879 l 1
 640 980 l 1
 781 980 l 1
 595 790 l 1
EndSplineSet
Fore
Validated: 1
Layer: 2
EndChar
StartChar: Ohungarumlaut
Encoding: -1 336 314
Width: 1000
Flags: HM
LayerCount: 3
Back
SplineSet
109 360 m 0
 150 577 304 735 524 735 c 0
 743 735 835 577 794 360 c 0
 751 143 598 -15 379 -15 c 0
 159 -15 66 143 109 360 c 0
274 360 m 0
 245 213 296 125 406 125 c 0
 515 125 600 213 629 360 c 0
 657 507 606 595 497 595 c 0
 387 595 302 507 274 360 c 0
588 990 m 1
 454 803 l 1
 323 803 l 1
 410 990 l 1
 588 990 l 1
818 990 m 1
 684 803 l 1
 553 803 l 1
 640 990 l 1
 818 990 l 1
EndSplineSet
Fore
Validated: 1
Layer: 2
EndChar
StartChar: ohungarumlaut
Encoding: -1 337 299
Width: 1000
Flags: HM
LayerCount: 3
Back
SplineSet
68 260 m 0
 105 452 240 535 379 535 c 0
 518 535 621 452 584 260 c 0
 547 68 412 -15 273 -15 c 0
 134 -15 31 68 68 260 c 0
218 260 m 0
 200 163 228 110 297 110 c 0
 366 110 416 163 434 260 c 0
 452 357 424 410 355 410 c 0
 286 410 236 357 218 260 c 0
458 790 m 1
 324 603 l 1
 193 603 l 1
 280 790 l 1
 458 790 l 1
678 790 m 1
 544 603 l 1
 413 603 l 1
 500 790 l 1
 678 790 l 1
EndSplineSet
Fore
Validated: 1
Layer: 2
EndChar
StartChar: OE
Encoding: 175 338 293
Width: 1011
Flags: HMW
HStem: 0 145<632 951> 295 145<689 948 661 976> 575 145<474 1080 544 555 715 1052 715 715>
LayerCount: 3
Back
SplineSet
951 0 m 1
 394 0 l 2
 152 0 66 137 110 362 c 0
 155 594 302 720 544 720 c 2
 1080 720 l 1
 1052 575 l 1
 715 575 l 1
 689 440 l 1
 976 440 l 1
 948 295 l 1
 661 295 l 1
 632 145 l 1
 979 145 l 1
 951 0 l 1
471 144 m 1
 555 575 l 1
 533 575 l 2
 415 575 309 547 273 363 c 0
 241 196 310 144 446 144 c 2
 471 144 l 1
EndSplineSet
Fore
SplineSet
137.567382812 96.6298828125 m 5
 102.857421875 361.991210938 l 5
 245.970703125 627.869140625 l 5
 544.26171875 719.86328125 l 1
 1080.20214844 719.86328125 l 1
 1080 574.98046875 l 1
 715.239257812 574.98046875 l 1
 689.229492188 440.01953125 l 1
 975.927734375 440.01953125 l 1
 976 295.135742188 l 1
 661.219726562 295.135742188 l 1
 632.125976562 145 l 1
 951.510742188 144.891601562 l 1
 951 0 l 1
 394.291992188 0.1083984375 l 1
 394.291992188 0.06640625 l 1
 137.567382812 96.6298828125 l 5
555.182617188 574.896484375 m 1
 533.174804688 574.896484375 l 1
 372.418945312 537.892578125 l 1
 273.249023438 362.908203125 l 1
 296.705078125 190.767578125 l 1
 446.143554688 143.916015625 l 1
 471.15234375 143.916015625 l 1
 555.182617188 574.896484375 l 1
EndSplineSet
Validated: 1
Layer: 2
EndChar
StartChar: oe
Encoding: 176 339 342
Width: 923
Flags: HMW
HStem: -20.4981 127.5<257.549 304.469 643.109 701.759> 216.142 104.04<600.779 731.339 578.339 740.519> 413.002 127.5<316.709 387.089 716.039 742.049>
VStem: 802.739 158.1<368.122 368.122>
LayerCount: 3
Back
SplineSet
68 260 m 0
 105 452 240 535 379 535 c 0
 450 535 511 513 550 466 c 1
 607 513 678 535 746 535 c 0
 853 535 959 487 952 366 c 0
 946 252 850 217 727 217 c 2
 577 217 l 1
 567 145 607 110 674 110 c 0
 722 110 758 137 776 170 c 1
 911 141 l 1
 852 38 765 -15 640 -15 c 0
 571 -15 509 6 470 53 c 1
 414 6 344 -15 273 -15 c 0
 134 -15 31 68 68 260 c 0
218 260 m 0
 200 163 228 110 297 110 c 0
 366 110 416 163 434 260 c 0
 452 357 424 410 355 410 c 0
 286 410 236 357 218 260 c 0
718 410 m 0
 668 410 616 376 599 319 c 1
 736 319 l 2
 774 319 798 337 797 366 c 0
 796 396 757 410 718 410 c 0
EndSplineSet
Fore
SplineSet
376.319335938 540.291015625 m 1
 475.762695312 523.008789062 l 1
 550.716796875 469.88671875 l 1
 646.502929688 523.008789062 l 1
 750.708007812 540.291015625 l 1
 899.318359375 500.385742188 l 1
 960.817382812 367.939453125 l 1
 890.806640625 248.377929688 l 1
 731.3203125 215.990234375 l 1
 578.3515625 215.990234375 l 1
 598.375976562 133.927734375 l 1
 677.326171875 106.890625 l 1
 740.76953125 124.88671875 l 1
 781.318359375 168.202148438 l 1
 869.803710938 86.3466796875 l 1
 806.0625 19.71484375 l 1
 642.634765625 -20.4794921875 l 1
 544.498046875 -3.79296875 l 1
 469.2578125 48.734375 l 1
 374.544921875 -3.79296875 l 1
 268.416015625 -20.4794921875 l 1
 96.6240234375 46.2587890625 l 1
 59.3271484375 259.859375 l 1
 178.763671875 473.510742188 l 1
 376.319335938 540.291015625 l 1
292.565429688 106.805664062 m 1
 381.942382812 146.2421875 l 1
 432.354492188 259.7734375 l 1
 425.349609375 373.466796875 l 1
 351.831054688 412.920898438 l 1
 262.421875 373.466796875 l 1
 212.041015625 259.7734375 l 1
 218.981445312 146.2421875 l 1
 292.565429688 106.805664062 l 1
600.544921875 320.065429688 m 1
 740.418945312 320.065429688 l 1
 786.409179688 332.958984375 l 1
 802.491210938 367.853515625 l 1
 776.76953125 401.703125 l 1
 721.967773438 412.666015625 l 1
 648.62890625 388.146484375 l 1
 600.544921875 320.065429688 l 1
EndSplineSet
Validated: 1
Layer: 2
SplineSet
550.888671875 -1.1982421875 m 5
 480.311523438 42.7763671875 l 5
 364.4375 -4.5751953125 l 5
 261.317382812 -15.15625 l 5
 132.313476562 25.3251953125 l 5
 96.341796875 131.89453125 l 5
 171.31640625 253.373046875 l 5
 334.259765625 300.700195312 l 5
 450.30078125 324.629882812 l 5
 452.21875 336.803710938 l 5
 444.956054688 387.424804688 l 5
 385.111328125 412.6640625 l 5
 316.84765625 388.375 l 5
 279.157226562 335.63671875 l 5
 183.965820312 404.075195312 l 5
 269.612304688 501.123046875 l 5
 415.122070312 534.625976562 l 5
 505.70703125 521.926757812 l 5
 570.094726562 480.778320312 l 5
 655.03125 521.551757812 l 5
 745.90625 534.625976562 l 5
 891.634765625 495.586914062 l 5
 951.896484375 365.8203125 l 5
 883.309570312 248.603515625 l 5
 727.06640625 216.8515625 l 5
 577.013671875 216.8515625 l 5
 596.604492188 136.388671875 l 5
 673.96484375 109.890625 l 5
 736.205078125 127.534179688 l 5
 776 170 l 5
 862.715820312 89.8251953125 l 5
 800.447265625 24.19921875 l 5
 640.286132812 -15.1484375 l 5
 640.286132812 -15.1484375 l 5
 550.888671875 -1.1982421875 l 5
428.166992188 166.814453125 m 5
 428.333007812 205.836914062 l 5
 431.259765625 233.844726562 l 5
 335.30859375 208.755859375 l 5
 273.204101562 187.268554688 l 5
 246.361328125 141.650390625 l 5
 257.771484375 110.58203125 l 5
 307.3828125 96.7158203125 l 5
 374.865234375 105.971679688 l 5
 433.34375 131.727539062 l 5
 433.34375 131.727539062 l 5
 428.166992188 166.814453125 l 5
599.354492188 318.793945312 m 5
 709.2265625 318.793945312 l 5
 773.092773438 326.881835938 l 5
 797.2578125 365.6875 l 5
 772.040039062 398.873046875 l 5
 718.313476562 409.62109375 l 5
 646.422851562 385.573242188 l 5
 599.354492188 318.793945312 l 5
EndSplineSet
EndChar
StartChar: Racute
Encoding: -1 340 326
Width: 1000
Flags: HM
LayerCount: 3
Back
SplineSet
70 0 m 1
 208 720 l 1
 491 720 l 2
 647 720 754 660 723 503 c 0
 702 393 616 323 508 309 c 1
 579 299 625 232 641 167 c 2
 685 0 l 1
 506 0 l 1
 476 121 l 2
 451 225 411 250 330 250 c 2
 277 250 l 1
 230 0 l 1
 70 0 l 1
340 575 m 1
 303 385 l 1
 373 385 l 2
 476 385 542 412 556 481 c 0
 572 565 503 575 408 575 c 2
 340 575 l 1
678 990 m 1
 514 803 l 1
 383 803 l 1
 500 990 l 1
 678 990 l 1
EndSplineSet
Fore
Validated: 1
Layer: 2
EndChar
StartChar: racute
Encoding: -1 341 310
Width: 1000
Flags: HM
LayerCount: 3
Back
SplineSet
200 0 m 1xb0
 50 0 l 1
 149 520 l 1
 290 520 l 1
 273 430 l 1
 319 500 360 535 435 535 c 0
 475 535 501 528 522 509 c 1
 475 375 l 1
 456 385 435 395 404 395 c 0
 318 395 263 332 244 231 c 2
 200 0 l 1xb0
548 790 m 1
 384 603 l 1
 253 603 l 1xd0
 370 790 l 1
 548 790 l 1
EndSplineSet
Fore
Validated: 1
Layer: 2
EndChar
StartChar: rcaron
Encoding: -1 345 298
Width: 1000
Flags: HM
LayerCount: 3
Back
SplineSet
200 0 m 1xb0
 50 0 l 1
 149 520 l 1
 290 520 l 1
 273 430 l 1
 319 500 360 535 435 535 c 0
 475 535 501 528 522 509 c 1
 475 375 l 1
 456 385 435 395 404 395 c 0
 318 395 263 332 244 231 c 2
 200 0 l 1xb0
420 600 m 1
 283 600 l 1
 189 780 l 1
 327 780 l 1
 366 689 l 1
 443 780 l 1xd0
 584 780 l 1
 420 600 l 1
EndSplineSet
Fore
Validated: 1
Layer: 2
EndChar
StartChar: Sacute
Encoding: -1 346 295
Width: 1000
Flags: HM
LayerCount: 3
Back
SplineSet
79 230 m 1xb0
 234 238 l 1
 225 153 266 125 349 125 c 0
 413 125 471 147 482 204 c 0
 490 245 473 264 419 283 c 0
 384 296 308 317 268 330 c 0
 149 368 141 448 154 516 c 0
 182 665 319 735 450 735 c 0
 620 735 713 664 681 514 c 1
 524 514 l 1
 535 566 504 595 427 595 c 0
 362 595 317 568 311 530 c 0xd0
 305 503 313 487 345 474 c 0
 375 461 443 441 508 422 c 0
 608 392 670 329 646 209 c 0
 616 57 463 -15 326 -15 c 0
 135 -15 60 77 79 230 c 1xb0
678 990 m 1
 514 803 l 1
 383 803 l 1
 500 990 l 1
 678 990 l 1
EndSplineSet
Fore
Validated: 1
Layer: 2
EndChar
StartChar: sacute
Encoding: -1 347 337
Width: 1000
Flags: HM
LayerCount: 3
Back
SplineSet
51 150 m 1xb0
 179 171 l 1
 177 126 215 100 271 100 c 0
 312 100 366 110 374 152 c 0
 379 176 363 188 342 193 c 2
 205 220 l 2
 139 235 89 283 106 369 c 0
 129 488 237 535 354 535 c 0
 478 535 555 462 530 353 c 1
 401 353 l 1
 413 406 364 420 327 420 c 0
 286 420 240 408 233 373 c 0xd0
 229 356 238 342 264 337 c 2
 398 312 l 2
 452 300 526 263 505 156 c 0
 483 41 380 -15 246 -15 c 0
 119 -15 42 55 51 150 c 1xb0
558 790 m 1
 394 603 l 1
 263 603 l 1
 380 790 l 1
 558 790 l 1
EndSplineSet
Fore
Validated: 1
Layer: 2
EndChar
StartChar: scaron
Encoding: -1 353 291
Width: 1000
Flags: HM
LayerCount: 3
Back
SplineSet
51 150 m 1xb0
 179 171 l 1
 177 126 215 100 271 100 c 0
 312 100 366 110 374 152 c 0
 379 176 363 188 342 193 c 2
 205 220 l 2
 139 235 89 283 106 369 c 0
 129 488 237 535 354 535 c 0
 478 535 555 462 530 353 c 1
 401 353 l 1
 413 406 364 420 327 420 c 0
 286 420 240 408 233 373 c 0
 229 356 238 342 264 337 c 2
 398 312 l 2
 452 300 526 263 505 156 c 0xd0
 483 41 380 -15 246 -15 c 0
 119 -15 42 55 51 150 c 1xb0
420 600 m 1
 283 600 l 1
 189 780 l 1
 327 780 l 1
 366 689 l 1
 443 780 l 1
 584 780 l 1
 420 600 l 1
EndSplineSet
Fore
Validated: 1
Layer: 2
EndChar
StartChar: Tcommaaccent
Encoding: -1 354 310
Width: 1000
Flags: HM
LayerCount: 3
Back
SplineSet
412 0 m 1
 252 0 l 1
 362 575 l 1
 140 575 l 1
 168 720 l 1
 772 720 l 1
 744 575 l 1
 522 575 l 1
 412 0 l 1
294 -220 m 1
 217 -220 l 1
 246 -70 l 1
 397 -70 l 1
 368 -220 l 2
 351 -305 300 -353 240 -377 c 1
 215 -314 l 1
 253 -299 283 -274 294 -220 c 1
EndSplineSet
Fore
Validated: 1
Layer: 2
EndChar
StartChar: tcommaaccent
Encoding: -1 355 296
Width: 1000
Flags: HM
LayerCount: 3
Back
SplineSet
348 126 m 1
 334 7 l 1
 312 -4 255 -10 236 -10 c 0
 127 -10 96 50 115 152 c 2
 164 401 l 1
 90 401 l 1
 112 520 l 1
 186 520 l 1
 206 627 l 1
 365 670 l 1
 336 520 l 1
 435 520 l 1
 413 401 l 1
 314 401 l 1
 274 197 l 2
 265 152 259 120 306 120 c 0
 316 120 331 121 348 126 c 1
167 -220 m 1
 90 -220 l 1
 119 -70 l 1
 270 -70 l 1
 241 -220 l 2
 224 -305 173 -353 113 -377 c 1
 88 -314 l 1
 126 -299 156 -274 167 -220 c 1
EndSplineSet
Fore
Validated: 1
Layer: 2
EndChar
StartChar: Tcaron
Encoding: -1 356 338
Width: 1000
Flags: HM
LayerCount: 3
Back
SplineSet
412 0 m 1
 252 0 l 1
 362 575 l 1
 140 575 l 1
 168 720 l 1
 772 720 l 1
 744 575 l 1
 522 575 l 1
 412 0 l 1
535 790 m 1
 398 790 l 1
 286 980 l 1
 424 980 l 1
 481 879 l 1
 580 980 l 1
 721 980 l 1
 535 790 l 1
EndSplineSet
Fore
Validated: 1
Layer: 2
EndChar
StartChar: tcaron
Encoding: 177 357 342
Width: 521
Flags: HMW
HStem: -10 130<189.5 319> 401 119<121 171 97 195 345 420> 570 150<499 547 470 650 621 621>
LayerCount: 3
Back
SplineSet
356 126 m 1
 342 7 l 1
 320 -4 263 -10 244 -10 c 0
 135 -10 103 50 123 152 c 2
 171 401 l 1
 97 401 l 1
 121 520 l 1
 195 520 l 1
 215 627 l 1
 374 670 l 1
 345 520 l 1
 444 520 l 1
 420 401 l 1
 321 401 l 1
 282 197 l 2
 273 152 267 120 314 120 c 0
 324 120 339 121 356 126 c 1
547 570 m 1
 470 570 l 1
 499 720 l 1
 650 720 l 1
 621 570 l 2
 605 485 553 437 494 413 c 1
 469 476 l 1
 507 491 537 516 547 570 c 1
EndSplineSet
Fore
SplineSet
245.874023438 -14.88671875 m 1
 137.377929688 27.896484375 l 1
 123.415039062 152.08984375 l 1
 172.348632812 401.0078125 l 1
 98.40625 401.0078125 l 1
 98.2470703125 520.05078125 l 1
 194.5234375 520.05078125 l 1
 224.25 680 l 1
 369.75 652.25 l 1
 344.326171875 520.05078125 l 1
 421.5 520.05078125 l 1
 421.1875 401.0078125 l 1
 322.235351562 401.0078125 l 1
 282.3046875 197.0234375 l 1
 277.326171875 141.7421875 l 1
 314.235351562 120.163085938 l 1
 356.25 126 l 1
 373.75 10 l 1
 245.874023438 -14.88671875 l 1
489.456054688 678.122070312 m 1
 542.9140625 722.908203125 l 1
 607.370117188 722.908203125 l 1
 643.485351562 678.11328125 l 1
 637.327148438 646.373046875 l 1
 622.501953125 569.939453125 l 1
 573.768554688 466.580078125 l 1
 502.98046875 417.758789062 l 1
 466.471679688 474.115234375 l 1
 517.032226562 507.10546875 l 1
 546.995117188 569.939453125 l 1
 513.307617188 569.939453125 l 1
 477.180664062 614.760742188 l 1
 489.456054688 678.122070312 l 1
EndSplineSet
Validated: 1
Layer: 2
EndChar
StartChar: Uring
Encoding: -1 366 312
Width: 1000
Flags: HM
LayerCount: 3
Back
SplineSet
661 720 m 1
 583 317 l 2
 556 179 494 130 401 130 c 0
 308 130 263 179 290 317 c 2
 368 720 l 1
 208 720 l 1
 128 302 l 2
 90 107 178 -15 373 -15 c 0
 570 -15 703 107 741 302 c 2
 821 720 l 1
 661 720 l 1
407 892 m 0
 422 970 500 1035 578 1035 c 0
 657 1035 708 970 693 892 c 0
 678 813 601 749 522 749 c 0
 444 749 392 813 407 892 c 0
500 892 m 0
 494 864 513 842 540 842 c 0
 567 842 592 864 598 892 c 0
 603 918 586 940 559 940 c 0
 532 940 505 918 500 892 c 0
EndSplineSet
Fore
Validated: 1
Layer: 2
EndChar
StartChar: uring
Encoding: -1 367 297
Width: 1000
Flags: HM
LayerCount: 3
Back
SplineSet
614 520 m 1x68
 464 520 l 1
 410 237 l 2
 393 153 342 111 290 111 c 0
 232 111 217 145 229 205 c 2
 289 520 l 1
 139 520 l 1
 78 201 l 2
 54 77 81 -15 225 -15 c 0xb4
 287 -15 337 11 388 75 c 1
 374 0 l 1
 515 0 l 1
 614 520 l 1x68
268 722 m 0
 283 800 361 865 439 865 c 0
 518 865 569 800 554 722 c 0
 538 643 462 579 383 579 c 0
 305 579 252 643 268 722 c 0
361 722 m 0
 355 694 374 672 401 672 c 0
 428 672 453 694 459 722 c 0
 464 748 447 770 420 770 c 0
 393 770 366 748 361 722 c 0
EndSplineSet
Fore
Validated: 1
Layer: 2
EndChar
StartChar: Uhungarumlaut
Encoding: -1 368 312
Width: 1000
Flags: HM
LayerCount: 3
Back
SplineSet
583 317 m 2
 661 720 l 1
 821 720 l 1
 741 302 l 2
 703 107 570 -15 373 -15 c 0
 178 -15 90 107 128 302 c 2
 208 720 l 1
 368 720 l 1
 290 317 l 2
 263 179 308 130 401 130 c 0
 494 130 556 179 583 317 c 2
598 990 m 1
 464 803 l 1
 333 803 l 1
 420 990 l 1
 598 990 l 1
828 990 m 1
 694 803 l 1
 563 803 l 1
 650 990 l 1
 828 990 l 1
EndSplineSet
Fore
Validated: 1
Layer: 2
EndChar
StartChar: uhungarumlaut
Encoding: -1 369 297
Width: 1000
Flags: HM
LayerCount: 3
Back
SplineSet
464 520 m 1xb0
 614 520 l 1
 515 0 l 1
 374 0 l 1
 388 75 l 1
 337 11 287 -15 225 -15 c 0
 81 -15 54 77 78 201 c 2
 139 520 l 1
 289 520 l 1
 229 205 l 2
 217 145 232 111 290 111 c 0
 342 111 393 153 410 237 c 2
 464 520 l 1xb0
468 790 m 1
 334 603 l 1
 203 603 l 1
 290 790 l 1
 468 790 l 1
688 790 m 1
 554 603 l 1
 423 603 l 1x70
 510 790 l 1
 688 790 l 1
EndSplineSet
Fore
Validated: 1
Layer: 2
EndChar
StartChar: Ydieresis
Encoding: 178 376 289
Width: 705
Flags: HMW
HStem: 0 21G<272 433 272 272> 700 20G<148 323 323 323 663 833 833 833> 780 140<319 444 293 470 319 534 560 685>
LayerCount: 3
Back
SplineSet
433 0 m 1
 272 0 l 1
 327 293 l 1
 148 720 l 1
 323 720 l 1
 441 443 l 1
 663 720 l 1
 833 720 l 1
 488 293 l 1
 433 0 l 1
444 780 m 1
 293 780 l 1
 319 920 l 1
 470 920 l 1
 444 780 l 1
685 780 m 1
 534 780 l 1
 560 920 l 1
 711 920 l 1
 685 780 l 1
EndSplineSet
Fore
Validated: 1
Layer: 2
EndChar
StartChar: zacute
Encoding: -1 378 335
Width: 1000
Flags: HM
LayerCount: 3
Back
SplineSet
444 0 m 1
 30 0 l 1
 53 125 l 1
 352 395 l 1
 124 395 l 1
 148 520 l 1
 557 520 l 1
 533 395 l 1
 229 125 l 1
 517 125 l 1
 444 0 l 1
568 790 m 1
 404 603 l 1
 273 603 l 1
 390 790 l 1
 568 790 l 1
EndSplineSet
Fore
Validated: 1
Layer: 2
EndChar
StartChar: Zdotaccent
Encoding: -1 379 331
Width: 1000
Flags: HM
LayerCount: 3
Back
SplineSet
612 0 m 1
 50 0 l 1
 77 145 l 1
 533 575 l 1
 180 575 l 1
 208 720 l 1
 740 720 l 1
 712 575 l 1
 251 145 l 1
 639 145 l 1
 612 0 l 1
538 779 m 1
 388 779 l 1
 415 920 l 1
 565 920 l 1
 538 779 l 1
EndSplineSet
Fore
Validated: 1
Layer: 2
EndChar
StartChar: zdotaccent
Encoding: -1 380 326
Width: 1000
Flags: HM
LayerCount: 3
Back
SplineSet
444 0 m 1
 30 0 l 1
 53 125 l 1
 352 395 l 1
 124 395 l 1
 148 520 l 1
 557 520 l 1
 533 395 l 1
 229 125 l 1
 517 125 l 1
 444 0 l 1
431 584 m 1
 281 584 l 1
 308 720 l 1
 458 720 l 1
 431 584 l 1
EndSplineSet
Fore
Validated: 1
Layer: 2
EndChar
StartChar: zcaron
Encoding: -1 382 289
Width: 1000
Flags: HM
LayerCount: 3
Back
SplineSet
444 0 m 1
 30 0 l 1
 53 125 l 1
 352 395 l 1
 124 395 l 1
 148 520 l 1
 557 520 l 1
 533 395 l 1
 229 125 l 1
 517 125 l 1
 444 0 l 1
430 600 m 1
 293 600 l 1
 199 780 l 1
 337 780 l 1
 376 689 l 1
 453 780 l 1
 594 780 l 1
 430 600 l 1
EndSplineSet
Fore
Validated: 1
Layer: 2
EndChar
